<?xml version="1.0" encoding="utf-8"?>
<!-- Generator: Adobe Illustrator 28.0.0, SVG Export Plug-In . SVG Version: 6.00 Build 0)  -->
<svg version="1.1" id="Calque_1" xmlns="http://www.w3.org/2000/svg" xmlns:xlink="http://www.w3.org/1999/xlink" x="0px" y="0px"
	 viewBox="0 0 1080 1920" style="enable-background:new 0 0 1080 1920;" xml:space="preserve">
<style type="text/css">
	.st0{fill:#E9E8E3;}
	.st1{fill:#018EBB;}
	.st2{enable-background:new    ;}
	.st3{fill:#FAF9F2;}
	.st4{fill:#000018;}
	.st5{opacity:7.000000e-02;enable-background:new    ;}
	.st6{fill:none;stroke:#000018;stroke-width:6;stroke-linecap:round;stroke-miterlimit:10;}
</style>
<circle class="st0" cx="832.2" cy="312.1" r="166.2"/>
<circle class="st0" cx="176.7" cy="602.2" r="54.1"/>
<g>
	<g>
		<g>
			<circle class="st1" cx="265.4" cy="450.8" r="12"/>
		</g>
	</g>
	<g>
		<g>
			<circle class="st1" cx="265.4" cy="508.8" r="12"/>
		</g>
	</g>
	<g>
		<g>
			<circle class="st1" cx="265.4" cy="334.8" r="12"/>
		</g>
	</g>
	<g>
		<g>
			<circle class="st1" cx="265.4" cy="392.8" r="12"/>
		</g>
	</g>
	<g>
		<g>
			<circle class="st1" cx="265.4" cy="276.9" r="12"/>
		</g>
	</g>
	<g>
		<g>
			<circle class="st1" cx="207.4" cy="450.8" r="12"/>
		</g>
	</g>
	<g>
		<g>
			<circle class="st1" cx="207.4" cy="508.8" r="12"/>
		</g>
	</g>
	<g>
		<g>
			<circle class="st1" cx="207.4" cy="334.8" r="12"/>
		</g>
	</g>
	<g>
		<g>
			<circle class="st1" cx="207.4" cy="392.8" r="12"/>
		</g>
	</g>
	<g>
		<g>
			<circle class="st1" cx="207.4" cy="276.9" r="12"/>
		</g>
	</g>
	<g>
		<g>
			<circle class="st1" cx="149.5" cy="450.8" r="12"/>
		</g>
	</g>
	<g>
		<g>
			<circle class="st1" cx="149.5" cy="508.8" r="12"/>
		</g>
	</g>
	<g>
		<g>
			<circle class="st1" cx="149.5" cy="334.8" r="12"/>
		</g>
	</g>
	<g>
		<g>
			<circle class="st1" cx="149.5" cy="392.8" r="12"/>
		</g>
	</g>
	<g>
		<g>
			<circle class="st1" cx="149.5" cy="276.9" r="12"/>
		</g>
	</g>
	<g>
		<g>
			<circle class="st1" cx="265.4" cy="218.9" r="12"/>
		</g>
	</g>
	<g>
		<g>
			<circle class="st1" cx="207.4" cy="218.9" r="12"/>
		</g>
	</g>
	<g>
		<g>
			<circle class="st1" cx="149.5" cy="218.9" r="12"/>
		</g>
	</g>
</g>
<g>
	<g>
		<g>
			<circle class="st0" cx="947" cy="1091.6" r="12.9"/>
		</g>
	</g>
	<g>
		<g>
			<circle class="st0" cx="1009.1" cy="1091.6" r="12.9"/>
		</g>
	</g>
	<g>
		<g>
			<circle class="st0" cx="823" cy="1091.6" r="12.9"/>
		</g>
	</g>
	<g>
		<g>
			<circle class="st0" cx="885" cy="1091.6" r="12.9"/>
		</g>
	</g>
	<g>
		<g>
			<circle class="st0" cx="760.8" cy="1091.6" r="12.9"/>
		</g>
	</g>
	<g>
		<g>
			<circle class="st0" cx="947" cy="1153.7" r="12.9"/>
		</g>
	</g>
	<g>
		<g>
			<circle class="st0" cx="1009.1" cy="1153.7" r="12.9"/>
		</g>
	</g>
	<g>
		<g>
			<circle class="st0" cx="823" cy="1153.7" r="12.9"/>
		</g>
	</g>
	<g>
		<g>
			<circle class="st0" cx="885" cy="1153.7" r="12.9"/>
		</g>
	</g>
	<g>
		<g>
			<circle class="st0" cx="760.8" cy="1153.7" r="12.9"/>
		</g>
	</g>
	<g>
		<g>
			<circle class="st0" cx="947" cy="1215.7" r="12.9"/>
		</g>
	</g>
	<g>
		<g>
			<circle class="st0" cx="1009.1" cy="1215.7" r="12.9"/>
		</g>
	</g>
	<g>
		<g>
			<circle class="st0" cx="823" cy="1215.7" r="12.9"/>
		</g>
	</g>
	<g>
		<g>
			<circle class="st0" cx="885" cy="1215.7" r="12.9"/>
		</g>
	</g>
	<g>
		<g>
			<circle class="st0" cx="760.8" cy="1215.7" r="12.9"/>
		</g>
	</g>
	<g>
		<g>
			<circle class="st0" cx="698.8" cy="1091.6" r="12.9"/>
		</g>
	</g>
	<g>
		<g>
			<circle class="st0" cx="698.8" cy="1153.7" r="12.9"/>
		</g>
	</g>
	<g>
		<g>
			<circle class="st0" cx="698.8" cy="1215.7" r="12.9"/>
		</g>
	</g>
</g>
<g>
	<g class="st2">
		<g>
			<path d="M179.3,1075.5c0-40.3,31.2-70.9,72.5-70.9c25.8,0,47.7,11.9,60.6,30.8l-26.6,16.5c-7.4-10.8-19.7-17.7-34-17.7
				c-23.2,0-40.9,17.7-40.9,41.3c0,23.7,17.7,41.3,40.9,41.3c14.3,0,26.6-6.9,34-17.7l26.6,16.5c-12.9,18.9-34.8,30.8-60.6,30.8
				C210.6,1146.5,179.3,1115.9,179.3,1075.5z"/>
		</g>
		<g>
			<path d="M320.1,1093.4c0-30.2,23.4-53.1,54.7-53.1s54.7,22.9,54.7,53.1c0,30.2-23.4,53.1-54.7,53.1S320.1,1123.7,320.1,1093.4z
				 M399.5,1093.4c0-14.3-10.5-25-24.8-25s-24.8,10.8-24.8,25c0,14.3,10.5,25,24.8,25S399.5,1107.7,399.5,1093.4z"/>
		</g>
		<g>
			<path d="M606.7,1077.9v66.2h-29v-57.4c0-11-6.9-18.2-17.7-18.2c-11.1,0-18.9,7.6-18.9,18.7v57.1h-29v-57.4
				c0-11-6.9-18.2-17.7-18.2c-11.1,0-18.9,7.6-18.9,18.7v57.1h-29v-101.4h29v9.7c7.4-7.9,17.1-12.1,28.8-12.1
				c13.7,0,24.7,5.8,31,15.7c8.2-10.3,19.7-15.7,33.8-15.7C592,1040.3,606.7,1055.3,606.7,1077.9z"/>
		</g>
		<g>
			<path d="M624.6,1011.9c0-10.1,7.7-17.7,17.9-17.7c10.3,0,18.1,7.6,18.1,17.7c0,10.3-7.7,17.9-18.1,17.9
				C632.3,1029.8,624.6,1022.3,624.6,1011.9z M628,1042.7h29v101.4h-29V1042.7z"/>
		</g>
		<g>
			<path d="M778.7,1078.9v65.2h-29v-55.5c0-12.3-7.7-20.3-19.7-20.3c-12.3,0-20.8,8.2-20.8,20.6v55.1H680v-101.4h29v10.1
				c7.9-8.2,18.2-12.6,30.8-12.6C763.2,1040.3,778.7,1055.6,778.7,1078.9z"/>
		</g>
		<g>
			<path d="M903.3,1174l-29.8,8.2c-0.8-6.6-6.3-11-14.5-11h-31.6c-19.7,0-32.6-11.3-32.6-28.2c0-10.8,5.3-21.1,13.9-26.3
				c-8.4-7.9-13.4-19-13.4-31.6c0-25.6,20.5-44.7,47.9-44.7c7.7,0,15,1.6,21.3,4.2c2.9-11,13.1-17.9,27.1-17.9h8.5v26.8H893
				c-4.8,0-8.5,2.4-9.5,6.1c5,7.1,7.9,15.7,7.9,25.5c0,25.6-20.6,44.7-48.1,44.7c-5.2,0-10.1-0.6-15-2c-2.9,2-4.5,4.8-4.5,7.7
				c0,4.5,3.7,7.6,9.2,7.6h31.6C885,1143.2,899.5,1154.5,903.3,1174z M825.1,1085.1c0,10,7.7,17.3,18.1,17.3
				c10.3,0,18.2-7.4,18.2-17.3c0-10-7.9-17.3-18.2-17.3C832.7,1067.8,825.1,1075.1,825.1,1085.1z"/>
		</g>
	</g>
	<g class="st2">
		<g>
			<path d="M176.7,1296.5l13.5-18.7c7.7,6.6,17.3,11,29,11c9.5,0,16.1-2.8,16.1-8.2c0-5.8-7.7-7.7-18.1-10.1
				c-16.1-3.6-37.4-8.4-37.4-32.2c0-21.9,19-32.6,42.1-32.6c17.9,0,30.8,6.3,40.3,13.4l-13.5,18.7c-7.6-5.2-15.9-8.9-25.8-8.9
				c-7.7,0-14.2,2.2-14.2,7.4c0,5.8,7.7,7.6,18.1,9.7c15.9,3.4,37.4,8.4,37.4,32.1c0,22.3-19.5,34-44.2,34
				C201,1311.8,186.7,1304.7,176.7,1296.5z"/>
		</g>
		<g>
			<path d="M274.1,1258.8c0-30.2,23.4-53.1,54.7-53.1c31.2,0,54.7,22.9,54.7,53.1c0,30.2-23.4,53.1-54.7,53.1
				C297.6,1311.8,274.1,1289.1,274.1,1258.8z M353.7,1258.8c0-14.3-10.5-25-24.8-25s-24.8,10.8-24.8,25c0,14.3,10.5,25,24.8,25
				S353.7,1273.1,353.7,1258.8z"/>
		</g>
		<g>
			<path d="M394.7,1258.8c0-30.2,23.4-53.1,54.7-53.1s54.7,22.9,54.7,53.1c0,30.2-23.4,53.1-54.7,53.1S394.7,1289.1,394.7,1258.8z
				 M474.1,1258.8c0-14.3-10.5-25-24.8-25c-14.3,0-24.8,10.8-24.8,25c0,14.3,10.5,25,24.8,25
				C463.5,1283.9,474.1,1273.1,474.1,1258.8z"/>
		</g>
		<g>
			<path d="M619.6,1244.3v65.2h-29v-55.5c0-12.3-7.7-20.3-19.7-20.3c-12.3,0-20.8,8.2-20.8,20.6v55.1h-29v-101.4h29v10.1
				c7.9-8.2,18.2-12.6,30.8-12.6C604.1,1205.7,619.6,1221,619.6,1244.3z"/>
		</g>
	</g>
	<g>
		<g>
			<rect x="176.7" y="1328.4" class="st1" width="443" height="12.5"/>
		</g>
	</g>
</g>
<g>
	<g>
		<g>
			<g>
				<g>
					<g>
						<path class="st3" d="M195.1,692.9V292.4c0-6.2,5.1-11.3,11.3-11.3h667.2c6.2,0,11.3,5.1,11.3,11.3v400.5H195.1z"/>
					</g>
				</g>
				<g>
					<g>
						<path class="st4" d="M873.7,291.5c0.5,0,0.9,0.4,0.9,0.9v390h-669v-390c0-0.5,0.4-0.9,0.9-0.9H873.7 M873.7,270.5H206.3
							c-12.1,0-21.8,9.8-21.8,21.7v411h710.7V292.4C895.4,280.3,885.6,270.5,873.7,270.5L873.7,270.5z"/>
					</g>
				</g>
			</g>
			<g>
				<g>
					<g>
						<path class="st4" d="M895.4,703.2H184.6L97.9,880.9c-7,14.3,3.4,30.9,19.3,30.9h845.7c15.9,0,26.2-16.6,19.3-30.9L895.4,703.2
							z"/>
					</g>
				</g>
			</g>
			<g>
				<g>
					<g>
						<path class="st3" d="M619.7,889.9H460.5c-4.5,0-7.9-3.9-7.6-8.4l5.1-47.1c0.4-3.8,3.7-6.7,7.6-6.7h148.8
							c3.9,0,7.1,2.9,7.6,6.7l5.1,47.1C627.6,886,624.1,889.9,619.7,889.9z"/>
					</g>
				</g>
			</g>
			<g class="st5">
				<g>
					<path class="st4" d="M224.3,270.5l671.2,432.7V333c0-34.4-27.9-62.3-62.3-62.3L224.3,270.5L224.3,270.5z"/>
				</g>
			</g>
		</g>
		<g>
			<g class="st2">
				<g>
					<path class="st1" d="M314.7,522.8c0.4-0.7,1-1.3,1.6-1.7c0.7-0.4,1.5-0.6,2.3-0.6c0.9,0,1.6,0.1,2.2,0.5s1.1,0.9,1.3,1.3v-1.7
						h1.6v9.5h-1.6v-1.7c-0.4,0.6-0.7,1-1.3,1.3c-0.6,0.4-1.3,0.5-2.2,0.5c-0.9,0-1.6-0.2-2.3-0.6s-1.2-1-1.6-1.7
						c-0.4-0.7-0.6-1.6-0.6-2.6C314.1,524.4,314.3,523.6,314.7,522.8z M321.6,523.6c-0.2-0.5-0.7-1-1.2-1.2c-0.5-0.2-1-0.4-1.6-0.4
						c-0.6,0-1.1,0.1-1.6,0.4s-0.9,0.7-1.1,1.2c-0.2,0.5-0.5,1.1-0.5,1.8c0,0.7,0.1,1.3,0.5,2c0.2,0.5,0.7,1,1.1,1.2s1,0.4,1.6,0.4
						c0.6,0,1.1-0.1,1.6-0.4c0.5-0.2,0.9-0.7,1.2-1.2c0.2-0.5,0.5-1.2,0.5-1.8C322.1,524.9,321.9,524,321.6,523.6z"/>
				</g>
				<g>
					<path class="st1" d="M333.6,521c0.6,0.4,1.1,0.9,1.3,1.3v-1.7h1.6v9.6c0,0.9-0.2,1.6-0.6,2.3c-0.4,0.7-0.9,1.2-1.6,1.6
						c-0.7,0.4-1.5,0.6-2.4,0.6c-1.2,0-2.3-0.2-3.2-0.9s-1.3-1.3-1.5-2.4h1.6c0.1,0.6,0.5,1.1,1.1,1.3c0.5,0.4,1.2,0.5,2,0.5
						c0.9,0,1.6-0.2,2.1-0.9c0.5-0.6,0.9-1.3,0.9-2.3v-1.8c-0.4,0.6-0.7,1-1.3,1.3c-0.6,0.4-1.3,0.6-2.2,0.6c-0.9,0-1.6-0.2-2.3-0.6
						s-1.2-1-1.6-1.7c-0.4-0.7-0.6-1.6-0.6-2.6s0.2-1.8,0.6-2.6c0.4-0.7,1-1.3,1.6-1.7c0.7-0.4,1.5-0.6,2.3-0.6
						C332.2,520.5,333,520.7,333.6,521z M334.6,523.6c-0.2-0.5-0.7-1-1.2-1.2c-0.5-0.2-1-0.4-1.6-0.4c-0.6,0-1.1,0.1-1.6,0.4
						c-0.5,0.2-0.9,0.7-1.1,1.2c-0.2,0.5-0.5,1.1-0.5,1.8c0,0.7,0.1,1.3,0.5,2c0.2,0.5,0.7,1,1.1,1.2s1,0.4,1.6,0.4
						c0.6,0,1.1-0.1,1.6-0.4s0.9-0.7,1.2-1.2c0.2-0.5,0.5-1.2,0.5-1.8C335.1,524.9,334.8,524,334.6,523.6z"/>
				</g>
				<g>
					<path class="st1" d="M349.1,526h-7.6c0,1,0.4,1.7,1,2.2c0.6,0.5,1.3,0.7,2.1,0.7s1.2-0.1,1.7-0.5c0.5-0.4,0.7-0.7,1-1.2h1.7
						c-0.2,0.9-0.7,1.7-1.5,2.2c-0.7,0.6-1.7,0.9-2.8,0.9c-0.9,0-1.7-0.2-2.4-0.6s-1.2-1-1.7-1.7c-0.4-0.7-0.6-1.6-0.6-2.6
						c0-1,0.2-1.8,0.6-2.6c0.4-0.7,1-1.3,1.7-1.7s1.5-0.6,2.4-0.6c0.9,0,1.7,0.2,2.4,0.6s1.2,1,1.6,1.6c0.4,0.7,0.6,1.5,0.6,2.3
						C349.1,525.4,349.1,525.6,349.1,526z M347,523.2c-0.2-0.5-0.6-0.7-1.1-1c-0.5-0.2-1-0.4-1.5-0.4c-0.9,0-1.5,0.2-2.1,0.7
						s-0.9,1.2-1,2.1h6C347.5,524.2,347.4,523.6,347,523.2z"/>
				</g>
				<g>
					<path class="st1" d="M359.8,521.5c0.7,0.7,1.1,1.7,1.1,3v5.6h-1.6v-5.4c0-1-0.2-1.7-0.7-2.2c-0.5-0.5-1.1-0.7-2-0.7
						s-1.5,0.2-2,0.7c-0.5,0.5-0.7,1.2-0.7,2.3v5.2h-1.6v-9.5h1.6v1.3c0.4-0.5,0.7-0.9,1.2-1.1c0.5-0.2,1.1-0.4,1.8-0.4
						C358.1,520.5,359.1,520.9,359.8,521.5z"/>
				</g>
				<g>
					<path class="st1" d="M364.7,522.8c0.4-0.7,1-1.3,1.6-1.7c0.7-0.4,1.5-0.6,2.4-0.6c1.2,0,2.1,0.2,2.9,0.9
						c0.7,0.6,1.2,1.3,1.5,2.3h-1.7c-0.1-0.6-0.5-1-1-1.3c-0.5-0.4-1.1-0.5-1.7-0.5c-0.9,0-1.6,0.4-2.2,1c-0.6,0.6-0.9,1.5-0.9,2.6
						c0,1.1,0.2,2.1,0.9,2.7c0.6,0.6,1.2,1,2.2,1c0.7,0,1.2-0.1,1.7-0.5s0.7-0.7,1-1.3h1.7c-0.2,1-0.7,1.7-1.5,2.3
						c-0.7,0.6-1.7,0.9-2.8,0.9c-0.9,0-1.7-0.2-2.4-0.6c-0.7-0.4-1.2-1-1.6-1.7c-0.4-0.7-0.6-1.6-0.6-2.6
						C364.1,524.4,364.2,523.6,364.7,522.8z"/>
				</g>
				<g>
					<path class="st1" d="M384.9,526h-7.6c0,1,0.4,1.7,1,2.2c0.6,0.5,1.3,0.7,2.1,0.7s1.2-0.1,1.7-0.5c0.5-0.4,0.7-0.7,1-1.2h1.7
						c-0.2,0.9-0.7,1.7-1.5,2.2c-0.7,0.6-1.7,0.9-2.8,0.9c-0.9,0-1.7-0.2-2.4-0.6s-1.2-1-1.7-1.7c-0.4-0.7-0.6-1.6-0.6-2.6
						c0-1,0.2-1.8,0.6-2.6c0.4-0.7,1-1.3,1.7-1.7s1.5-0.6,2.4-0.6c0.9,0,1.7,0.2,2.4,0.6s1.2,1,1.6,1.6c0.4,0.7,0.6,1.5,0.6,2.3
						C384.9,525.4,384.9,525.6,384.9,526z M383,523.2c-0.2-0.5-0.6-0.7-1.1-1c-0.5-0.2-1-0.4-1.5-0.4c-0.9,0-1.5,0.2-2.1,0.7
						c-0.6,0.5-0.9,1.2-1,2.1h6C383.4,524.2,383.2,523.6,383,523.2z"/>
				</g>
				<g>
					<path class="st1" d="M394.1,522.8c0.4-0.7,1-1.3,1.6-1.7c0.7-0.4,1.5-0.6,2.3-0.6c0.7,0,1.5,0.1,2.1,0.5
						c0.6,0.4,1.1,0.7,1.5,1.3v-5h1.6v12.8h-1.6v-1.8c-0.4,0.6-0.7,1-1.3,1.3c-0.6,0.4-1.3,0.5-2.2,0.5c-0.9,0-1.6-0.2-2.3-0.6
						s-1.2-1-1.6-1.7c-0.4-0.7-0.6-1.6-0.6-2.6C393.5,524.4,393.7,523.6,394.1,522.8z M401,523.6c-0.2-0.5-0.7-1-1.2-1.2
						c-0.5-0.2-1-0.4-1.6-0.4c-0.6,0-1.1,0.1-1.6,0.4c-0.5,0.2-0.9,0.7-1.1,1.2c-0.2,0.5-0.5,1.1-0.5,1.8c0,0.7,0.1,1.3,0.5,2
						c0.2,0.5,0.7,1,1.1,1.2s1,0.4,1.6,0.4c0.6,0,1.1-0.1,1.6-0.4c0.5-0.2,0.9-0.7,1.2-1.2c0.2-0.5,0.5-1.2,0.5-1.8
						C401.5,524.9,401.4,524,401,523.6z"/>
				</g>
				<g>
					<path class="st1" d="M415.6,526H408c0,1,0.4,1.7,1,2.2c0.6,0.5,1.3,0.7,2.1,0.7s1.2-0.1,1.7-0.5c0.5-0.4,0.7-0.7,1-1.2h1.7
						c-0.2,0.9-0.7,1.7-1.5,2.2c-0.7,0.6-1.7,0.9-2.8,0.9c-0.9,0-1.7-0.2-2.4-0.6s-1.2-1-1.7-1.7c-0.4-0.7-0.6-1.6-0.6-2.6
						c0-1,0.2-1.8,0.6-2.6c0.4-0.7,1-1.3,1.7-1.7s1.5-0.6,2.4-0.6c0.9,0,1.7,0.2,2.4,0.6s1.2,1,1.6,1.6c0.4,0.7,0.6,1.5,0.6,2.3
						C415.7,525.4,415.7,525.6,415.6,526z M413.6,523.2c-0.2-0.5-0.6-0.7-1.1-1c-0.5-0.2-1-0.4-1.5-0.4c-0.9,0-1.5,0.2-2.1,0.7
						c-0.6,0.5-0.9,1.2-1,2.1h6C414,524.2,413.9,523.6,413.6,523.2z"/>
				</g>
				<g>
					<path class="st1" d="M424.7,522.8c0.4-0.7,1-1.3,1.6-1.7c0.7-0.4,1.5-0.6,2.4-0.6c1.2,0,2.1,0.2,2.9,0.9
						c0.7,0.6,1.2,1.3,1.5,2.3h-1.7c-0.1-0.6-0.5-1-1-1.3c-0.5-0.4-1.1-0.5-1.7-0.5c-0.9,0-1.6,0.4-2.2,1c-0.6,0.6-0.9,1.5-0.9,2.6
						c0,1.1,0.2,2.1,0.9,2.7c0.6,0.6,1.2,1,2.2,1c0.7,0,1.2-0.1,1.7-0.5s0.7-0.7,1-1.3h1.7c-0.2,1-0.7,1.7-1.5,2.3
						c-0.7,0.6-1.7,0.9-2.8,0.9c-0.9,0-1.7-0.2-2.4-0.6s-1.2-1-1.6-1.7c-0.4-0.7-0.6-1.6-0.6-2.6
						C424.2,524.4,424.4,523.6,424.7,522.8z"/>
				</g>
				<g>
					<path class="st1" d="M438.1,529.7c-0.7-0.4-1.3-1-1.7-1.7c-0.4-0.7-0.6-1.6-0.6-2.6s0.2-1.8,0.6-2.6c0.4-0.7,1-1.3,1.7-1.7
						c0.7-0.4,1.6-0.6,2.4-0.6s1.7,0.2,2.4,0.6s1.3,1,1.7,1.7c0.4,0.7,0.6,1.6,0.6,2.6c0,1-0.2,1.8-0.6,2.6c-0.4,0.7-1,1.3-1.7,1.7
						c-0.7,0.4-1.6,0.6-2.4,0.6C439.7,530.3,438.9,530.1,438.1,529.7z M442.2,528.6c0.5-0.2,0.9-0.6,1.2-1.2c0.2-0.5,0.5-1.2,0.5-2
						c0-0.7-0.1-1.5-0.5-2c-0.2-0.5-0.7-1-1.2-1.2c-0.5-0.2-1-0.4-1.6-0.4c-0.6,0-1.1,0.1-1.6,0.4c-0.5,0.2-0.9,0.6-1.1,1.2
						c-0.2,0.5-0.5,1.2-0.5,2c0,0.7,0.1,1.5,0.4,2c0.2,0.5,0.6,1,1.1,1.2s1,0.4,1.6,0.4C441.1,528.9,441.7,528.8,442.2,528.6z"/>
				</g>
				<g>
					<path class="st1" d="M462.2,521c0.6,0.4,1,0.7,1.3,1.3c0.4,0.6,0.5,1.3,0.5,2.2v5.6h-1.6v-5.4c0-1-0.2-1.7-0.7-2.2
						c-0.5-0.5-1.1-0.7-2-0.7c-0.9,0-1.5,0.2-2,0.7c-0.5,0.5-0.7,1.3-0.7,2.3v5.2h-1.6v-5.4c0-1-0.2-1.7-0.7-2.2
						c-0.5-0.5-1.1-0.7-2-0.7c-0.9,0-1.5,0.2-2,0.7c-0.5,0.5-0.7,1.3-0.7,2.3v5.2h-1.6v-9.5h1.6v1.3c0.4-0.5,0.7-0.9,1.2-1.1
						c0.5-0.2,1.1-0.4,1.7-0.4c0.9,0,1.5,0.1,2.1,0.5c0.6,0.4,1.1,0.9,1.3,1.6c0.2-0.6,0.7-1.2,1.3-1.6c0.6-0.4,1.3-0.6,2.1-0.6
						C460.8,520.5,461.6,520.6,462.2,521z"/>
				</g>
				<g>
					<path class="st1" d="M481.1,521c0.6,0.4,1,0.7,1.3,1.3c0.4,0.6,0.5,1.3,0.5,2.2v5.6h-1.6v-5.4c0-1-0.2-1.7-0.7-2.2
						c-0.5-0.5-1.1-0.7-2-0.7c-0.9,0-1.5,0.2-2,0.7c-0.5,0.5-0.7,1.3-0.7,2.3v5.2h-1.3v-5.4c0-1-0.2-1.7-0.7-2.2
						c-0.5-0.5-1.1-0.7-2-0.7c-0.9,0-1.5,0.2-2,0.7c-0.5,0.5-0.7,1.3-0.7,2.3v5.2h-1.6v-9.5h1.6v1.3c0.4-0.5,0.7-0.9,1.2-1.1
						c0.5-0.2,1.1-0.4,1.7-0.4c0.9,0,1.5,0.1,2.1,0.5s1.1,0.9,1.3,1.6c0.2-0.6,0.7-1.2,1.3-1.6c0.6-0.4,1.3-0.6,2.1-0.6
						C479.9,520.5,480.6,520.6,481.1,521z"/>
				</g>
				<g>
					<path class="st1" d="M495.2,520.6v9.5h-1.6v-1.3c-0.2,0.5-0.7,0.9-1.2,1.1s-1.1,0.4-1.8,0.4s-1.3-0.1-2-0.5
						c-0.6-0.4-1.1-0.7-1.3-1.3c-0.2-0.6-0.5-1.3-0.5-2.2v-5.5h1.6v5.4c0,1,0.2,1.7,0.7,2.2c0.5,0.5,1.1,0.7,2,0.7
						c0.9,0,1.5-0.2,2-0.7c0.5-0.5,0.7-1.2,0.7-2.3v-5.2h1.5V520.6z"/>
				</g>
				<g>
					<path class="st1" d="M506.5,521.5c0.7,0.7,1.1,1.7,1.1,3v5.6H506v-5.4c0-1-0.2-1.7-0.7-2.2c-0.5-0.5-1.1-0.7-2-0.7
						c-0.9,0-1.5,0.2-2,0.7c-0.5,0.5-0.7,1.2-0.7,2.3v5.2H499v-9.5h1.6v1.3c0.4-0.5,0.7-0.9,1.2-1.1c0.5-0.2,1.1-0.4,1.8-0.4
						C504.9,520.5,505.7,520.9,506.5,521.5z"/>
				</g>
				<g>
					<path class="st1" d="M511.3,518.8c-0.2-0.2-0.4-0.5-0.4-0.7c0-0.2,0.1-0.6,0.4-0.7c0.2-0.1,0.5-0.4,0.7-0.4
						c0.2,0,0.5,0.1,0.7,0.4c0.2,0.2,0.2,0.5,0.2,0.7c0,0.2-0.1,0.6-0.2,0.7c-0.2,0.2-0.5,0.4-0.7,0.4
						C511.8,519.2,511.6,519,511.3,518.8z M512.9,520.6v9.5h-1.6v-9.5H512.9z"/>
				</g>
				<g>
					<path class="st1" d="M516.8,522.8c0.4-0.7,1-1.3,1.6-1.7c0.7-0.4,1.5-0.6,2.4-0.6c1.2,0,2.1,0.2,2.9,0.9
						c0.7,0.6,1.2,1.3,1.5,2.3h-1.7c-0.1-0.6-0.5-1-1-1.3c-0.5-0.4-1.1-0.5-1.7-0.5c-0.9,0-1.6,0.4-2.2,1c-0.6,0.6-0.9,1.5-0.9,2.6
						c0,1.1,0.2,2.1,0.9,2.7c0.6,0.6,1.2,1,2.2,1c0.7,0,1.2-0.1,1.7-0.5c0.5-0.4,0.7-0.7,1-1.3h1.7c-0.2,1-0.7,1.7-1.5,2.3
						c-0.7,0.6-1.7,0.9-2.8,0.9c-0.9,0-1.7-0.2-2.4-0.6s-1.2-1-1.6-1.7c-0.4-0.7-0.6-1.6-0.6-2.6
						C516.2,524.4,516.5,523.6,516.8,522.8z"/>
				</g>
				<g>
					<path class="st1" d="M528.5,522.8c0.4-0.7,1-1.3,1.6-1.7c0.7-0.4,1.5-0.6,2.3-0.6c0.9,0,1.6,0.1,2.2,0.5
						c0.6,0.4,1.1,0.9,1.3,1.3v-1.7h1.6v9.5H536v-1.7c-0.4,0.6-0.7,1-1.3,1.3c-0.6,0.4-1.3,0.5-2.2,0.5c-0.9,0-1.6-0.2-2.3-0.6
						s-1.2-1-1.6-1.7c-0.4-0.7-0.6-1.6-0.6-2.6C527.9,524.4,528.2,523.6,528.5,522.8z M535.5,523.6c-0.2-0.5-0.7-1-1.2-1.2
						c-0.5-0.2-1-0.4-1.6-0.4c-0.6,0-1.1,0.1-1.6,0.4s-0.9,0.7-1.1,1.2c-0.2,0.5-0.5,1.1-0.5,1.8c0,0.7,0.1,1.3,0.5,2
						c0.2,0.5,0.7,1,1.1,1.2s1,0.4,1.6,0.4c0.6,0,1.1-0.1,1.6-0.4c0.5-0.2,0.9-0.7,1.2-1.2c0.2-0.5,0.5-1.2,0.5-1.8
						C536,524.9,535.9,524,535.5,523.6z"/>
				</g>
				<g>
					<path class="st1" d="M543.3,522v5.6c0,0.5,0.1,0.7,0.2,1c0.2,0.2,0.5,0.2,1,0.2h1.2v1.3h-1.5c-0.9,0-1.6-0.2-2-0.6
						s-0.6-1.1-0.6-2V522h-1.2v-1.3h1.2v-2.4h1.6v2.4h2.4v1.3H543.3z"/>
				</g>
				<g>
					<path class="st1" d="M548.9,518.8c-0.2-0.2-0.4-0.5-0.4-0.7c0-0.2,0.1-0.6,0.4-0.7c0.2-0.1,0.5-0.4,0.7-0.4
						c0.2,0,0.5,0.1,0.7,0.4c0.2,0.2,0.2,0.5,0.2,0.7c0,0.2-0.1,0.6-0.2,0.7c-0.2,0.2-0.5,0.4-0.7,0.4S549.1,519,548.9,518.8z
						 M550.5,520.6v9.5h-1.6v-9.5H550.5z"/>
				</g>
				<g>
					<path class="st1" d="M556.1,529.7c-0.7-0.4-1.3-1-1.7-1.7c-0.4-0.7-0.6-1.6-0.6-2.6s0.2-1.8,0.6-2.6c0.4-0.7,1-1.3,1.7-1.7
						c0.7-0.4,1.6-0.6,2.4-0.6s1.7,0.2,2.4,0.6s1.3,1,1.7,1.7c0.4,0.7,0.6,1.6,0.6,2.6c0,1-0.2,1.8-0.6,2.6c-0.4,0.7-1,1.3-1.7,1.7
						c-0.7,0.4-1.6,0.6-2.4,0.6C557.6,530.3,556.8,530.1,556.1,529.7z M560.1,528.6c0.5-0.2,0.9-0.6,1.2-1.2c0.2-0.5,0.5-1.2,0.5-2
						c0-0.7-0.1-1.5-0.5-2c-0.2-0.5-0.7-1-1.2-1.2c-0.5-0.2-1-0.4-1.6-0.4s-1.1,0.1-1.6,0.4c-0.5,0.2-0.9,0.6-1.1,1.2
						c-0.2,0.5-0.5,1.2-0.5,2c0,0.7,0.1,1.5,0.4,2s0.6,1,1.1,1.2c0.5,0.2,1,0.4,1.6,0.4C559,528.9,559.6,528.8,560.1,528.6z"/>
				</g>
				<g>
					<path class="st1" d="M574,521.5c0.7,0.7,1.1,1.7,1.1,3v5.6h-1.6v-5.4c0-1-0.2-1.7-0.7-2.2c-0.5-0.5-1.1-0.7-2-0.7
						c-0.9,0-1.5,0.2-2,0.7c-0.5,0.5-0.7,1.2-0.7,2.3v5.2h-1.6v-9.5h1.6v1.3c0.4-0.5,0.7-0.9,1.2-1.1c0.5-0.2,1.1-0.4,1.8-0.4
						C572.5,520.5,573.3,520.9,574,521.5z"/>
				</g>
				<g>
					<path class="st1" d="M594,530.1l-1.6-1.6c-0.6,0.6-1.2,1.1-1.8,1.3c-0.6,0.2-1.5,0.5-2.3,0.5c-0.9,0-1.6-0.1-2.2-0.5
						c-0.6-0.2-1.1-0.7-1.5-1.2c-0.4-0.6-0.5-1.2-0.5-2c0-0.9,0.2-1.6,0.7-2.2c0.5-0.6,1.2-1.1,2.1-1.5c-0.4-0.5-0.6-0.9-0.9-1.2
						c-0.1-0.4-0.2-0.7-0.2-1.2s0.1-1,0.4-1.3c0.2-0.4,0.6-0.7,1.1-1c0.5-0.2,1.1-0.4,1.7-0.4c0.6,0,1.2,0.1,1.6,0.4s0.9,0.6,1.1,1
						c0.2,0.5,0.4,0.9,0.4,1.5h-1.6c0-0.5-0.1-0.9-0.4-1.1c-0.2-0.2-0.6-0.4-1.1-0.4c-0.5,0-0.9,0.1-1.1,0.4c-0.2,0.2-0.4,0.6-0.4,1
						s0.1,0.7,0.2,1c0.2,0.4,0.5,0.7,1,1.2l3.5,3.7l0.4-0.5l1.2-2h1.7l-1.5,2.4c-0.2,0.4-0.4,0.7-0.7,1.1l2.7,2.7H594V530.1z
						 M590,528.7c0.5-0.2,1-0.6,1.5-1.1l-3.5-3.5c-1.5,0.6-2.2,1.5-2.2,2.7c0,0.7,0.2,1.2,0.7,1.7c0.5,0.5,1.1,0.7,2,0.7
						C588.9,529,589.4,528.9,590,528.7z"/>
				</g>
				<g>
					<path class="st1" d="M604.5,522.8c0.4-0.7,1-1.3,1.6-1.7c0.7-0.4,1.5-0.6,2.3-0.6c0.7,0,1.5,0.1,2.1,0.5
						c0.6,0.4,1.1,0.7,1.5,1.3v-5h1.6v12.8H612v-1.8c-0.4,0.6-0.7,1-1.3,1.3c-0.6,0.4-1.3,0.5-2.2,0.5c-0.9,0-1.6-0.2-2.3-0.6
						c-0.7-0.4-1.2-1-1.6-1.7c-0.4-0.7-0.6-1.6-0.6-2.6C603.9,524.4,604.2,523.6,604.5,522.8z M611.6,523.6c-0.2-0.5-0.7-1-1.2-1.2
						c-0.5-0.2-1-0.4-1.6-0.4c-0.6,0-1.1,0.1-1.6,0.4s-0.9,0.7-1.1,1.2c-0.2,0.5-0.5,1.1-0.5,1.8c0,0.7,0.1,1.3,0.5,2
						c0.2,0.5,0.7,1,1.1,1.2s1,0.4,1.6,0.4c0.6,0,1.1-0.1,1.6-0.4c0.5-0.2,0.9-0.7,1.2-1.2c0.2-0.5,0.5-1.2,0.5-1.8
						C612.1,524.9,611.9,524,611.6,523.6z"/>
				</g>
				<g>
					<path class="st1" d="M626,526h-7.6c0,1,0.4,1.7,1,2.2c0.6,0.5,1.3,0.7,2.1,0.7c0.7,0,1.2-0.1,1.7-0.5c0.5-0.4,0.7-0.7,1-1.2
						h1.7c-0.2,0.9-0.7,1.7-1.5,2.2c-0.7,0.6-1.7,0.9-2.8,0.9c-0.9,0-1.7-0.2-2.4-0.6s-1.2-1-1.7-1.7c-0.5-0.7-0.6-1.6-0.6-2.6
						c0-1,0.2-1.8,0.6-2.6c0.4-0.7,1-1.3,1.7-1.7c0.7-0.4,1.5-0.6,2.4-0.6c0.9,0,1.7,0.2,2.4,0.6s1.2,1,1.6,1.6
						c0.4,0.7,0.6,1.5,0.6,2.3C626.1,525.4,626.1,525.6,626,526z M624.1,523.2c-0.2-0.5-0.6-0.7-1.1-1c-0.5-0.2-1-0.4-1.5-0.4
						c-0.9,0-1.5,0.2-2.1,0.7c-0.6,0.5-0.9,1.2-1,2.1h6C624.4,524.2,624.3,523.6,624.1,523.2z"/>
				</g>
				<g>
					<path class="st1" d="M648.6,521c0.6,0.4,1,0.7,1.3,1.3c0.4,0.6,0.5,1.3,0.5,2.2v5.6h-1.6v-5.4c0-1-0.2-1.7-0.7-2.2
						c-0.5-0.5-1.1-0.7-2-0.7c-0.9,0-1.5,0.2-2,0.7c-0.5,0.5-0.7,1.3-0.7,2.3v5.2h-1.6v-5.4c0-1-0.2-1.7-0.7-2.2
						c-0.5-0.5-1.1-0.7-2-0.7s-1.5,0.2-2,0.7c-0.5,0.5-0.7,1.3-0.7,2.3v5.2h-1.6v-9.5h1.6v1.3c0.4-0.5,0.7-0.9,1.2-1.1
						c0.5-0.2,1.1-0.4,1.7-0.4c0.9,0,1.5,0.1,2.1,0.5s1.1,0.9,1.3,1.6c0.2-0.6,0.7-1.2,1.3-1.6c0.6-0.4,1.3-0.6,2.1-0.6
						C647.4,520.5,648,520.6,648.6,521z"/>
				</g>
				<g>
					<path class="st1" d="M654.2,522.8c0.4-0.7,1-1.3,1.6-1.7c0.7-0.4,1.5-0.6,2.3-0.6c0.9,0,1.6,0.1,2.2,0.5
						c0.6,0.4,1.1,0.9,1.3,1.3v-1.7h1.6v9.5h-1.6v-1.7c-0.4,0.6-0.7,1-1.3,1.3c-0.6,0.4-1.3,0.5-2.2,0.5c-0.9,0-1.6-0.2-2.3-0.6
						s-1.2-1-1.6-1.7c-0.4-0.7-0.6-1.6-0.6-2.6C653.7,524.4,653.8,523.6,654.2,522.8z M661.3,523.6c-0.2-0.5-0.7-1-1.2-1.2
						c-0.5-0.2-1-0.4-1.6-0.4c-0.6,0-1.1,0.1-1.6,0.4s-0.9,0.7-1.1,1.2c-0.2,0.5-0.5,1.1-0.5,1.8c0,0.7,0.1,1.3,0.5,2
						c0.2,0.5,0.7,1,1.1,1.2s1,0.4,1.6,0.4c0.6,0,1.1-0.1,1.6-0.4c0.5-0.2,0.9-0.7,1.2-1.2c0.2-0.5,0.5-1.2,0.5-1.8
						C661.7,524.9,661.5,524,661.3,523.6z"/>
				</g>
				<g>
					<path class="st1" d="M669.9,521c0.5-0.2,1.1-0.5,1.8-0.5v1.6h-0.4c-1.7,0-2.7,1-2.7,2.9v5.1h-1.6v-9.5h1.6v1.6
						C668.9,521.7,669.4,521.2,669.9,521z"/>
				</g>
				<g>
					<path class="st1" d="M680,530.1l-3.7-4.1v4.1h-1.6v-12.8h1.6v7.6l3.7-4.1h2.2l-4.5,4.8l4.5,4.8H680V530.1z"/>
				</g>
				<g>
					<path class="st1" d="M693.5,526h-7.6c0,1,0.4,1.7,1,2.2c0.6,0.5,1.3,0.7,2.1,0.7c0.7,0,1.2-0.1,1.7-0.5c0.5-0.4,0.7-0.7,1-1.2
						h1.7c-0.2,0.9-0.7,1.7-1.5,2.2c-0.7,0.6-1.7,0.9-2.8,0.9c-0.9,0-1.7-0.2-2.4-0.6s-1.2-1-1.7-1.7c-0.5-0.7-0.6-1.6-0.6-2.6
						c0-1,0.2-1.8,0.6-2.6c0.4-0.7,1-1.3,1.7-1.7c0.7-0.4,1.5-0.6,2.4-0.6c0.9,0,1.7,0.2,2.4,0.6s1.2,1,1.6,1.6
						c0.4,0.7,0.6,1.5,0.6,2.3C693.6,525.4,693.6,525.6,693.5,526z M691.5,523.2c-0.2-0.5-0.6-0.7-1.1-1c-0.5-0.2-1-0.4-1.5-0.4
						c-0.9,0-1.5,0.2-2.1,0.7s-0.9,1.2-1,2.1h6C691.9,524.2,691.8,523.6,691.5,523.2z"/>
				</g>
				<g>
					<path class="st1" d="M698.7,522v5.6c0,0.5,0.1,0.7,0.2,1c0.2,0.2,0.5,0.2,1,0.2h1.2v1.3h-1.5c-0.9,0-1.6-0.2-2-0.6
						s-0.6-1.1-0.6-2V522h-1.2v-1.3h1.2v-2.4h1.6v2.4h2.4v1.3H698.7z"/>
				</g>
				<g>
					<path class="st1" d="M704.4,518.8c-0.2-0.2-0.4-0.5-0.4-0.7c0-0.2,0.1-0.6,0.4-0.7s0.5-0.4,0.7-0.4c0.2,0,0.5,0.1,0.7,0.4
						c0.2,0.2,0.2,0.5,0.2,0.7c0,0.2-0.1,0.6-0.2,0.7c-0.2,0.2-0.5,0.4-0.7,0.4C704.8,519.2,704.6,519,704.4,518.8z M705.9,520.6
						v9.5h-1.6v-9.5H705.9z"/>
				</g>
				<g>
					<path class="st1" d="M717.3,521.5c0.7,0.7,1.1,1.7,1.1,3v5.6h-1.6v-5.4c0-1-0.2-1.7-0.7-2.2s-1.1-0.7-2-0.7
						c-0.9,0-1.5,0.2-2,0.7c-0.5,0.5-0.7,1.2-0.7,2.3v5.2h-1.6v-9.5h1.6v1.3c0.4-0.5,0.7-0.9,1.2-1.1c0.5-0.2,1.1-0.4,1.8-0.4
						C715.5,520.5,716.5,520.9,717.3,521.5z"/>
				</g>
				<g>
					<path class="st1" d="M728.1,521c0.6,0.4,1.1,0.9,1.3,1.3v-1.7h1.6v9.6c0,0.9-0.2,1.6-0.6,2.3c-0.4,0.7-0.9,1.2-1.6,1.6
						c-0.7,0.4-1.5,0.6-2.4,0.6c-1.2,0-2.3-0.2-3.2-0.9c-0.9-0.6-1.3-1.3-1.5-2.4h1.6c0.1,0.6,0.5,1.1,1.1,1.3
						c0.6,0.2,1.2,0.5,2,0.5c0.9,0,1.6-0.2,2.1-0.9c0.5-0.5,0.9-1.3,0.9-2.3v-1.8c-0.4,0.6-0.7,1-1.3,1.3c-0.6,0.4-1.3,0.6-2.2,0.6
						c-0.9,0-1.6-0.2-2.3-0.6c-0.7-0.4-1.2-1-1.6-1.7c-0.4-0.7-0.6-1.6-0.6-2.6s0.2-1.8,0.6-2.6c0.4-0.7,1-1.3,1.6-1.7
						c0.7-0.4,1.5-0.6,2.3-0.6C726.8,520.5,727.5,520.7,728.1,521z M729.1,523.6c-0.2-0.5-0.7-1-1.2-1.2c-0.5-0.2-1-0.4-1.6-0.4
						c-0.6,0-1.1,0.1-1.6,0.4s-0.9,0.7-1.1,1.2c-0.2,0.5-0.5,1.1-0.5,1.8c0,0.7,0.1,1.3,0.5,2c0.2,0.5,0.7,1,1.1,1.2s1,0.4,1.6,0.4
						c0.6,0,1.1-0.1,1.6-0.4c0.5-0.2,0.9-0.7,1.2-1.2c0.2-0.5,0.5-1.2,0.5-1.8C729.6,524.9,729.3,524,729.1,523.6z"/>
				</g>
			</g>
			<g>
				<g>
					<g>
						<g>
							<path class="st1" d="M281,491.2c0,0,20-17.7,12.1-28.4c-5.4-7.3-6.7-16.7-6.2-25.7c0.6-12.1,5.7-23.3,14.6-31.7
								c8.8-8.4,20.4-12.9,32.5-12.9c12.4,0,23.9,4.9,32.6,13.3l-13.9,14.2c-4.9-4.9-11.6-7.7-18.8-7.7h-0.1
								c-14.3,0-26.4,11.5-27,25.7c-0.2,5.1,1.2,10.2,3.7,14.9c2.9,5.6,2.7,16.5-13.7,29.5c16-8.5,19.2-21.8,24.2-19.4
								c4,2,8.4,3.3,12.9,3.3c11.3,0,21.1-7.1,25.1-17.1h-25.1v-19.9h46.8v9.9c0,25.9-21,46.8-46.8,46.8c-7,0-13.9-1.6-20.3-4.6
								C303,486.7,281,491.2,281,491.2z"/>
						</g>
					</g>
				</g>
				<g class="st2">
					<g>
						<path class="st1" d="M415,437.9v15h-2.2c-7.4,0-11.5,4.1-11.5,10.6v21h-14.5v-45.9h14.5v4.6c3-3.4,7-5.4,11.5-5.4H415z"/>
					</g>
					<g>
						<path class="st1" d="M467.3,438.6v45.9h-14.5v-3.8c-3.3,3-7.7,4.9-12.8,4.9c-12.6,0-22-10.4-22-24s9.4-24,22-24
							c5,0,9.4,1.8,12.8,4.9v-3.8L467.3,438.6L467.3,438.6z M452.8,461.6c0-5.6-4.3-9.9-9.9-9.9s-9.8,4.3-9.8,9.9s4.1,9.9,9.8,9.9
							S452.8,467.2,452.8,461.6z"/>
					</g>
					<g>
						<path class="st1" d="M526.3,461.6c0,13.7-9.4,24-22,24c-5,0-9.4-1.8-12.8-4.9v20.9h-14.5v-62.9h14.5v3.8
							c3.3-3,7.7-4.9,12.8-4.9C516.9,437.5,526.3,447.9,526.3,461.6z M511.3,461.6c0-5.6-4.1-9.9-9.8-9.9s-9.9,4.3-9.9,9.9
							s4.3,9.9,9.9,9.9S511.3,467.2,511.3,461.6z"/>
					</g>
					<g>
						<path class="st1" d="M578.7,454.7v29.8h-14.5v-24.9c0-4.8-2.9-7.9-7.6-7.9c-5,0-8.4,3.3-8.4,8.1v24.8h-14.5v-64.8h14.5v23.2
							c3.5-3.7,8.1-5.4,13.2-5.4C571.8,437.5,578.7,444.4,578.7,454.7z"/>
					</g>
					<g>
						<path class="st1" d="M586,424.9c0-5.1,3.9-8.9,8.9-8.9c5.1,0,8.9,3.8,8.9,8.9c0,5-3.8,8.8-8.9,8.8
							C589.9,433.6,586,429.9,586,424.9z M587.6,438.6h14.5v45.9h-14.5V438.6z"/>
					</g>
					<g>
						<path class="st1" d="M653,470v14.5h-40.3v-62.1h15.5v47.5H653V470z"/>
					</g>
					<g>
						<path class="st1" d="M704.6,466h-32.7c1.6,4.4,5.4,7.1,10.5,7.1c4.6,0,8.4-2.3,10.5-4.5l9.6,8.4c-4.9,5.4-12.2,8.7-20.5,8.7
							c-14.6,0-25.6-10.5-25.6-24.3c0-13.5,10.5-23.8,24.5-23.8c13.9,0,24.3,10.2,24.3,24.3C704.9,463,704.8,464.8,704.6,466z
							 M671.6,456.9h17.7c-1.2-4.3-4.6-7.1-8.8-7.1C676.4,450,673,452.7,671.6,456.9z"/>
					</g>
					<g>
						<path class="st1" d="M758.7,438.6v45.9h-14.5v-3.8c-3.3,3-7.7,4.9-12.8,4.9c-12.6,0-22-10.4-22-24s9.4-24,22-24
							c5,0,9.4,1.8,12.8,4.9v-3.8L758.7,438.6L758.7,438.6z M744.1,461.6c0-5.6-4.3-9.9-9.9-9.9c-5.6,0-9.8,4.3-9.8,9.9
							s4.1,9.9,9.8,9.9C739.8,471.5,744.1,467.2,744.1,461.6z"/>
					</g>
					<g>
						<path class="st1" d="M786.7,437.1v1.6h10.2v13.3h-10.2v32.6H772v-32.6h-6.5v-13.3h6.5v-2.6c0-10.1,5.1-17.3,17-17.3
							c3.7,0,6.3,0.6,9,2.1v12.8c-1.7-1-3.7-1.6-5.6-1.6C788.6,431.9,786.7,433.9,786.7,437.1z"/>
					</g>
				</g>
			</g>
			<g>
				<g>
					<g>
						<path class="st0" d="M467.4,614.7L467.4,614.7c-9.4,0-17.1-7.7-17.1-17.1l0,0c0-9.4,7.7-17.1,17.1-17.1l0,0
							c9.4,0,17.1,7.7,17.1,17.1l0,0C484.5,607,476.8,614.7,467.4,614.7z"/>
					</g>
				</g>
				<g>
					<g>
						<path class="st0" d="M541,614.7L541,614.7c-9.4,0-17.1-7.7-17.1-17.1l0,0c0-9.4,7.7-17.1,17.1-17.1l0,0
							c9.4,0,17.1,7.7,17.1,17.1l0,0C558.1,607,550.5,614.7,541,614.7z"/>
					</g>
				</g>
				<g>
					<g>
						<path class="st0" d="M612.6,614.7L612.6,614.7c-9.4,0-17.1-7.7-17.1-17.1l0,0c0-9.4,7.7-17.1,17.1-17.1l0,0
							c9.4,0,17.1,7.7,17.1,17.1l0,0C629.7,607,622.1,614.7,612.6,614.7z"/>
					</g>
				</g>
				<g>
					<g>
						<g>
							<path class="st3" d="M620.4,592.8v3l0,0c-0.1,0-0.2,0-0.5,0c-1.6,0-3.2-0.9-4-2.2v7.4c0,3-2.4,5.5-5.5,5.5
								c-3,0-5.5-2.4-5.5-5.5c0-3,2.4-5.5,5.5-5.5h0.1h0.1v2.7c-0.1,0-0.2,0-0.4,0c-1.6,0-2.8,1.2-2.8,2.8c0,1.6,1.2,2.8,2.8,2.8
								c1.6,0,2.9-1.2,2.9-2.8v-12.7h2.6C616.1,590.8,618.1,592.6,620.4,592.8z"/>
						</g>
					</g>
				</g>
				<g>
					<g>
						<g>
							<path class="st3" d="M550.1,592c-0.6,0.2-1.3,0.5-2.2,0.6c0.7-0.5,1.3-1.2,1.6-2.1c-0.7,0.5-1.5,0.7-2.3,0.9
								c-0.7-0.7-1.6-1.2-2.7-1.2c-2.1,0-3.8,1.7-3.8,3.8c0,0.2,0,0.6,0.1,0.9c-3-0.1-5.9-1.7-7.7-3.9c-0.4,0.6-0.5,1.2-0.5,1.8
								c0,1.3,0.6,2.4,1.7,3c-0.6,0-1.2-0.1-1.7-0.5l0,0c0,1.8,1.2,3.3,3,3.7c-0.4,0.1-0.6,0.1-1,0.1c-0.2,0-0.5,0-0.7,0
								c0.5,1.5,1.8,2.6,3.5,2.6c-1.2,1-2.9,1.6-4.6,1.6c-0.2,0-0.6,0-0.9,0c1.6,1.1,3.7,1.7,5.7,1.7c6.8,0,10.6-5.7,10.6-10.6
								c0-0.1,0-0.4,0-0.5C549,593.3,549.6,592.7,550.1,592L550.1,592z"/>
						</g>
					</g>
				</g>
				<g>
					<g>
						<path class="st3" d="M464.4,597.6c0-1.7,1.3-3,3-3s3,1.3,3,3c0,1.7-1.3,3-3,3C465.7,600.7,464.4,599.3,464.4,597.6
							 M462.8,597.6c0,2.6,2.1,4.6,4.6,4.6s4.6-2.1,4.6-4.6c0-2.6-2.1-4.6-4.6-4.6S462.8,595,462.8,597.6 M471.2,592.7
							c0,0.6,0.5,1.1,1.1,1.1c0.6,0,1.1-0.5,1.1-1.1s-0.5-1.1-1.1-1.1C471.7,591.6,471.2,592.1,471.2,592.7 M463.8,604.9
							c-0.9,0-1.3-0.2-1.7-0.4c-0.4-0.1-0.7-0.4-1.1-0.7c-0.4-0.4-0.5-0.6-0.7-1.1c-0.1-0.4-0.2-0.9-0.4-1.7c0-1,0-1.2,0-3.7
							s0-2.7,0-3.7c0-0.9,0.2-1.3,0.4-1.7c0.1-0.5,0.4-0.7,0.7-1.1s0.6-0.5,1.1-0.7c0.4-0.1,0.9-0.2,1.7-0.4c1,0,1.2,0,3.7,0
							s2.7,0,3.7,0c0.9,0,1.3,0.1,1.7,0.4c0.4,0.1,0.7,0.4,1.1,0.7c0.4,0.4,0.5,0.6,0.7,1.1c0.1,0.4,0.2,0.9,0.4,1.7
							c0,1,0,1.2,0,3.7s0,2.7,0,3.7c0,0.9-0.2,1.3-0.4,1.7c-0.1,0.4-0.4,0.7-0.7,1.1s-0.6,0.5-1.1,0.7c-0.4,0.1-0.9,0.2-1.7,0.4
							c-1,0-1.2,0-3.7,0C465,605,464.7,605,463.8,604.9 M463.6,588.6c-1,0-1.6,0.2-2.2,0.5c-0.6,0.2-1.1,0.6-1.6,1.1
							c-0.5,0.5-0.9,1-1.1,1.6c-0.2,0.6-0.4,1.2-0.4,2.2c0,1,0,1.2,0,3.8c0,2.4,0,2.8,0,3.8c0,1,0.2,1.6,0.4,2.2
							c0.2,0.6,0.5,1.1,1.1,1.6c0.5,0.5,1,0.9,1.6,1.1c0.6,0.2,1.2,0.4,2.2,0.4c1,0,1.2,0,3.8,0s2.8,0,3.8,0s1.6-0.2,2.2-0.4
							c0.6-0.2,1.1-0.6,1.6-1.1c0.5-0.5,0.9-1,1.1-1.6c0.2-0.6,0.4-1.2,0.4-2.2c0-1,0-1.2,0-3.8c0-2.4,0-2.8,0-3.8
							c0-1-0.2-1.6-0.4-2.2c-0.2-0.6-0.6-1.1-1.1-1.6s-1-0.9-1.6-1.1s-1.2-0.4-2.2-0.5c-1-0.1-1.2,0-3.8,0
							C465,588.5,464.6,588.5,463.6,588.6"/>
					</g>
				</g>
			</g>
		</g>
	</g>
	<g>
		<g>
			<path class="st3" d="M266,701.6l-24.8,58c-2.9,6.9,2.1,14.5,9.6,14.5h574.8c7.7,0,12.7-8.1,9.3-15l-28.6-58
				c-1.8-3.5-5.4-5.8-9.3-5.8H275.6C271.4,695.3,267.7,697.8,266,701.6z"/>
		</g>
	</g>
</g>
<g>
	<g>
		<path class="st6" d="M452.7,1075.6"/>
	</g>
</g>
<g>
	<g>
		<path class="st6" d="M-66.9,1075.6"/>
	</g>
</g>
</svg>
