<?xml version="1.0" encoding="utf-8"?>
<!-- Generator: Adobe Illustrator 27.8.1, SVG Export Plug-In . SVG Version: 6.00 Build 0)  -->
<svg version="1.1" id="Calque_1" xmlns="http://www.w3.org/2000/svg" xmlns:xlink="http://www.w3.org/1999/xlink" x="0px" y="0px"
	 viewBox="0 0 1920 1080" style="enable-background:new 0 0 1920 1080;" xml:space="preserve">
<style type="text/css">
	.st0{fill:#E9E8E3;}
	.st1{fill:#018EBB;}
	.st2{font-family:'Lufga-Bold';}
	.st3{font-size:175.4797px;}
	.st4{fill:#FAF9F2;}
	.st5{fill:#000018;}
	.st6{opacity:0.07;fill:#000018;enable-background:new    ;}
	.st7{font-family:'Poppins-Regular';}
	.st8{font-size:14.1728px;}
	.st9{letter-spacing:1;}
	.st10{font-family:'Lufga-ExtraBold';}
	.st11{font-size:73.7658px;}
	.st12{fill:none;stroke:#000018;stroke-width:6;stroke-linecap:round;stroke-miterlimit:10;}
</style>
<g>
	<path class="st0" d="M405.15,777.11C485,905.32,687.89,895.68,712.71,894.5c154.94-7.36,172.03-92.53,362.35-123.65
		c158.21-25.87,199.44,24.3,288-25.04c87.86-48.96,164.4-163.6,145.57-281.74c-24.14-151.43-195.12-246.87-319.3-231.65
		c-133.82,16.4-142.59,152.64-288.78,180.78c-154.08,29.66-221.82-106.77-340.43-68.09C423.77,389.56,316.06,634.07,405.15,777.11z"
		/>
	<g>
		<circle class="st1" cx="361.93" cy="346.85" r="8.02"/>
		<circle class="st1" cx="361.93" cy="385.48" r="8.02"/>
		<circle class="st1" cx="361.93" cy="269.6" r="8.02"/>
		<circle class="st1" cx="361.93" cy="308.23" r="8.02"/>
		<circle class="st1" cx="361.93" cy="230.97" r="8.02"/>
		<circle class="st1" cx="323.31" cy="346.85" r="8.02"/>
		<circle class="st1" cx="323.31" cy="385.48" r="8.02"/>
		<circle class="st1" cx="323.31" cy="269.6" r="8.02"/>
		<circle class="st1" cx="323.31" cy="308.23" r="8.02"/>
		<circle class="st1" cx="323.31" cy="230.97" r="8.02"/>
		<circle class="st1" cx="284.68" cy="346.85" r="8.02"/>
		<circle class="st1" cx="284.68" cy="385.48" r="8.02"/>
		<circle class="st1" cx="284.68" cy="269.6" r="8.02"/>
		<circle class="st1" cx="284.68" cy="308.23" r="8.02"/>
		<circle class="st1" cx="284.68" cy="230.97" r="8.02"/>
		<circle class="st1" cx="361.93" cy="192.35" r="8.02"/>
		<circle class="st1" cx="323.31" cy="192.35" r="8.02"/>
		<circle class="st1" cx="284.68" cy="192.35" r="8.02"/>
	</g>
	<g>
		<circle class="st0" cx="1463.65" cy="328.85" r="10.16"/>
		<circle class="st0" cx="1414.71" cy="328.85" r="10.16"/>
		<circle class="st0" cx="1561.53" cy="328.85" r="10.16"/>
		<circle class="st0" cx="1512.59" cy="328.85" r="10.16"/>
		<circle class="st0" cx="1610.47" cy="328.85" r="10.16"/>
		<circle class="st0" cx="1463.65" cy="279.91" r="10.16"/>
		<circle class="st0" cx="1414.71" cy="279.91" r="10.16"/>
		<circle class="st0" cx="1561.53" cy="279.91" r="10.16"/>
		<circle class="st0" cx="1512.59" cy="279.91" r="10.16"/>
		<circle class="st0" cx="1610.47" cy="279.91" r="10.16"/>
		<circle class="st0" cx="1463.65" cy="230.97" r="10.16"/>
		<circle class="st0" cx="1414.71" cy="230.97" r="10.16"/>
		<circle class="st0" cx="1561.53" cy="230.97" r="10.16"/>
		<circle class="st0" cx="1512.59" cy="230.97" r="10.16"/>
		<circle class="st0" cx="1610.47" cy="230.97" r="10.16"/>
		<circle class="st0" cx="1659.41" cy="328.85" r="10.16"/>
		<circle class="st0" cx="1659.41" cy="279.91" r="10.16"/>
		<circle class="st0" cx="1659.41" cy="230.97" r="10.16"/>
	</g>
	<g>
		<text transform="matrix(1 0 0 1 962.4037 384.1338)"><tspan x="0" y="0" class="st2 st3">Coming </tspan><tspan x="0" y="146" class="st2 st3">soon</tspan></text>
		<rect x="965.74" y="546.82" class="st1" width="391.13" height="10.95"/>
	</g>
	<g>
		<g>
			<g>
				<path class="st4" d="M331.87,589.86V261.58c0-5.12,4.16-9.28,9.28-9.28h546.92c5.12,0,9.28,4.16,9.28,9.28v328.28H331.87z"/>
				<path class="st5" d="M888.07,260.87c0.39,0,0.71,0.33,0.71,0.71v319.71H340.44V261.58c0-0.39,0.33-0.71,0.71-0.71H888.07
					 M888.07,243.73H341.15c-9.86,0-17.85,7.99-17.85,17.85v336.85h582.61V261.58C905.92,251.72,897.93,243.73,888.07,243.73
					L888.07,243.73z"/>
			</g>
			<g>
				<path class="st5" d="M905.92,598.43H323.31l-71.08,145.56c-5.7,11.67,2.8,25.3,15.79,25.3H961.2c13,0,21.51-13.62,15.79-25.3
					L905.92,598.43z"/>
			</g>
			<g>
				<path class="st4" d="M679.86,751.43H549.37c-3.68,0-6.55-3.2-6.15-6.86l4.23-38.58c0.34-3.14,2.99-5.51,6.15-5.51h122.01
					c3.16,0,5.8,2.37,6.15,5.51l4.24,38.58C686.41,748.23,683.54,751.43,679.86,751.43z"/>
			</g>
			<path class="st6" d="M355.77,243.73l550.15,354.69V294.87c0-28.24-22.89-51.13-51.13-51.13H355.77z"/>
		</g>
		<g>
			<text transform="matrix(1 0 0 1 428.7804 456.5007)" class="st1 st7 st8 st9">agence de communication &amp; de marketing</text>
			<g>
				<g>
					<path class="st1" d="M402.28,424.63c0,0,16.41-14.45,9.86-23.31c-4.41-5.96-5.48-13.71-5.14-21.06
						c0.45-9.91,4.7-19.15,11.95-26.04c7.25-6.88,16.7-10.64,26.62-10.59c10.18,0.05,19.64,4.02,26.67,10.94l-11.4,11.65
						c-4.05-3.98-9.5-6.27-15.36-6.3c-0.04,0-0.08,0-0.11,0c-11.66,0-21.56,9.43-22.1,21.08c-0.19,4.24,0.98,8.38,2.98,12.18
						c2.43,4.61,2.16,13.48-11.22,24.16c13.07-7.01,15.74-17.85,19.77-15.87c3.29,1.62,6.87,2.68,10.56,2.68
						c9.32,0,17.31-5.8,20.56-13.97h-20.56V373.9h38.41v8.15c0,21.18-17.23,38.41-38.41,38.41c-5.74,0-11.43-1.29-16.57-3.75
						C420.29,420.9,402.28,424.63,402.28,424.63z"/>
				</g>
				<text transform="matrix(1 0 0 1 484.9376 419.1008)" class="st1 st10 st11">raphiLeaf</text>
			</g>
			<g>
				<path class="st0" d="M555.09,525.76L555.09,525.76c-7.72,0-13.97-6.26-13.97-13.97v0c0-7.72,6.26-13.97,13.97-13.97h0
					c7.72,0,13.97,6.26,13.97,13.97v0C569.06,519.5,562.81,525.76,555.09,525.76z"/>
				<path class="st0" d="M615.44,525.76L615.44,525.76c-7.72,0-13.97-6.26-13.97-13.97v0c0-7.72,6.26-13.97,13.97-13.97l0,0
					c7.72,0,13.97,6.26,13.97,13.97v0C629.42,519.5,623.16,525.76,615.44,525.76z"/>
				<path class="st0" d="M674.14,525.76L674.14,525.76c-7.72,0-13.97-6.26-13.97-13.97v0c0-7.72,6.26-13.97,13.97-13.97h0
					c7.72,0,13.97,6.26,13.97,13.97v0C688.11,519.5,681.86,525.76,674.14,525.76z"/>
				<g>
					<path class="st4" d="M680.52,507.88v2.48h0c-0.12,0.01-0.24,0.02-0.37,0.02c-1.34,0-2.59-0.68-3.33-1.8v6.13
						c0,2.5-2.03,4.53-4.53,4.53c-2.5,0-4.53-2.03-4.53-4.53c0-2.5,2.03-4.53,4.53-4.53c0.05,0,0.09,0,0.14,0.01
						c0.05,0,0.09,0.01,0.14,0.01v2.23c-0.09-0.01-0.18-0.03-0.28-0.03c-1.28,0-2.31,1.03-2.31,2.31c0,1.28,1.03,2.31,2.31,2.31
						c1.28,0,2.4-1.01,2.4-2.28l0.02-10.41h2.14C677.05,506.25,678.6,507.74,680.52,507.88z"/>
				</g>
				<g>
					<path class="st4" d="M622.9,507.16c-0.55,0.24-1.14,0.41-1.76,0.48c0.63-0.38,1.12-0.98,1.34-1.69
						c-0.59,0.35-1.25,0.61-1.94,0.74c-0.56-0.59-1.35-0.97-2.23-0.97c-1.69,0-3.06,1.37-3.06,3.06c0,0.23,0.03,0.47,0.08,0.7
						c-2.54-0.13-4.8-1.35-6.3-3.2c-0.26,0.45-0.41,0.98-0.41,1.54c0,1.06,0.54,2,1.36,2.55c-0.49-0.02-0.96-0.15-1.39-0.38v0.04
						c0,1.48,1.05,2.72,2.45,3c-0.26,0.07-0.53,0.11-0.81,0.11c-0.19,0-0.39-0.02-0.58-0.05c0.39,1.21,1.52,2.1,2.86,2.12
						c-1.05,0.82-2.37,1.31-3.8,1.31c-0.25,0-0.49-0.01-0.73-0.04c1.35,0.87,2.96,1.37,4.69,1.37c5.63,0,8.7-4.66,8.7-8.7
						c0-0.13,0-0.26-0.01-0.4C621.97,508.31,622.49,507.78,622.9,507.16L622.9,507.16z"/>
				</g>
				<path class="st4" d="M552.6,511.79c0-1.37,1.11-2.48,2.48-2.48c1.37,0,2.48,1.11,2.48,2.48c0,1.37-1.11,2.48-2.48,2.48
					C553.72,514.27,552.6,513.16,552.6,511.79 M551.26,511.79c0,2.11,1.71,3.83,3.83,3.83c2.11,0,3.83-1.71,3.83-3.83
					c0-2.11-1.71-3.83-3.83-3.83C552.97,507.96,551.26,509.67,551.26,511.79 M558.17,507.81c0,0.49,0.4,0.89,0.89,0.89
					c0.49,0,0.89-0.4,0.89-0.89c0-0.49-0.4-0.89-0.89-0.89S558.17,507.31,558.17,507.81 M552.08,517.85
					c-0.73-0.03-1.12-0.15-1.38-0.26c-0.35-0.14-0.6-0.3-0.86-0.56c-0.26-0.26-0.42-0.51-0.56-0.86c-0.1-0.26-0.22-0.66-0.26-1.38
					c-0.04-0.79-0.04-1.02-0.04-3.01c0-1.99,0.01-2.23,0.04-3.01c0.03-0.73,0.15-1.12,0.26-1.38c0.14-0.35,0.3-0.6,0.56-0.86
					c0.26-0.26,0.51-0.42,0.86-0.56c0.26-0.1,0.66-0.22,1.38-0.26c0.79-0.04,1.02-0.04,3.01-0.04c1.99,0,2.23,0.01,3.01,0.04
					c0.73,0.03,1.12,0.15,1.38,0.26c0.35,0.13,0.6,0.3,0.86,0.56c0.26,0.26,0.42,0.51,0.56,0.86c0.1,0.26,0.22,0.66,0.26,1.38
					c0.04,0.79,0.04,1.02,0.04,3.01c0,1.99-0.01,2.23-0.04,3.01c-0.03,0.73-0.15,1.12-0.26,1.38c-0.14,0.35-0.3,0.6-0.56,0.86
					s-0.51,0.42-0.86,0.56c-0.26,0.1-0.66,0.22-1.38,0.26c-0.79,0.04-1.02,0.04-3.01,0.04C553.1,517.9,552.86,517.89,552.08,517.85
					 M552.02,504.38c-0.79,0.04-1.34,0.16-1.81,0.35c-0.49,0.19-0.91,0.45-1.32,0.86c-0.41,0.41-0.67,0.83-0.86,1.32
					c-0.18,0.47-0.31,1.02-0.35,1.81c-0.04,0.79-0.05,1.05-0.05,3.07c0,2.02,0.01,2.28,0.05,3.07c0.04,0.79,0.16,1.34,0.35,1.81
					c0.19,0.49,0.44,0.91,0.86,1.32c0.41,0.41,0.83,0.67,1.32,0.86c0.47,0.18,1.02,0.31,1.81,0.35c0.8,0.04,1.05,0.05,3.07,0.05
					c2.02,0,2.28-0.01,3.07-0.05c0.79-0.04,1.34-0.16,1.81-0.35c0.49-0.19,0.91-0.45,1.32-0.86c0.41-0.41,0.67-0.83,0.86-1.32
					c0.18-0.47,0.31-1.02,0.35-1.81c0.04-0.8,0.04-1.05,0.04-3.07c0-2.02-0.01-2.28-0.04-3.07c-0.04-0.79-0.16-1.34-0.35-1.81
					c-0.19-0.49-0.45-0.91-0.86-1.32c-0.41-0.41-0.83-0.67-1.32-0.86c-0.47-0.18-1.02-0.31-1.81-0.35
					c-0.79-0.04-1.05-0.05-3.07-0.05C553.06,504.33,552.81,504.34,552.02,504.38"/>
			</g>
		</g>
	</g>
	<path class="st0" d="M859.45,895.67c61.87-48.59,119.02-72.24,157.3-84.52c39.9-12.8,134.37-43.09,160.83-7.04
		c11.93,16.25,9.06,44.67-4.7,61.04c-22.72,27.04-69.86,14.92-130.3,11.74C999.75,874.63,937.34,876.19,859.45,895.67z"/>
</g>
<path class="st4" d="M340.65,617.05l-24.77,57.99c-2.93,6.86,2.1,14.48,9.56,14.48h574.84c7.7,0,12.73-8.09,9.32-14.99L881,616.54
	c-1.75-3.55-5.37-5.8-9.32-5.8H350.21C346.05,610.74,342.28,613.22,340.65,617.05z"/>
<path class="st12" d="M872.65,655.61"/>
<path class="st12" d="M353.07,655.61"/>
</svg>
