<?xml version="1.0" encoding="utf-8"?>
<!-- Generator: Adobe Illustrator 27.8.1, SVG Export Plug-In . SVG Version: 6.00 Build 0)  -->
<svg version="1.1" xmlns="http://www.w3.org/2000/svg" xmlns:xlink="http://www.w3.org/1999/xlink" x="0px" y="0px"
	 viewBox="0 0 1000 1000" style="enable-background:new 0 0 1000 1000;" xml:space="preserve">
<style type="text/css">
	.st0{fill:#FAF9F2;}
	.st1{opacity:0.07;}
	.st2{fill:#000018;}
	.st3{fill:#018EBB;}
	.st4{fill:none;stroke:#FAF9F2;stroke-width:5.2825;stroke-linecap:round;stroke-miterlimit:10;}
	.st5{fill:none;stroke:#FAF9F2;stroke-width:5.1219;stroke-linecap:round;stroke-miterlimit:10;}
	.st6{fill:#7289D9;}
	.st7{fill:#FFFFFF;}
	.st8{fill:#3C5A9A;}
	.st9{fill:url(#SVGID_1_);}
	.st10{fill:url(#SVGID_00000105416625295215486450000004980356329011425707_);}
	.st11{fill-rule:evenodd;clip-rule:evenodd;fill:#65459B;}
	.st12{fill:#65459B;}
	.st13{fill:#1DA1F2;}
	.st14{fill:#E8E0E0;}
	.st15{fill:#CD201F;}
	.st16{fill:#25F4EE;}
	.st17{fill:#FE2C55;}
	.st18{fill:#1D1D1B;}
	.st19{fill:#E0C4CC;}
	.st20{fill:#B9A3A9;}
</style>
<g id="Calque_1">
	<g>
		<g>
			<g>
				<path class="st0" d="M531.63,989.09c-55.15,0-100.03-44.87-100.03-100.03V150.69c0-55.15,44.87-100.03,100.03-100.03h316.45
					c55.15,0,100.03,44.87,100.03,100.03v738.37c0,55.15-44.87,100.03-100.03,100.03H531.63z"/>
			</g>
		</g>
		<g class="st1">
			<path class="st2" d="M789.18,40.27l-295.2,937.91c-40.87,0-74.01-43.03-74.01-96.12V174.87c0-73.81,46.07-133.65,102.91-133.65
				h19.18L789.18,40.27z"/>
		</g>
		<g>
			<path class="st2" d="M960.24,270.91h-1.23V150.69c0-61.27-49.67-110.94-110.94-110.94H531.63
				c-61.27,0-110.94,49.67-110.94,110.94v120.22h-1.23c-9.93,0-17.98,8.05-17.98,17.98v71.7c0,9.93,8.05,17.98,17.98,17.98h1.23
				v33.64h-1.23c-9.93,0-17.98,8.05-17.98,17.98v71.7c0,9.93,8.05,17.98,17.98,17.98h1.23v369.19
				c0,61.27,49.67,110.94,110.94,110.94h316.45c61.27,0,110.94-49.67,110.94-110.94V407.52h1.23c9.93,0,17.98-8.05,17.98-17.98
				V288.89C978.22,278.96,970.17,270.91,960.24,270.91z M937.18,889.06c0,49.22-39.9,89.11-89.11,89.11H531.63
				c-49.22,0-89.11-39.9-89.11-89.11V150.69c0-49.22,39.9-89.11,89.11-89.11h62.05c2.47,0,4.48,2,4.48,4.48v5.61
				c0,9.93,8.05,17.98,17.98,17.98h147.43c9.93,0,17.98-8.05,17.98-17.98v-5.61c0-2.47,2-4.48,4.48-4.48h62.05
				c49.22,0,89.11,39.9,89.11,89.11V889.06z"/>
		</g>
	</g>
	<g>
		<g>
			<path class="st3" d="M606.37,683.27L606.37,683.27c16.43,4.83,34.22-2,43.93-16.87l82.13-125.76l-78.78-23.17l-68.2,104.43
				C570.45,644.87,581,675.81,606.37,683.27z"/>
		</g>
		<g>
			<polygon class="st2" points="344.29,526.28 729.36,551.09 773.13,402.29 435.95,214.66 			"/>
		</g>
		<g>
			<path class="st3" d="M729.36,551.09l46.18,13.58c10.21,3,20.92-2.84,23.93-13.05l32.89-111.82c3-10.21-2.84-20.92-13.05-23.93
				l-46.18-13.58L729.36,551.09z"/>
		</g>
		<g>
			<g>
				<path class="st3" d="M356.89,521.22c-3.66,0-7.25-0.51-10.66-1.52c-18.81-5.53-32.46-25.78-38.43-57.01
					c-6.28-32.83-3.16-73.26,8.78-113.85c10.77-36.61,27.9-69.91,48.23-93.78c19.41-22.78,40.2-35.33,58.54-35.33
					c3.66,0,7.25,0.51,10.66,1.52c18.81,5.53,32.46,25.78,38.43,57.01c6.28,32.83,3.16,73.26-8.78,113.85
					c-10.77,36.61-27.9,69.92-48.23,93.78C396.02,508.67,375.23,521.22,356.89,521.22C356.89,521.22,356.89,521.22,356.89,521.22z"
					/>
			</g>
			<g>
				<path class="st2" d="M423.35,226.59c3,0,5.94,0.42,8.73,1.24c15.99,4.7,28.24,23.55,33.63,51.71
					c6.08,31.78,3.01,71.07-8.62,110.63c-10.5,35.7-27.15,68.12-46.87,91.27c-17.83,20.92-37.26,32.92-53.32,32.92
					c-3,0-5.94-0.42-8.73-1.24c-15.99-4.7-28.24-23.55-33.63-51.71c-6.08-31.78-3.01-71.07,8.62-110.63
					c10.5-35.7,27.15-68.12,46.87-91.27C387.86,238.59,407.29,226.59,423.35,226.59 M423.35,212.87
					c-41.85,0-90.39,55.97-113.35,134.04c-25.31,86.05-9.95,166.36,34.3,179.38c4.11,1.21,8.32,1.79,12.6,1.79
					c41.85,0,90.39-55.97,113.35-134.04c25.31-86.05,9.95-166.36-34.3-179.38C431.84,213.45,427.63,212.87,423.35,212.87
					L423.35,212.87z"/>
			</g>
		</g>
		<g>
			<path class="st0" d="M423.53,330.87l47.65,14.02c-1.88,15.09-5.07,30.78-9.72,46.58c-4.65,15.8-10.45,30.72-17.04,44.42
				l-47.65-14.02c-22.55-6.63-34.83-32.38-27.44-57.51C376.72,339.23,400.98,324.23,423.53,330.87z"/>
		</g>
		<g>
			<path class="st2" d="M423.35,226.59c3,0,5.94,0.42,8.73,1.24c15.99,4.7,28.24,23.55,33.63,51.71
				c6.08,31.78,3.01,71.07-8.62,110.63c-10.5,35.7-27.15,68.12-46.87,91.27c-17.83,20.92-37.26,32.92-53.32,32.92
				c-3,0-5.94-0.42-8.73-1.24c-15.99-4.7-28.24-23.55-33.63-51.71c-6.08-31.78-3.01-71.07,8.62-110.63
				c10.5-35.7,27.15-68.12,46.87-91.27C387.86,238.59,407.29,226.59,423.35,226.59 M423.35,212.87
				c-41.85,0-90.39,55.97-113.35,134.04c-25.31,86.05-9.95,166.36,34.3,179.38c4.11,1.21,8.32,1.79,12.6,1.79
				c41.85,0,90.39-55.97,113.35-134.04c25.31-86.05,9.95-166.36-34.3-179.38C431.84,213.45,427.63,212.87,423.35,212.87
				L423.35,212.87z"/>
		</g>
	</g>
	<g>
		<g>
			<path class="st0" d="M103.28,879.36V658.63c0-3.44,2.8-6.24,6.24-6.24h367.74c3.44,0,6.24,2.8,6.24,6.24v220.73H103.28z"/>
		</g>
		<g>
			<path class="st2" d="M477.26,658.15c0.26,0,0.48,0.22,0.48,0.48V873.6h-368.7V658.63c0-0.26,0.22-0.48,0.48-0.48H477.26
				 M477.26,646.63H109.52c-6.63,0-12,5.37-12,12v226.49h391.74V658.63C489.26,652,483.89,646.63,477.26,646.63L477.26,646.63z"/>
		</g>
	</g>
	<g>
		<path class="st2" d="M489.26,885.12H97.52l-47.79,97.87c-3.83,7.85,1.88,17.01,10.62,17.01h466.08c8.74,0,14.46-9.16,10.62-17.01
			L489.26,885.12z"/>
	</g>
	<g>
		<polygon class="st0" points="348.91,983.44 237.88,983.44 242.18,944.23 344.6,944.23 		"/>
	</g>
	<g>
	</g>
	<g>
	</g>
	<g>
	</g>
	<g>
	</g>
	<g class="st1">
		<path class="st2" d="M119.35,646.63l369.91,238.49V681.01c0-18.99-15.39-34.38-34.38-34.38H119.35z"/>
	</g>
</g>
<g id="Calque_2">
	<path class="st3" d="M999.95,158.6L999.95,158.6c0-40.93-16.83-77.92-43.94-104.45l0.06-0.06
		c-83.4-85.97-239.23-28.96-247.74,90.24c-11.74,96.19,71.53,90.56-18.49,176.32c0.07-0.01,68.54-14.21,100.87-30.17
		C884.16,337.86,1002.73,263.31,999.95,158.6z"/>
	<g>
		<line class="st4" x1="773.36" y1="83.85" x2="933.88" y2="83.85"/>
		<line class="st4" x1="880.03" y1="115.55" x2="969.4" y2="115.55"/>
		<line class="st4" x1="737.85" y1="115.55" x2="862.81" y2="115.55"/>
		<line class="st4" x1="784.95" y1="147.24" x2="978.56" y2="147.24"/>
		<line class="st4" x1="728.68" y1="147.24" x2="773.36" y2="147.24"/>
		<line class="st4" x1="764.85" y1="178.94" x2="942.39" y2="178.94"/>
		<line class="st4" x1="892.09" y1="210.63" x2="969.4" y2="210.63"/>
		<line class="st5" x1="737.85" y1="211.59" x2="870.03" y2="211.59"/>
		<line class="st5" x1="757.82" y1="242.32" x2="942.39" y2="242.32"/>
	</g>
	<g>
		<circle class="st6" cx="431.6" cy="72.58" r="72.56"/>
		<g>
			<path class="st7" d="M454,31.46c16.03,11.94,27.39,27.74,32.45,48.7c0.02,0.09,0,0.18-0.05,0.26c-6,8.69-12.55,14.98-19.41,20.02
				c-0.11,0.08-0.26,0.08-0.37,0c-2.63-1.86-5.15-3.9-7.51-6.15c-0.14-0.13-0.13-0.35,0.01-0.47c2.23-1.85,4.26-3.85,6.13-6.04
				c0.15-0.17,0.07-0.44-0.15-0.51c-0.63-0.2-1.25-0.41-1.86-0.64c-0.11-0.04-0.24-0.01-0.32,0.07
				c-12.78,12.3-29.44,18.07-47.27,16.38c-0.12-0.01-0.23,0.05-0.29,0.15c-0.34,0.55-0.7,1.11-1.06,1.65
				c-0.13,0.19-0.02,0.45,0.2,0.49c2.81,0.53,5.66,0.87,8.55,0.95c0.19,0.01,0.33,0.17,0.31,0.36c-0.43,3.22-1.14,6.38-2.1,9.48
				c-0.04,0.13-0.16,0.22-0.29,0.22c-8.47,0.27-17.51-0.61-27.6-3.73c-0.08-0.03-0.16-0.09-0.2-0.18
				c-7.72-16.98-10.53-35.9-4.65-58.33c0.01-0.06,0.04-0.11,0.09-0.15c5.05-4.83,10.77-9.09,17.09-12.57
				c0.12-0.06,0.26-0.05,0.36,0.04c1.34,1.18,2.94,2.74,4.12,4.06c6.71-3.54,13.9-6.03,21.5-7.45c0.12-1.73,0.37-3.96,0.69-5.72
				c0.02-0.13,0.13-0.23,0.26-0.25c7.12-1.17,14.25-1.37,21.2-0.7C453.9,31.39,453.96,31.42,454,31.46L454,31.46z M425.69,78.63
				c-1.72-5.21-6.99-8.19-11.74-6.55c-4.71,1.63-6.98,7.18-5.17,12.41c1.81,5.22,7.1,8.15,11.74,6.55
				C425.23,89.4,427.5,83.85,425.69,78.63z M456.95,67.8c-1.72-5.21-6.99-8.19-11.74-6.55c-4.71,1.63-6.98,7.18-5.17,12.41
				c1.81,5.22,7.1,8.15,11.74,6.55C456.52,78.56,458.76,73.02,456.95,67.8z"/>
		</g>
	</g>
	<g>
		<circle class="st8" cx="835.67" cy="416.03" r="46.48"/>
		<path class="st7" d="M843.54,381.33l-10.06,2.2c-5.97,1.31-12.06,5.27-10.16,13.92c0.69,3.01,1.29,5.9,2,9.15l-6.9,1.51
			l2.41,10.99l7.12-1.56l6.92,31.63l13.08-2.86l-6.97-31.84l8.63-1.89l-1.59-10.98l-9.64,2.11c0,0-1.03-4.81-1.36-6.21
			c-0.75-3.42,2.85-4,3.07-4.05c1.69-0.37,4.99-1.09,5.83-1.28L843.54,381.33L843.54,381.33L843.54,381.33z"/>
	</g>
	<g>
		<g>
			
				<radialGradient id="SVGID_1_" cx="196.0177" cy="-2237.782" r="66.7756" gradientTransform="matrix(0.743 0 0 0.743 276.8676 2376.0249)" gradientUnits="userSpaceOnUse">
				<stop  offset="0.09" style="stop-color:#FA8F21"/>
				<stop  offset="0.78" style="stop-color:#D82D7E"/>
			</radialGradient>
			<path class="st9" d="M429.89,714.07c-2.32-0.11-3.59-0.49-4.43-0.82c-1.11-0.43-1.91-0.95-2.74-1.78
				c-0.83-0.83-1.35-1.63-1.78-2.74c-0.33-0.84-0.71-2.1-0.82-4.43c-0.11-2.51-0.14-3.26-0.14-9.63c0-6.37,0.02-7.12,0.14-9.63
				c0.11-2.32,0.5-3.58,0.82-4.43c0.43-1.11,0.95-1.91,1.78-2.74c0.83-0.83,1.63-1.35,2.74-1.78c0.84-0.33,2.1-0.71,4.43-0.82
				c2.51-0.11,3.27-0.14,9.63-0.14c6.37,0,7.12,0.03,9.63,0.14c2.32,0.11,3.58,0.5,4.43,0.82c1.11,0.43,1.91,0.95,2.74,1.78
				c0.83,0.83,1.35,1.63,1.78,2.74c0.33,0.84,0.71,2.1,0.82,4.43c0.12,2.52,0.14,3.27,0.14,9.63c0,6.36-0.02,7.12-0.14,9.63
				c-0.11,2.32-0.5,3.59-0.82,4.43c-0.43,1.11-0.95,1.91-1.78,2.74c-0.83,0.83-1.63,1.35-2.74,1.78c-0.84,0.33-2.1,0.71-4.43,0.82
				c-2.51,0.12-3.27,0.14-9.63,0.14C433.16,714.21,432.4,714.19,429.89,714.07"/>
			
				<radialGradient id="SVGID_00000011724478127447704060000013475774883131071920_" cx="229.0443" cy="-2239.4707" r="58.7632" gradientTransform="matrix(0.743 0 0 0.743 276.8676 2376.0249)" gradientUnits="userSpaceOnUse">
				<stop  offset="0.64" style="stop-color:#8C3AAA;stop-opacity:0"/>
				<stop  offset="1" style="stop-color:#8C3AAA"/>
			</radialGradient>
			<path style="fill:url(#SVGID_00000011724478127447704060000013475774883131071920_);" d="M429.89,714.07
				c-2.32-0.11-3.59-0.49-4.43-0.82c-1.11-0.43-1.91-0.95-2.74-1.78c-0.83-0.83-1.35-1.63-1.78-2.74c-0.33-0.84-0.71-2.1-0.82-4.43
				c-0.11-2.51-0.14-3.26-0.14-9.63c0-6.37,0.02-7.12,0.14-9.63c0.11-2.32,0.5-3.58,0.82-4.43c0.43-1.11,0.95-1.91,1.78-2.74
				c0.83-0.83,1.63-1.35,2.74-1.78c0.84-0.33,2.1-0.71,4.43-0.82c2.51-0.11,3.27-0.14,9.63-0.14c6.37,0,7.12,0.03,9.63,0.14
				c2.32,0.11,3.58,0.5,4.43,0.82c1.11,0.43,1.91,0.95,2.74,1.78c0.83,0.83,1.35,1.63,1.78,2.74c0.33,0.84,0.71,2.1,0.82,4.43
				c0.12,2.52,0.14,3.27,0.14,9.63c0,6.36-0.02,7.12-0.14,9.63c-0.11,2.32-0.5,3.59-0.82,4.43c-0.43,1.11-0.95,1.91-1.78,2.74
				c-0.83,0.83-1.63,1.35-2.74,1.78c-0.84,0.33-2.1,0.71-4.43,0.82c-2.51,0.12-3.27,0.14-9.63,0.14
				C433.16,714.21,432.4,714.19,429.89,714.07"/>
			<path class="st7" d="M434.72,694.75c0-2.67,2.17-4.84,4.84-4.84s4.84,2.17,4.84,4.84c0,2.67-2.17,4.84-4.84,4.84
				S434.72,697.43,434.72,694.75 M432.1,694.75c0,4.12,3.34,7.45,7.45,7.45s7.45-3.34,7.45-7.45c0-4.12-3.34-7.45-7.45-7.45
				S432.1,690.64,432.1,694.75 M445.57,687c0,0.96,0.78,1.74,1.74,1.74c0.96,0,1.74-0.78,1.74-1.74c0-0.96-0.78-1.74-1.74-1.74l0,0
				C446.35,685.26,445.57,686.04,445.57,687 M433.69,706.57c-1.42-0.06-2.19-0.3-2.7-0.5c-0.68-0.26-1.16-0.58-1.67-1.09
				c-0.51-0.51-0.82-0.99-1.09-1.67c-0.2-0.51-0.43-1.28-0.5-2.7c-0.07-1.53-0.08-1.99-0.08-5.87c0-3.88,0.02-4.34,0.08-5.87
				c0.06-1.42,0.3-2.18,0.5-2.7c0.26-0.68,0.58-1.16,1.09-1.67s0.99-0.82,1.67-1.09c0.51-0.2,1.28-0.43,2.7-0.5
				c1.53-0.07,1.99-0.08,5.86-0.08s4.34,0.02,5.87,0.08c1.42,0.06,2.18,0.3,2.7,0.5c0.68,0.26,1.16,0.58,1.67,1.09
				c0.51,0.51,0.82,0.99,1.09,1.67c0.2,0.51,0.43,1.28,0.5,2.7c0.07,1.53,0.08,1.99,0.08,5.87c0,3.88-0.01,4.34-0.08,5.87
				c-0.06,1.42-0.3,2.19-0.5,2.7c-0.26,0.68-0.58,1.16-1.09,1.67c-0.51,0.51-0.99,0.82-1.67,1.09c-0.51,0.2-1.28,0.43-2.7,0.5
				c-1.53,0.07-1.99,0.08-5.87,0.08S435.22,706.64,433.69,706.57 M433.57,680.32c-1.55,0.07-2.6,0.32-3.52,0.67
				c-0.96,0.37-1.76,0.87-2.57,1.67s-1.31,1.62-1.68,2.57c-0.36,0.92-0.6,1.98-0.67,3.52c-0.07,1.55-0.09,2.04-0.09,5.99
				s0.02,4.44,0.09,5.99c0.07,1.55,0.32,2.6,0.67,3.52c0.37,0.96,0.87,1.76,1.67,2.57s1.62,1.3,2.57,1.67
				c0.92,0.36,1.98,0.6,3.52,0.67c1.55,0.07,2.04,0.09,5.99,0.09c3.94,0,4.44-0.02,5.99-0.09c1.55-0.07,2.6-0.32,3.52-0.67
				c0.96-0.37,1.76-0.87,2.57-1.67s1.3-1.62,1.67-2.57c0.36-0.92,0.6-1.98,0.67-3.52c0.07-1.55,0.09-2.04,0.09-5.99
				s-0.02-4.44-0.09-5.99c-0.07-1.55-0.32-2.6-0.67-3.52c-0.37-0.96-0.87-1.76-1.67-2.57c-0.8-0.81-1.61-1.31-2.57-1.68
				c-0.92-0.36-1.98-0.6-3.52-0.67c-1.55-0.07-2.04-0.09-5.99-0.09C435.62,680.24,435.12,680.25,433.57,680.32"/>
		</g>
	</g>
	<g>
		<path class="st11" d="M557.98,913.75l-12.89-4.33l-11.48,5.72l-8.59-2.89l2.89-8.61l-15.75-5.29l15.4-45.81l8.14-10.03
			l58.71,19.73l-13.48,40.1L557.98,913.75z M576.18,897.58l10.59-31.52l-47.26-15.88l-13.96,41.53l12.89,4.33l-2.89,8.59l11.47-5.7
			l15.75,5.29L576.18,897.58L576.18,897.58z"/>
		<path class="st12" d="M567.15,872.23l-5.78,17.2l5.73,1.93l5.78-17.2L567.15,872.23z M545.63,884.11l5.73,1.93l5.77-17.17
			l-5.73-1.93L545.63,884.11L545.63,884.11z"/>
	</g>
	<g>
		<path class="st13" d="M198.84,627.99c-2.56,1.5-5.36,2.64-8.36,3.36c2.89-2.22,4.93-5.44,5.65-9.08
			c-2.71,2.06-5.78,3.68-9.12,4.75c-3.08-2.6-7.19-3.98-11.52-3.48c-8.3,0.96-14.25,8.46-13.3,16.77c0.13,1.15,0.4,2.28,0.78,3.38
			c-12.57,0.81-24.33-3.9-32.79-12.14c-1.03,2.37-1.48,5.04-1.16,7.79c0.6,5.21,3.79,9.51,8.13,11.74c-2.4,0.2-4.8-0.18-7.02-1.1
			l0.02,0.19c0.84,7.28,6.72,12.76,13.76,13.35c-1.25,0.5-2.56,0.83-3.9,0.98c-0.95,0.11-1.91,0.13-2.86,0.06
			c2.6,5.75,8.65,9.46,15.24,8.82c-4.68,4.63-10.89,7.78-17.93,8.59c-1.21,0.14-2.42,0.21-3.61,0.2c7.14,3.5,15.33,5.08,23.81,4.1
			c27.65-3.19,40.13-27.83,37.84-47.69c-0.07-0.65-0.17-1.3-0.27-1.94c2.69-2.46,4.94-5.4,6.6-8.64L198.84,627.99z"/>
	</g>
	<g>
		<path class="st7" d="M514.83,585.09c-6.58-3.12-12.87-5.99-19.31-8.98l0.93,19.69c6.44-3.91,13.25-7.53,18.4-10.71L514.83,585.09
			L514.83,585.09z"/>
		<path class="st14" d="M514.83,585.09c-6.58-3.12-19.31-8.98-19.31-8.98l17.09,10.35C512.61,586.45,509.67,588.27,514.83,585.09
			L514.83,585.09z"/>
		<path class="st15" d="M498.39,611.15c-13.34,0.39-17.9,0.38-20.73-0.06c-1.91-0.29-3.6-1.07-4.86-2.24
			c-0.98-0.89-1.79-2.28-2.45-4.23c-0.57-1.62-0.83-2.98-1.26-6.32c-0.78-7.53-1.17-13.7-0.98-20.62c0.25-3.83,0.24-8.36,2.96-11.14
			c1.29-1.3,2.81-2.17,4.55-2.58c2.72-0.65,14.38-1.62,26.48-2.19c12.07-0.57,23.8-0.72,26.56-0.33c2.21,0.31,4.33,1.44,5.61,2.98
			c2.79,3.96,3.08,9.04,3.53,13c0.2,1.89,0.71,12.64,0.69,14.54c-0.11,6.3-0.34,8.54-1.16,10.88c-0.51,1.48-0.96,2.27-1.77,3.16
			c-1.27,1.37-2.94,2.32-4.76,2.73C519.3,610.15,509.52,610.8,498.39,611.15L498.39,611.15z M514.86,585.08
			c-6.58-3.12-12.87-6.01-19.31-9.01l0.93,19.69c6.44-3.91,13.25-7.53,18.4-10.71L514.86,585.08L514.86,585.08z"/>
	</g>
	<g>
		<g>
			<path class="st16" d="M540.89,172.56l0.76-3.87c-1.3-0.48-2.64-0.86-4-1.14c-13.17-2.61-26.51,3.65-32.93,15.45
				s-4.42,26.39,4.92,36.04c-8.97-14.37-4.6-33.29,9.77-42.26C525.81,172.78,533.45,171.28,540.89,172.56L540.89,172.56z"/>
			<path class="st16" d="M533.03,216.58c7.37,1.43,14.56-3.19,16.33-10.49l12.85-65.69l12,2.35c0.02-1.42,0.18-2.84,0.46-4.23
				l-16.41-3.21l-12.84,65.62c-1.72,7.34-8.94,12.02-16.34,10.58c-2.21-0.45-4.28-1.42-6.04-2.83
				C524.92,212.77,528.63,215.7,533.03,216.58z M592.27,169.43l0.71-3.65c-4.42-0.86-8.48-3.01-11.68-6.18
				C583.79,163.99,587.64,167.44,592.27,169.43z"/>
		</g>
		<path class="st17" d="M581.3,159.61c-2.82-4.84-3.78-10.53-2.7-16.02l-4.38-0.86C574.16,149.09,576.72,155.19,581.3,159.61z
			 M534.44,183.96c-7.62-1.45-14.97,3.55-16.42,11.17c-0.97,5.09,0.95,10.31,4.99,13.56c-3.25-7.02-0.19-15.35,6.83-18.6
			c2.68-1.24,5.69-1.6,8.59-1.03c1.37,0.29,2.7,0.77,3.94,1.43l3.27-16.7c-1.31-0.46-2.64-0.84-4-1.11l-0.73-0.14l-2.48,12.7
			C537.15,184.62,535.82,184.19,534.44,183.96z"/>
		<path class="st17" d="M592.27,169.43l-2.49,12.7c-8.17-1.62-15.63-5.76-21.32-11.85l-6.53,33.37
			c-3.29,16.64-19.44,27.48-36.09,24.22c-6.19-1.2-11.85-4.29-16.2-8.84c8.95,14.4,27.87,18.83,42.28,9.88
			c7.24-4.5,12.29-11.81,13.93-20.18l6.51-33.27c5.71,6.06,13.19,10.18,21.37,11.76l3.2-16.35
			C595.33,170.55,593.77,170.07,592.27,169.43L592.27,169.43z"/>
		<path d="M561.93,203.65l6.53-33.37c5.71,6.07,13.19,10.18,21.37,11.76l2.48-12.7c-4.63-1.97-8.5-5.38-11.02-9.74
			c-4.58-4.42-7.14-10.52-7.08-16.88l-12-2.35l-12.86,65.72c-1.8,7.54-9.37,12.2-16.91,10.4c-4.18-1-7.68-3.85-9.48-7.75
			c-6.04-4.86-6.99-13.7-2.13-19.74c3.25-4.04,8.47-5.96,13.56-4.99c1.38,0.28,2.7,0.76,3.94,1.43l2.49-12.7
			c-16.68-2.97-32.6,8.14-35.57,24.81c-1.35,7.55,0.19,15.33,4.3,21.81c4.43,4.45,10.12,7.41,16.3,8.5
			C542.5,231.13,558.64,220.29,561.93,203.65L561.93,203.65z"/>
	</g>
</g>
<g id="Calque_3">
	<g>
		<path class="st2" d="M950.62,816.56c-0.05,0.23-0.11,0.46-0.14,0.7c-0.84,6.16-7.64,9.7-13.3,9.65v62.15
			c0,40.78-27.4,75.14-64.8,85.73c-0.53,8.19-2.62,16.07-5.66,23.64c52.38-8.87,92.28-54.46,92.28-109.37v-71.11
			C956.18,818.29,953.21,817.8,950.62,816.56z"/>
	</g>
	<g>
		<g>
			<rect x="603.02" y="925.81" class="st7" width="44.64" height="46.3"/>
		</g>
		<g>
			<path class="st18" d="M647.2,926.27v45.39h-43.73v-45.39H647.2 M648.11,925.36h-45.55v47.21h45.55V925.36L648.11,925.36z"/>
		</g>
	</g>
	<g>
		<polygon class="st19" points="790.15,849.81 747.55,827.74 833.69,701.29 873.05,728.1 		"/>
	</g>
	<g>
		<path class="st12" d="M908.45,901.04l-143.57-76.48c-20.72-11.04-46.46-3.19-57.49,17.53l-11.88,22.3l-35.17,66.03l59.81,31.86
			l35.17-66.03l121.27,64.61L908.45,901.04z"/>
		<path d="M720.33,962.88l-60.61-32.29l47.26-88.72c11.14-20.91,37.2-28.85,58.11-17.71l143.97,76.7l-32.29,60.61L755.5,896.86
			L720.33,962.88z M660.95,930.22l59,31.43l35.17-66.03l121.27,64.61l31.43-59l-143.17-76.27c-20.46-10.9-45.98-3.12-56.88,17.34
			L660.95,930.22z"/>
	</g>
	<g>
		<g>
			<path class="st12" d="M872.71,978.18H642.18v-67.76h280.86v17.43C923.04,955.64,900.51,978.18,872.71,978.18z"/>
		</g>
		<g>
			<path d="M855.59,977.72H642.63v-66.86h274.78c-0.03-0.3-0.03-0.61-0.01-0.91H641.72v68.67h213.85
				C855.56,978.33,855.57,978.02,855.59,977.72z"/>
		</g>
	</g>
	<g>
		<path d="M755.32,896.24c0.46-13.43,0.51-27.24-3.66-40.15c2.84,6.2,3.91,13.06,4.44,19.82
			C756.47,882.69,756.33,889.52,755.32,896.24L755.32,896.24z"/>
	</g>
	<g>
		<path class="st3" d="M570,882.71L570,882.71c7.1,0,13.87,3.04,18.58,8.36l24.94,28.13c1.01,1.14,1.53,2.65,1.36,4.17
			c-0.56,4.92-2.78,9.5-6.11,13.25c-2.42,2.73-4.62,6.74-4.62,12.35c0,7.47,3.92,11.87,7.05,14.19c2.47,1.83,3.83,4.79,3.83,7.87
			v7.16H570V882.71z"/>
		<path d="M615.47,978.63h-45.93v-96.37H570c7.23,0,14.12,3.1,18.92,8.51l24.94,28.13c1.12,1.26,1.65,2.91,1.47,4.52
			c-0.56,4.88-2.71,9.55-6.22,13.5c-2.99,3.37-4.51,7.42-4.51,12.05c0,7.22,3.73,11.51,6.86,13.83c2.51,1.86,4.01,4.94,4.01,8.23
			V978.63z M570.46,977.72h44.11v-6.7c0-3-1.36-5.81-3.64-7.5c-3.3-2.45-7.23-6.96-7.23-14.56c0-4.86,1.59-9.11,4.74-12.65
			c3.39-3.81,5.46-8.3,6-13c0.16-1.36-0.3-2.75-1.24-3.81l-24.94-28.13c-4.52-5.1-10.98-8.07-17.79-8.2V977.72z"/>
	</g>
	<g>
		<path class="st3" d="M846.38,671.06L846.38,671.06h55.79c31.31,11.79,35.02,49.1,35.02,102.24c0,77.81-14.14,137.11-14.14,137.11
			s-52.54,17.2-79.94,17.2c-27.4,0-50.53-17.2-50.53-17.2l13.28-22.87c2.49-4.28,3.8-9.15,3.8-14.1c0,0-1.66-68.11,0-94.91
			C811.03,756.32,824.8,676.45,846.38,671.06z"/>
	</g>
	<g>
		<polygon class="st19" points="883.7,964.7 835.55,964.54 864.26,776.85 911.34,784.05 		"/>
	</g>
	<g>
		<path class="st3" d="M918.39,791.09l-62.96-9.63l8.84-57.78c2.66-17.39,13.93-40.04,36.62-36.25c19.93,3.32,29,28.5,26.34,45.88
			L918.39,791.09z"/>
		<path d="M918.77,791.61l-0.45-0.07l-63.41-9.7l0.07-0.45l8.84-57.78c0.8-5.23,4.39-23,17-32.13c5.86-4.24,12.64-5.76,20.15-4.5
			c20.43,3.4,29.33,29.32,26.71,46.4L918.77,791.61z M855.95,781.08l62.06,9.5l8.77-57.33c2.56-16.71-6.08-42.05-25.96-45.37
			c-7.27-1.21-13.82,0.25-19.47,4.34c-12.32,8.92-15.84,26.39-16.63,31.53L855.95,781.08z"/>
	</g>
	<g>
		<path class="st19" d="M893.42,535.06l-4.32-1.2c-24.82-6.9-50.54,7.62-57.44,32.44l-7.73,27.79
			c-6.26,22.51,6.95,46.34,29.36,52.96c0,0-1.66,9.95-6.92,24.01h55.79c-0.59-4.63,1.15-15.69,3.05-25.58
			c0.54-2.85,2.07-5.38,4.23-7.31c7.05-6.3,12.44-14.62,15.16-24.41l4.38-15.74C936.55,570.82,920.63,542.63,893.42,535.06z"/>
	</g>
	<g>
		<path class="st18" d="M893.65,589.56l-10.7-4.38c-0.63-0.26-0.92-0.97-0.67-1.59l1.62-3.95c0.26-0.63,0.97-0.92,1.59-0.67
			l10.7,4.38c0.63,0.26,0.92,0.97,0.67,1.59l-1.62,3.95C894.99,589.51,894.27,589.81,893.65,589.56z"/>
	</g>
	<g>
		<path class="st18" d="M856.75,578.11l-10.7-4.38c-0.63-0.26-0.92-0.97-0.67-1.59l1.62-3.95c0.26-0.62,0.97-0.92,1.59-0.67
			l10.7,4.38c0.63,0.26,0.92,0.97,0.67,1.59l-1.62,3.95C858.09,578.06,857.37,578.36,856.75,578.11z"/>
	</g>
	<g>
		
			<ellipse transform="matrix(0.3787 -0.9255 0.9255 0.3787 -15.5403 1151.0671)" class="st18" cx="849.56" cy="587.11" rx="5.77" ry="4.29"/>
	</g>
	<g>
		
			<ellipse transform="matrix(0.3787 -0.9255 0.9255 0.3787 -3.211 1192.33)" class="st18" cx="886.46" cy="598.56" rx="5.77" ry="4.29"/>
	</g>
	<g>
		<path class="st18" d="M860.17,614.44c-1.49,0-3.08-0.93-4.74-2.78c-0.65-0.72-0.91-1.38-0.79-2.04c0.2-1.14,1.4-1.8,2.93-2.62
			c0.99-0.54,2.11-1.14,3.05-1.95c2.95-2.54,4.64-7.07,4.66-7.11l1.29,0.47c-0.07,0.2-1.83,4.9-5.05,7.68
			c-1.05,0.91-2.24,1.55-3.29,2.12c-1.06,0.57-2.15,1.17-2.23,1.65c-0.04,0.21,0.13,0.52,0.46,0.89c1.49,1.65,2.88,2.46,4,2.3
			c1.21-0.15,1.85-1.36,1.85-1.38l1.22,0.62c-0.04,0.08-0.96,1.86-2.88,2.11C860.48,614.43,860.32,614.44,860.17,614.44z"/>
	</g>
	<g>
		<path class="st18" d="M872.71,635.9l-0.14-1.37c7.34-0.74,12.68-3.16,15.88-7.18c2.53-3.18,3.1-6.63,3.2-8.6
			c-8.01,7.41-28.15,5.97-29.04,5.9l0.1-1.37c0.23,0.01,22.56,1.62,29.06-6.67l1.02-1.29l0.2,1.63c0.03,0.24,0.7,6.04-3.46,11.26
			C886.09,632.53,880.43,635.11,872.71,635.9z"/>
	</g>
	<g>
		<path class="st19" d="M913.13,617.95c0,0,11.1-37.53,25.77-14.73c11.75,18.25-12.75,37.13-25.91,30.31"/>
	</g>
	<g>
		<path class="st20" d="M923.81,615.46c0,0,9.98-16.24,10.32-1.33c0.33,14.91-6.4,9.87-6.4,9.87S936.57,604.77,923.81,615.46z"/>
	</g>
	<g>
		<path class="st18" d="M903.04,493.43c-16.34-8.25-12.01,12.05-12.01,12.05s-13.17-20.45-27.62-17.87
			c-9.81,1.75-0.71,36.54-0.71,36.54s-10.8-27.25-26.17-22.24c-21.38,6.97-8.52,28.36-13.62,45.56c-4.4,14.8,8.82,6.03,24.88,8.99
			c8.22,1.51,19.15,6.93,24.43,6.82c9.15-0.2,22.22,0.47,26.44,8.6c2.33,4.48,6.1,8.77,12.13,11.78c19.48,9.72,4.83,17.34,2.2,27.75
			c-0.33,1.3-0.72,4.9,1.35,4.92c3.48,0.03,15.24-20.43,15.24-20.43l7.6-27.31l0,0c5.05-2.02,8.93-5.96,10.8-12.63
			C957.75,521.07,919.38,501.68,903.04,493.43z"/>
	</g>
	<g>
		<path class="st20" d="M853.3,647.05c0,0,17.44,4.44,26.22,2.42c0,0-20.93,7.81-27.78,4.62L853.3,647.05z"/>
	</g>
	<g>
		<path class="st19" d="M787.33,983.68c0,0-4.69,2.21-7.82,0c-6.72-4.75,8.66-19.12,17.78-26.77c3.83-3.21,8.55-4.82,13.34-4.6
			l36.22,2.13l36.84,10.27c0,0-3.78,23.44-35.92,18.18c-6.35-1.04-25.18-5.85-25.18-5.85c-4.74-1.1-9.5-0.01-13.78,2.77
			c-6.76,4.39-15.36,14-19.8,11C785.65,988.52,787.33,983.68,787.33,983.68z"/>
	</g>
	<g>
		<path class="st20" d="M787.33,983.68c4.54-4.45,9.26-8.69,13.98-12.94c5.58-5.5,10.7-5.07,17.94-4.64
			c-1.59,0.09-3.17,0.12-4.76,0.19c-4.77-0.23-9.34,1.59-12.67,5.02C797.04,975.5,792.28,979.69,787.33,983.68L787.33,983.68z"/>
	</g>
	<g>
		<g>
			<g>
				<path class="st3" d="M170.23,785.65c0,0,9.52-8.38,5.72-13.52c-2.56-3.46-3.18-7.95-2.98-12.22c0.26-5.75,2.73-11.11,6.93-15.1
					c4.2-3.99,9.68-6.17,15.44-6.14c5.9,0.03,11.39,2.33,15.47,6.35l-6.61,6.76c-2.35-2.31-5.51-3.64-8.91-3.66
					c-0.02,0-0.04,0-0.07,0c-6.76,0-12.51,5.47-12.82,12.23c-0.11,2.46,0.57,4.86,1.73,7.07c1.41,2.67,1.25,7.82-6.51,14.01
					c7.58-4.07,9.13-10.35,11.47-9.2c1.91,0.94,3.98,1.55,6.13,1.55c5.41,0,10.04-3.36,11.93-8.1h-11.93v-9.45h22.28v4.72
					c0,12.28-9.99,22.28-22.28,22.28c-3.33,0-6.63-0.75-9.61-2.18C180.67,783.49,170.23,785.65,170.23,785.65z"/>
			</g>
		</g>
		<g>
			<path class="st3" d="M234.2,760.28v7.15h-1.03c-3.55,0-5.48,1.97-5.48,5.05v9.97h-6.93v-21.82h6.93v2.18
				c1.45-1.63,3.29-2.52,5.48-2.52H234.2z"/>
			<path class="st3" d="M259.1,760.62v21.82h-6.93v-1.8c-1.58,1.46-3.68,2.31-6.08,2.31c-5.95,0-10.44-4.92-10.44-11.42
				c0-6.5,4.49-11.42,10.44-11.42c2.4,0,4.49,0.86,6.08,2.31v-1.8H259.1z M252.17,771.54c0-2.7-2.01-4.71-4.71-4.71
				c-2.7,0-4.66,2.01-4.66,4.71s1.97,4.71,4.66,4.71C250.16,776.24,252.17,774.23,252.17,771.54z"/>
			<path class="st3" d="M287.17,771.54c0,6.5-4.49,11.42-10.44,11.42c-2.4,0-4.49-0.86-6.08-2.31v9.93h-6.93v-29.95h6.93v1.8
				c1.58-1.46,3.68-2.31,6.08-2.31C282.67,760.11,287.17,765.03,287.17,771.54z M280.02,771.54c0-2.7-1.97-4.71-4.66-4.71
				c-2.7,0-4.71,2.01-4.71,4.71s2.01,4.71,4.71,4.71C278.05,776.24,280.02,774.23,280.02,771.54z"/>
			<path class="st3" d="M312.07,768.28v14.16h-6.93v-11.85c0-2.27-1.41-3.77-3.59-3.77c-2.4,0-3.98,1.54-3.98,3.85v11.77h-6.93
				v-30.81h6.93v11.04c1.67-1.71,3.81-2.57,6.29-2.57C308.77,760.11,312.07,763.36,312.07,768.28z"/>
			<path class="st3" d="M315.53,754.08c0-2.44,1.84-4.24,4.24-4.24c2.44,0,4.24,1.8,4.24,4.24c0,2.4-1.8,4.19-4.24,4.19
				C317.37,758.27,315.53,756.47,315.53,754.08z M316.3,760.62h6.93v21.82h-6.93V760.62z"/>
			<path class="st3" d="M347.37,775.51v6.93h-19.12v-29.52h7.36v22.59H347.37z"/>
			<path class="st3" d="M371.88,773.63h-15.57c0.73,2.1,2.57,3.38,4.96,3.38c2.22,0,4.02-1.11,4.96-2.14l4.58,3.98
				c-2.31,2.52-5.78,4.11-9.75,4.11c-6.97,0-12.19-4.96-12.19-11.55c0-6.42,5.01-11.29,11.64-11.29c6.59,0,11.55,4.88,11.55,11.55
				C372.05,772.26,372.01,773.08,371.88,773.63z M356.27,769.35h8.39c-0.6-2.05-2.22-3.34-4.19-3.34S356.91,767.3,356.27,769.35z"/>
			<path class="st3" d="M397.64,760.62v21.82h-6.93v-1.8c-1.58,1.46-3.68,2.31-6.08,2.31c-5.95,0-10.44-4.92-10.44-11.42
				c0-6.5,4.49-11.42,10.44-11.42c2.4,0,4.49,0.86,6.08,2.31v-1.8H397.64z M390.71,771.54c0-2.7-2.01-4.71-4.71-4.71
				c-2.7,0-4.66,2.01-4.66,4.71s1.97,4.71,4.66,4.71C388.7,776.24,390.71,774.23,390.71,771.54z"/>
			<path class="st3" d="M410.95,759.85v0.77h4.88v6.33h-4.88v15.49h-6.93v-15.49h-3.08v-6.33h3.08v-1.24c0-4.79,2.44-8.26,8.04-8.26
				c1.71,0,3,0.3,4.28,0.98v6.08c-0.81-0.47-1.71-0.73-2.7-0.73C411.85,757.46,410.95,758.36,410.95,759.85z"/>
		</g>
	</g>
</g>
</svg>
