<?xml version="1.0" encoding="utf-8"?>
<!-- Generator: Adobe Illustrator 27.8.1, SVG Export Plug-In . SVG Version: 6.00 Build 0)  -->
<svg version="1.1" xmlns="http://www.w3.org/2000/svg" xmlns:xlink="http://www.w3.org/1999/xlink" x="0px" y="0px"
	 viewBox="0 0 1000 1000" style="enable-background:new 0 0 1000 1000;" xml:space="preserve">
<style type="text/css">
	.st0{fill:#BBBBB7;}
	.st1{fill:#E9E8E3;}
	.st2{fill:#FAF9F2;}
	.st3{fill:#BA310B;}
	.st4{display:none;opacity:0.18;}
	.st5{display:inline;fill:none;stroke:#000000;stroke-miterlimit:10;}
	.st6{fill:#EAC5B8;}
	.st7{fill:#000018;}
	.st8{fill:#DEB6A3;}
	.st9{fill:#0F121F;}
	.st10{fill:#018EBB;}
	.st11{fill:#B9A3A9;}
	.st12{fill:#0C7599;}
	.st13{fill:#1A61A5;}
	.st14{fill:#C9D0CF;}
</style>
<g id="Calque_3">
	<g>
		<circle class="st0" cx="513.33" cy="679.17" r="63.59"/>
	</g>
	<g>
		<circle class="st1" cx="507.96" cy="676.49" r="63.59"/>
	</g>
	<g>
		<circle class="st0" cx="390.97" cy="662.85" r="107.41"/>
	</g>
	<g>
		<circle class="st1" cx="393.66" cy="654.79" r="107.41"/>
	</g>
	<g>
		<circle class="st1" cx="471.46" cy="542.72" r="104.29"/>
	</g>
	<g>
		<circle class="st1" cx="367.17" cy="498.33" r="73.61"/>
	</g>
	<g>
		<circle class="st0" cx="591.81" cy="602.1" r="104.87"/>
	</g>
	<g>
		<path class="st2" d="M331.3,457.91c-7.07-8.82,14.04-34.2,42.08-24.65S343.41,473,331.3,457.91z"/>
	</g>
	<g id="Calque_4">
		<g>
			<polygon class="st3" points="732.34,188.96 573.14,214.89 618.06,259.81 452.37,425.5 370.98,344.11 327.55,387.54 
				161.84,553.25 205.27,596.68 370.98,430.97 452.37,512.36 661.49,303.24 706.41,348.16 			"/>
		</g>
	</g>
	<g>
		<circle class="st0" cx="278.42" cy="607.47" r="112.55"/>
	</g>
	<g>
		<circle class="st1" cx="286.48" cy="612.84" r="112.55"/>
	</g>
	<g>
		<circle class="st1" cx="586.44" cy="594.05" r="104.87"/>
	</g>
	<g class="st4">
		<path class="st5" d="M712.69,628.29c0.65,25.25,1.3,50.5,1.95,75.75c4.84-0.45,9.68-0.9,14.52-1.36c-1.56-1.36-1.66-3.7-1.68-5.77
			c-0.11-19.75-2.3-39.49-6.51-58.78c11.8-0.83,23.59-1.66,35.39-2.49c-1.62,0.11-5.08-10.24-5.53-11.67
			c-2.67-8.48-6.32-2.76-10.49,1.79c-5.41,5.9-11.1,11.54-17.06,16.89c8.65,12.97,9.99,29.36,15.81,43.82
			c4.99-3.24,10.12-6.28,15.36-9.1c-5.6-4.87-6.22-13.13-8-20.34c-1.71-6.88-4.83-13.41-9.12-19.05c1.97-0.1,3.73,1.42,4.55,3.22
			c0.82,1.8,0.88,3.83,0.94,5.8c4.49-1.56,8.98-3.12,13.47-4.68c0.33-0.11,0.68-0.25,0.85-0.55c0.23-0.41,0.02-0.92-0.19-1.34
			c-3.02-5.95-6.05-11.91-9.07-17.86c-0.52-1.02-1.09-2.1-2.08-2.67c-2.77-1.59-12.08,2.73-15.05,3.53
			C724.72,625.04,718.7,626.66,712.69,628.29z"/>
		<path class="st5" d="M718.68,703.94c0.39,1.15,0.83,2.28,1.31,3.39c0.15,0.34,0.31,0.69,0.59,0.94c1.05,0.95,2.66-0.13,3.63-1.16
			c-1.6-0.8-2.74-2.46-2.91-4.24"/>
		<path class="st5" d="M744.39,684.16c1.1,1.88,2.2,3.77,3.29,5.65c0.68-1.14,1.36-2.29,2.04-3.43c0.23-0.39,0.47-0.81,0.47-1.27
			c-0.01-0.43-0.23-0.82-0.44-1.19c-1.01-1.73-2.01-3.46-3.02-5.19"/>
		<path class="st5" d="M723.44,708.47c-1.45,1.4-2.9,2.8-4.35,4.2c-0.63,0.61-1.28,1.25-1.61,2.06s-0.27,1.86,0.38,2.44
			c0.29,0.26,0.67,0.4,1.05,0.41c0.76,0.01,1.4-0.51,1.98-1c1.87-1.57,3.74-3.15,5.6-4.72c0.8-0.67,1.63-1.4,1.92-2.4
			c0.4-1.4-0.44-2.92-1.63-3.75c-1.19-0.84-2.66-1.14-4.09-1.43"/>
		<path class="st5" d="M744.59,704.48c0.59,0.76,1.8,0.12,2.47-0.57c4.94-5.06,8.14-11.8,8.93-18.83c0.09-0.8,0.08-1.76-0.57-2.23
			c-0.31-0.22-0.71-0.28-1.09-0.33c-5.66-0.74-7.07,2.16-7.33,7.07C746.72,694.96,743.86,698.76,744.59,704.48z"/>
		<path class="st5" d="M726.31,627.57c1.15-0.4,2.12-1.18,3.07-1.95c3.5-2.83,7-5.66,10.49-8.49c-2.46-1.81-5.84-2.31-8.72-1.29
			c-2.88,1.02-5.19,3.53-5.96,6.49c-0.14,0.53-0.26,1.12-0.69,1.45c-1.1,0.84-2.41-0.77-2.82-2.09c-1.67-5.52-2.32-11.34-1.89-17.09
			c-6.64-0.82-13.33-1.31-20.02-1.48c-0.5-0.01-1.06,0-1.41,0.35c-1.82,1.82-0.21,11.66,0.19,14.11c0.49,3,1.28,4.95,4.12,6.26
			c2.62,1.21,6.07,1.08,8.87,1.6C715.83,626.25,722,629.09,726.31,627.57z"/>
		<path class="st5" d="M745.76,618.94c2.92-0.33,4.67-3.39,5.57-6.19c3.73-11.54,1.28-24.02,1.23-36.15c0-0.78,0.01-1.6,0.38-2.29
			c0.65-1.2,2.13-1.64,3.48-1.87c4.85-0.84,9.96-0.54,14.49,1.39c4.53,1.93,8.4,5.58,10.1,10.2c1.01,2.75,1.23,5.71,1.45,8.64
			c0.29,3.91,0.58,7.82,0.86,11.73c0.22,3.02,0.44,6.07,0.08,9.08c-0.59,4.87-2.68,9.42-4.85,13.83c-2.14,4.35-4.54,8.84-8.58,11.51
			c-4.34,2.86-9.83,3.15-15.02,3.34"/>
		<path class="st5" d="M765.59,591.56c-0.06,2.15-0.17,4.42-1.36,6.21c-1.31,1.97-3.66,2.93-5.85,3.83
			c-7.99,3.29-15.71,7.25-23.03,11.83c-1.48,0.93-3.05,1.91-4.8,1.93c-1.75,0.02-3.62-1.41-3.38-3.14c0.23-1.68,2.11-2.51,3.69-3.09
			c8.97-3.32,17.12-8.49,25.18-13.63c1.15-0.73,2.34-1.5,3.05-2.66c0.6-0.98,0.81-2.15,0.93-3.3c0.3-2.91,0.11-5.87-0.56-8.72
			c2.06-0.19,4.22-0.35,6.26-0.05C766.23,584.17,765.7,588.08,765.59,591.56z"/>
		<path class="st5" d="M752.71,586.48c-0.34,3.07-2.53,5.57-4.68,7.79c-8.17,8.43-17.32,15.86-26.43,23.26
			c-0.48,0.39-0.99,0.79-1.59,0.92c-1.79,0.38-3.06-1.67-3.73-3.37c9.92-9.78,19.84-19.57,29.76-29.35c1.8-1.77,3.61-3.56,5.7-4.98"
			/>
		<path class="st5" d="M761.14,571.8c-0.76-3.49-0.38-7.23,1.06-10.5"/>
		<path class="st5" d="M770.97,573.17c-1.14-3.5-1.6-7.22-1.36-10.89"/>
		<path class="st5" d="M755.92,541.08c0.86-3.22,1.95-6.76,4.81-8.48c3.42-2.06,8.08-0.48,10.75,2.48
			c2.67,2.96,3.84,6.94,4.92,10.78c1.75,6.17,3.5,10.59-2.43,14.74c-3.36,2.36-7.6,4.23-11.79,4.01
			C749.08,563.92,753.79,549.09,755.92,541.08z"/>
	</g>
	<g>
		<path class="st2" d="M543.05,542.72c-5.07-17.08,40.85-41.56,76.09-10.92C654.37,562.44,551.74,571.94,543.05,542.72z"/>
	</g>
	<g>
		<path class="st0" d="M368.53,671.57c-20.45-36.12,51.71-116.05,138.25-65.09C593.31,657.44,403.52,733.37,368.53,671.57z"/>
	</g>
</g>
<g id="Calque_1">
	<g id="Calque_2">
	</g>
	<g>
		<g>
			<polygon class="st6" points="273.29,834.61 272.22,873.82 300.37,877.17 303.79,861.23 303.96,834.06 			"/>
		</g>
		<g>
			<path class="st7" d="M248.08,927.48c0,0-0.04-0.11-0.1-0.32c-2.72-8.98-1.74-18.67,2.66-26.95l16.04-30.17
				c0.44-1.34,1.42-2.46,2.71-3.03c4.21-1.83,8.91-2.19,13.47-1.26c3.31,0.68,7.56,0.57,12.06-2.03c5.84-3.39,7.61-8.4,8.08-11.98
				c0.38-2.92,2.01-5.53,4.56-7.01l5.74-3.33l20.94,36.12L248.08,927.48z"/>
		</g>
		<g>
			<polygon class="st6" points="385.08,842.69 398.71,879.46 426.09,872.07 423.31,856 413.32,830.74 			"/>
		</g>
		<g>
			<path class="st7" d="M396.34,938.26c0,0-0.07-0.09-0.21-0.26c-5.87-7.31-8.58-16.67-7.58-26l3.63-33.98
				c-0.09-1.41,0.4-2.81,1.39-3.82c3.22-3.27,7.45-5.36,12.03-6.2c3.33-0.61,7.23-2.29,10.43-6.39c4.16-5.32,3.93-10.63,3.02-14.12
				c-0.74-2.85-0.2-5.88,1.62-8.21l4.09-5.23l32.9,25.7L396.34,938.26z"/>
		</g>
		<g>
			<polygon class="st7" points="311.09,840 319.87,675.55 447.09,669.14 398.93,576.32 242.19,625.4 268.3,840 			"/>
		</g>
		<g>
			<polygon class="st8" points="444.72,400.47 408.33,455 307.62,526.46 327.8,542.02 425.96,491.96 483.29,421.34 			"/>
		</g>
		<g>
			<path class="st7" d="M414.63,589.13l-116.69,78.78l81.52,185.21l38.43-23.05l-20.98-135.81c0,0,42.21-13.03,65.86-21.33
				c23.66-8.31,32.55-17.92,32.55-17.92L414.63,589.13z"/>
		</g>
		<g>
			<polygon class="st9" points="350.52,787.36 297.94,667.91 414.63,589.13 407.29,600.38 309.29,670.98 			"/>
		</g>
		<g>
			<path class="st10" d="M529.96,490c7.06-41.15,3.3-84.84-21.64-109.25l-54.32,0.01c-2.73-0.84-22.86,19.29-27.69,33.07
				c-12.97,37.02-32.89,126.56-27.37,162.49c1.59,10.38,7.53,27.46,19.69,39.31c10.57,10.3,23.56,11.3,36.3,18.15
				c19.5,10.48,38.23,25.94,42.71,21.58C527.49,626.25,518.1,559.05,529.96,490z"/>
		</g>
		<g>
			<path class="st6" d="M457.7,251.18l-4.57,0.17c-26.28,0.97-46.79,23.06-45.82,49.34l1.09,29.42
				c0.88,23.83,21.11,42.92,44.96,42.42c0,0,0.73,7.57,0.64,8.22l54.32-0.01c-2.01-4.32-3.74-15.62-4.96-25.82
				c-0.35-2.94,0.35-5.87,1.85-8.42c4.91-8.31,7.57-18.07,7.19-28.43l-0.62-16.67C510.72,272.6,486.51,250.12,457.7,251.18z"/>
		</g>
		<g>
			<path class="st7" d="M461,305.24l-7.42,0.6c-1.89,0.15-3.54-1.25-3.69-3.14v0c-0.15-1.89,1.25-3.54,3.14-3.69l7.43-0.6
				c1.89-0.15,3.54,1.25,3.69,3.14v0C464.29,303.44,462.89,305.09,461,305.24z"/>
		</g>
		<g>
			<path class="st7" d="M422.13,311.86l-7.43,0.6c-1.89,0.15-3.54-1.25-3.69-3.14l0,0c-0.15-1.89,1.25-3.54,3.14-3.69l7.42-0.6
				c1.89-0.15,3.54,1.25,3.69,3.14l0,0C425.42,310.05,424.01,311.71,422.13,311.86z"/>
		</g>
		<g>
			
				<ellipse transform="matrix(0.9967 -0.081 0.081 0.9967 -24.7929 35.2374)" class="st7" cx="421.91" cy="323.2" rx="4.38" ry="5.89"/>
		</g>
		<g>
			
				<ellipse transform="matrix(0.9967 -0.081 0.081 0.9967 -24.1291 38.3645)" class="st7" cx="460.79" cy="316.58" rx="4.38" ry="5.89"/>
		</g>
		<g>
			<path class="st7" d="M442.15,343.62c-1.03,0-2.22-0.26-3.57-0.78c-0.92-0.35-1.46-0.84-1.67-1.49c-0.35-1.13,0.45-2.28,1.45-3.74
				c0.65-0.94,1.39-2.01,1.87-3.18c1.51-3.68,0.96-8.58,0.96-8.63l1.39-0.16c0.03,0.22,0.6,5.31-1.05,9.32
				c-0.54,1.31-1.32,2.44-2.01,3.44c-0.7,1.01-1.42,2.05-1.27,2.53c0.06,0.2,0.36,0.42,0.83,0.6c2.12,0.82,3.75,0.9,4.7,0.25
				c1.03-0.7,1.05-2.1,1.05-2.11l1.4,0c0,0.09-0.01,2.13-1.65,3.26C443.93,343.39,443.11,343.62,442.15,343.62z"/>
		</g>
		<g>
			<path class="st6" d="M502.53,325.69c0,0-1.33-39.89,16.63-21.94c14.38,14.37-0.1,39.99-12.5,37.19"/>
		</g>
		<g>
			<path class="st11" d="M510.41,320.13c0,0,3.57-18.78,7.9-4.33c4.33,14.45-2.44,11.51-2.44,11.51S517.72,305.96,510.41,320.13z"/>
		</g>
		<g>
			<path class="st7" d="M462.52,234.98c-18.44-2.96-17.98,5.15-32.92,6.23c-11.46,0.82-46.72,7.71-32.48,43.45
				c2,5.02,6.75,5.81,23.28,3.71c8.46-1.08,20.31-1.43,25.41-3.18c8.84-3.03,21.76-6.42,28.38,0.17c3.65,3.64,8.64,6.64,15.45,7.7
				c21.96,3.42,10.07,15.36,10.73,26.31c0.08,1.37,0.82,4.99,2.83,4.37c3.4-1.05,8.5-24.59,8.5-24.59s1.27-26.88-1.3-33.48
				C501.01,241.55,480.96,237.94,462.52,234.98z"/>
		</g>
		<g>
			<path class="st6" d="M461.22,434.46l-3.24,37.52L343,539.45l19.11,24.39l147.21-61.89l5.5-62.84
				c1.36-15.61-10.84-29.07-26.51-29.24h0C474.24,409.72,462.43,420.44,461.22,434.46z"/>
		</g>
		<g>
			<polygon class="st12" points="405.71,597.14 404.16,593.93 436.35,578.09 436.35,580.5 			"/>
		</g>
		<g>
			<polygon class="st2" points="242.79,606.17 210.05,493.29 359.13,488.91 390.38,591.43 436.35,572.5 437.08,577.73 
				390.31,600.74 			"/>
		</g>
		<g>
			<path class="st13" d="M518.34,467.07l-62.61-4.08l2.51-38.55c1.13-17.29,16.06-30.39,33.34-29.26h0
				c17.29,1.13,30.39,16.06,29.26,33.34L518.34,467.07z"/>
		</g>
		<g>
			<path class="st10" d="M517.21,466.99l-62.61-4.08l2.39-36.73c1.13-17.29,16.06-30.39,33.34-29.26h0
				c17.29,1.13,30.39,16.06,29.26,33.34L517.21,466.99z"/>
		</g>
		<g>
			<polygon class="st14" points="436.35,572.5 384.61,572.5 390.38,591.43 			"/>
		</g>
		<g>
			<polygon class="st9" points="254.54,726.92 242.19,625.4 282.75,612.7 249.87,629.35 			"/>
		</g>
		<g>
			<path class="st11" d="M453.35,372.53c0,0,14.23-0.84,20.37-4.47c0,0-13.94,10.93-19.88,10.16L453.35,372.53z"/>
		</g>
	</g>
</g>
</svg>
