<?xml version="1.0" encoding="utf-8"?>
<!-- Generator: Adobe Illustrator 28.0.0, SVG Export Plug-In . SVG Version: 6.00 Build 0)  -->
<svg version="1.1" xmlns="http://www.w3.org/2000/svg" xmlns:xlink="http://www.w3.org/1999/xlink" x="0px" y="0px"
	 viewBox="0 0 1000 1000" style="enable-background:new 0 0 1000 1000;" xml:space="preserve">
<style type="text/css">
	.st0{display:none;}
	.st1{display:inline;}
	.st2{fill:#FAF9F2;}
	.st3{fill:#BA310B;}
	.st4{fill:#018EBB;}
	.st5{clip-path:url(#SVGID_00000121994421112723830340000008686787458514295222_);}
	.st6{clip-path:url(#SVGID_00000010304884434793501210000016774828534962838933_);}
	.st7{fill:none;stroke:#316627;stroke-width:70;stroke-miterlimit:10;}
	.st8{fill:#319C27;}
	.st9{fill:none;stroke:#316627;stroke-width:40;stroke-miterlimit:10;}
	.st10{fill:#316627;}
	.st11{display:inline;fill:#319C27;}
	.st12{fill:#018EBB;stroke:#018EBB;stroke-width:2.5915;stroke-miterlimit:10;}
	.st13{fill:#000018;}
	.st14{fill:#FFFFFF;stroke:#1D1D1B;stroke-width:0.2667;stroke-miterlimit:10;}
	.st15{fill:#6C3F79;}
</style>
<g id="Calque_3" class="st0">
</g>
<g id="Calque_2">
</g>
<g id="Calque_1">
	<g>
		<g>
			<g>
				<path class="st13" d="M117.24,880.42C117.24,880.42,117.24,880.42,117.24,880.42c0.13-0.12,154.18-135.78,92.6-218.94
					c-41.46-55.99-51.47-128.79-48.3-197.87c4.27-93.06,44.16-179.92,112.31-244.58c68.1-64.62,156.84-99.91,250.06-99.45
					c95.61,0.51,184.5,37.81,250.55,102.8L667.36,331.83c-38.05-37.42-89.24-58.91-144.27-59.2c-0.35,0-0.72,0-1.08,0
					c-109.56,0-202.57,88.6-207.59,198.01c-1.83,39.86,9.2,78.7,28.03,114.46c22.81,43.31,20.32,126.63-105.44,226.94
					c122.77-65.87,147.84-167.66,185.72-149.05c30.88,15.17,64.52,25.17,99.23,25.17c87.55,0,162.63-54.44,193.16-131.24H521.96
					V403.86h360.8v76.52c0,198.95-161.86,360.81-360.8,360.81c-53.91,0-107.34-12.14-155.7-35.26
					C286.46,845.34,117.42,880.38,117.24,880.42z"/>
			</g>
		</g>
	</g>
</g>
</svg>
