<?xml version="1.0" encoding="utf-8"?>
<!-- Generator: Adobe Illustrator 27.8.0, SVG Export Plug-In . SVG Version: 6.00 Build 0)  -->
<svg version="1.1" id="Calque_2_00000150104555336947366170000001856860415072762797_"
	 xmlns="http://www.w3.org/2000/svg" xmlns:xlink="http://www.w3.org/1999/xlink" x="0px" y="0px" viewBox="0 0 1540.9 342.9"
	 style="enable-background:new 0 0 1540.9 342.9;" xml:space="preserve">
<style type="text/css">
	.st0{fill:#faf2f9;}
</style>
<g>
	<path class="st0" d="M156.3,168.9h74.6c-11.8,29.7-40.8,50.7-74.6,50.7c-13.4,0-26.4-3.9-38.3-9.7c-14.6-7.2-24.3,32.1-71.7,57.6
		c48.6-38.7,49.5-70.9,40.7-87.7C79.7,166,75.5,151,76.2,135.6c1.9-42.3,37.9-76.5,80.2-76.5c0.1,0,0.3,0,0.4,0
		c21.2,0.1,41,8.4,55.7,22.9l41.4-42.3C228.3,14.6,194,0.2,157.1,0c-36-0.2-70.3,13.5-96.6,38.4c-26.3,25-41.7,58.5-43.4,94.5
		c-1.2,26.7,2.7,54.8,18.7,76.4C59.6,241.4,0,293.9,0,293.9s65.3-13.5,96.2-28.8c18.7,8.9,39.3,13.6,60.1,13.6
		c76.8,0,139.4-62.5,139.4-139.4v-29.6H156.3V168.9z"/>
	<path class="st0" d="M356.3,152.8v-15.5h-39.1v136.5h39.1v-63.7c0-21.1,13.1-34.8,36.9-34.8h5.9v-40.1h-5.9
		C378.5,135.2,365.9,141.6,356.3,152.8z"/>
	<path class="st0" d="M517.1,151c-10.4-10.7-24.6-16.9-41.2-16.9c-37.5,0-65.8,30.8-65.8,71.5c0,40.7,28.4,71.5,65.8,71.5
		c16.6,0,30.8-6.2,41.2-16.9v13.7h39.1V137.3h-39.1V151z M483.7,239.3c-19,0-33.2-14.5-33.2-33.7s14.2-33.7,33.2-33.7
		c19.3,0,33.5,14.5,33.5,33.7S503,239.3,483.7,239.3z"/>
	<path class="st0" d="M667.6,134.1c-16.6,0-30.8,6.2-41.2,16.9v-13.7h-39.1v187.4h39.1v-64.5c10.4,10.7,24.6,16.9,41.2,16.9
		c37.7,0,65.8-30.8,65.8-71.5C733.4,164.9,705.3,134.1,667.6,134.1z M659.8,239.3c-19.3,0-33.5-14.5-33.5-33.7s14.2-33.7,33.5-33.7
		c19.3,0,33.5,14.5,33.5,33.7S679.1,239.3,659.8,239.3z"/>
	<path class="st0" d="M837.5,134.1c-16.9,0-30.8,6.2-41.5,17.7V81.1H757v192.7H796v-74.1c0-16.9,11.5-27.8,28.4-27.8
		c15.8,0,26.2,10.7,26.2,27.3v74.7h39.1V186C889.7,154.7,868.8,134.1,837.5,134.1z"/>
	<rect x="918.4" y="137.3" class="st0" width="39.1" height="136.5"/>
	<path class="st0" d="M937.9,72c-13.7,0-24.1,10.2-24.1,23.8c0,13.9,10.4,24.1,24.1,24.1c13.9,0,24.4-10.2,24.4-24.1
		C962.3,82.2,951.8,72,937.9,72z"/>
	<polygon class="st0" points="1031.1,89.1 989.6,89.1 989.6,273.8 1108.1,273.8 1108.1,234.7 1031.1,234.7 	"/>
	<path class="st0" d="M1191.1,134.1c-41.5,0-72.8,30.5-72.8,70.7c0,41.2,32.7,72.3,76,72.3c25.2,0,47.1-10.2,61.6-26.5l-26.2-22.8
		c-6.4,8-18.7,15.3-34.3,15.3c-17.1,0-30.2-9.4-35.1-24.6H1262c0.5-3.5,0.8-8.6,0.8-12.3C1262.8,164.6,1232.1,134.1,1191.1,134.1z
		 M1160.1,192.5c4-15,15.8-24.6,30.5-24.6s26.5,9.4,30.8,24.6H1160.1z"/>
	<path class="st0" d="M1384.9,151c-10.4-10.7-24.6-16.9-41.2-16.9c-37.5,0-65.8,30.8-65.8,71.5c0,40.7,28.4,71.5,65.8,71.5
		c16.6,0,30.8-6.2,41.2-16.9v13.7h39.1V137.3h-39.1V151z M1351.4,239.3c-19,0-33.2-14.5-33.2-33.7s14.2-33.7,33.2-33.7
		c19.3,0,33.5,14.5,33.5,33.7S1370.7,239.3,1351.4,239.3z"/>
	<path class="st0" d="M1523.8,113.5c6.4,0,12,1.6,17.1,4.8V83.8c-7.8-4-15.8-5.9-26-5.9c-33.5,0-48.2,20.3-48.2,49.2v10.2h-20.6
		v35.6h20.6v100.9h39.1V172.9h32.4v-35.6h-32.4v-7.5C1505.9,119.4,1511.8,113.5,1523.8,113.5z"/>
</g>
</svg>
