<?xml version="1.0" encoding="utf-8"?>
<!-- Generator: Adobe Illustrator 27.9.0, SVG Export Plug-In . SVG Version: 6.00 Build 0)  -->
<svg version="1.1" id="Calque_1" xmlns="http://www.w3.org/2000/svg" xmlns:xlink="http://www.w3.org/1999/xlink" x="0px" y="0px"
	 viewBox="0 0 1000 1000" style="enable-background:new 0 0 1000 1000;" xml:space="preserve">
<style type="text/css">
	.st0{fill:#FBFAF3;}
	.st1{fill-rule:evenodd;clip-rule:evenodd;fill:#FBFAF3;}
</style>
<path class="st0" d="M1000,189.86c-36.78,16.29-76.28,27.3-117.81,32.28c42.37-25.37,74.87-65.62,90.2-113.54
	c-39.64,23.52-83.55,40.61-130.27,49.77c-37.44-39.81-90.73-64.74-149.74-64.74c-113.27,0-205.14,91.87-205.14,205.23
	c0.01,15.71,1.78,31.37,5.28,46.69c-170.57-8.59-321.68-90.29-422.88-214.39c-17.61,30.39-27.75,65.62-27.75,103.14
	c0,71.17,36.25,134.02,91.25,170.79c-32.58-1.04-64.44-9.84-92.93-25.68v2.64c0,99.4,70.69,182.33,164.58,201.18
	c-17.62,4.75-35.79,7.15-54.04,7.13c-12.96,0.01-25.89-1.2-38.62-3.61C138.25,668.24,214,727.6,303.8,729.19
	c-70.25,55.05-158.73,87.86-254.82,87.86c-16.56,0-32.9-0.97-48.97-2.86c90.81,58.27,198.63,92.18,314.45,92.18
	c377.43,0,583.77-312.6,583.77-583.72c0-8.81-0.22-17.7-0.62-26.51c40.08-28.98,74.87-65.05,102.31-106.14L1000,189.86z"/>
</svg>
