<?xml version="1.0" standalone="no"?>
<!DOCTYPE svg PUBLIC "-//W3C//DTD SVG 20010904//EN"
 "http://www.w3.org/TR/2001/REC-SVG-20010904/DTD/svg10.dtd">
<svg version="1.0" xmlns="http://www.w3.org/2000/svg"
 width="1000.000000pt" height="1000.000000pt" viewBox="0 0 1000.000000 1000.000000"
 preserveAspectRatio="xMidYMid meet">
<metadata>
Created by potrace 1.14, written by Peter Selinger 2001-2017
</metadata>
<g transform="translate(0.000000,1000.000000) scale(0.100000,-0.100000)"
fill="#000000" stroke="none">
<path d="M4710 9984 c-556 -39 -1063 -152 -1560 -347 -201 -80 -575 -268 -767
-386 -914 -566 -1621 -1404 -2021 -2396 -180 -448 -287 -891 -338 -1405 -20
-201 -23 -673 -5 -870 95 -1055 476 -1984 1145 -2795 125 -151 475 -502 626
-627 666 -552 1407 -907 2240 -1072 335 -67 462 -79 894 -84 406 -4 534 2 791
39 1283 183 2435 853 3242 1886 107 137 311 443 396 593 342 608 538 1214 624
1935 25 214 25 854 0 1070 -74 626 -220 1129 -487 1670 -158 322 -287 532
-501 815 -686 909 -1677 1562 -2783 1835 -210 52 -466 97 -686 120 -147 16
-675 28 -810 19z m482 -2245 c532 -37 1027 -216 1440 -522 109 -80 288 -236
288 -250 -1 -7 -183 -196 -405 -422 l-404 -410 -38 37 c-76 73 -231 180 -344
237 -193 98 -394 154 -606 170 -344 26 -685 -66 -988 -266 -140 -93 -337 -291
-433 -436 -234 -352 -319 -767 -237 -1160 33 -155 77 -279 175 -487 68 -145
90 -236 90 -373 0 -374 -247 -807 -676 -1189 -60 -53 -122 -108 -139 -123
l-30 -27 50 28 c92 51 250 161 360 251 153 125 300 275 500 508 306 357 342
377 521 294 395 -183 784 -211 1174 -87 397 127 736 417 925 792 30 60 55 113
55 118 0 4 -328 8 -730 8 l-730 0 0 580 0 580 1371 0 1372 0 -6 -402 c-6 -416
-15 -524 -58 -733 -105 -511 -351 -971 -719 -1349 -323 -332 -676 -553 -1110
-696 -624 -207 -1339 -175 -1932 85 l-98 43 -97 -43 c-344 -151 -917 -322
-1586 -474 -99 -23 -184 -41 -189 -41 -6 0 54 66 133 148 252 258 421 484 535
717 93 191 117 279 118 440 1 117 -2 137 -25 202 -15 39 -58 118 -96 175 -92
136 -133 212 -187 344 -199 487 -220 1219 -51 1785 64 213 171 451 288 642
205 333 503 642 830 858 442 293 915 439 1479 457 31 1 125 -3 210 -9z"/>
</g>
</svg>
