<svg width="164" height="76" viewBox="0 0 164 76" fill="none" xmlns="http://www.w3.org/2000/svg">
<circle cx="156.69" cy="7.31008" r="7.31008" transform="rotate(90 156.69 7.31008)" fill="#018EBB"/>
<circle cx="126.814" cy="7.31008" r="7.31008" transform="rotate(90 126.814 7.31008)" fill="#018EBB"/>
<circle cx="96.938" cy="7.31008" r="7.31008" transform="rotate(90 96.938 7.31008)" fill="#018EBB"/>
<circle cx="67.062" cy="7.31008" r="7.31008" transform="rotate(90 67.062 7.31008)" fill="#018EBB"/>
<circle cx="37.186" cy="7.31008" r="7.31008" transform="rotate(90 37.186 7.31008)" fill="#018EBB"/>
<circle cx="7.31004" cy="7.31008" r="7.31008" transform="rotate(90 7.31004 7.31008)" fill="#018EBB"/>
<circle cx="156.69" cy="37.8217" r="7.31008" transform="rotate(90 156.69 37.8217)" fill="#018EBB"/>
<circle cx="126.814" cy="37.8217" r="7.31008" transform="rotate(90 126.814 37.8217)" fill="#018EBB"/>
<circle cx="96.938" cy="37.8217" r="7.31008" transform="rotate(90 96.938 37.8217)" fill="#018EBB"/>
<circle cx="67.062" cy="37.8217" r="7.31008" transform="rotate(90 67.062 37.8217)" fill="#018EBB"/>
<circle cx="37.186" cy="37.8217" r="7.31008" transform="rotate(90 37.186 37.8217)" fill="#018EBB"/>
<circle cx="7.31004" cy="37.8217" r="7.31008" transform="rotate(90 7.31004 37.8217)" fill="#018EBB"/>
<circle cx="156.69" cy="68.3333" r="7.31008" transform="rotate(90 156.69 68.3333)" fill="#018EBB"/>
<circle cx="126.814" cy="68.3333" r="7.31008" transform="rotate(90 126.814 68.3333)" fill="#018EBB"/>
<circle cx="96.938" cy="68.3333" r="7.31008" transform="rotate(90 96.938 68.3333)" fill="#018EBB"/>
<circle cx="67.062" cy="68.3333" r="7.31008" transform="rotate(90 67.062 68.3333)" fill="#018EBB"/>
<circle cx="37.186" cy="68.3333" r="7.31008" transform="rotate(90 37.186 68.3333)" fill="#018EBB"/>
<circle cx="7.31004" cy="68.3333" r="7.31008" transform="rotate(90 7.31004 68.3333)" fill="#018EBB"/>
</svg>
