<?xml version="1.0" encoding="utf-8"?>
<!-- Generator: Adobe Illustrator 27.8.1, SVG Export Plug-In . SVG Version: 6.00 Build 0)  -->
<svg version="1.1" id="Calque_1" xmlns="http://www.w3.org/2000/svg" xmlns:xlink="http://www.w3.org/1999/xlink" x="0px" y="0px"
	 viewBox="0 0 1920 1080" style="enable-background:new 0 0 1920 1080;" xml:space="preserve">
<style type="text/css">
	.st0{fill:#E9E8E3;}
	.st1{fill:#018EBB;}
	.st2{enable-background:new    ;}
	.st3{fill:#FAF9F2;}
	.st4{fill:#000018;}
	.st5{opacity:7.000000e-02;enable-background:new    ;}
	.st6{fill:none;stroke:#000018;stroke-width:6;stroke-linecap:round;stroke-miterlimit:10;}
</style>
<g>
	<g>
		<g>
			<path class="st0" d="M405.1,777.1C485,905.3,687.9,895.7,712.7,894.5c154.9-7.4,172-92.5,362.4-123.7
				c158.2-25.9,199.4,24.3,288-25c87.9-49,164.4-163.6,145.6-281.7c-24.1-151.4-195.1-246.9-319.3-231.6
				c-133.8,16.4-142.6,152.6-288.8,180.8c-154.1,29.7-221.8-106.8-340.4-68.1C423.8,389.6,316.1,634.1,405.1,777.1z"/>
		</g>
	</g>
	<g>
		<g>
			<g>
				<circle class="st1" cx="361.9" cy="346.9" r="8"/>
			</g>
		</g>
		<g>
			<g>
				<circle class="st1" cx="361.9" cy="385.5" r="8"/>
			</g>
		</g>
		<g>
			<g>
				<circle class="st1" cx="361.9" cy="269.6" r="8"/>
			</g>
		</g>
		<g>
			<g>
				<circle class="st1" cx="361.9" cy="308.2" r="8"/>
			</g>
		</g>
		<g>
			<g>
				<circle class="st1" cx="361.9" cy="231" r="8"/>
			</g>
		</g>
		<g>
			<g>
				<circle class="st1" cx="323.3" cy="346.9" r="8"/>
			</g>
		</g>
		<g>
			<g>
				<circle class="st1" cx="323.3" cy="385.5" r="8"/>
			</g>
		</g>
		<g>
			<g>
				<circle class="st1" cx="323.3" cy="269.6" r="8"/>
			</g>
		</g>
		<g>
			<g>
				<circle class="st1" cx="323.3" cy="308.2" r="8"/>
			</g>
		</g>
		<g>
			<g>
				<circle class="st1" cx="323.3" cy="231" r="8"/>
			</g>
		</g>
		<g>
			<g>
				<circle class="st1" cx="284.7" cy="346.9" r="8"/>
			</g>
		</g>
		<g>
			<g>
				<circle class="st1" cx="284.7" cy="385.5" r="8"/>
			</g>
		</g>
		<g>
			<g>
				<circle class="st1" cx="284.7" cy="269.6" r="8"/>
			</g>
		</g>
		<g>
			<g>
				<circle class="st1" cx="284.7" cy="308.2" r="8"/>
			</g>
		</g>
		<g>
			<g>
				<circle class="st1" cx="284.7" cy="231" r="8"/>
			</g>
		</g>
		<g>
			<g>
				<circle class="st1" cx="361.9" cy="192.4" r="8"/>
			</g>
		</g>
		<g>
			<g>
				<circle class="st1" cx="323.3" cy="192.4" r="8"/>
			</g>
		</g>
		<g>
			<g>
				<circle class="st1" cx="284.7" cy="192.4" r="8"/>
			</g>
		</g>
	</g>
	<g>
		<g>
			<g>
				<circle class="st0" cx="1463.7" cy="328.9" r="10.2"/>
			</g>
		</g>
		<g>
			<g>
				<circle class="st0" cx="1414.7" cy="328.9" r="10.2"/>
			</g>
		</g>
		<g>
			<g>
				<circle class="st0" cx="1561.5" cy="328.9" r="10.2"/>
			</g>
		</g>
		<g>
			<g>
				<circle class="st0" cx="1512.6" cy="328.9" r="10.2"/>
			</g>
		</g>
		<g>
			<g>
				<circle class="st0" cx="1610.5" cy="328.9" r="10.2"/>
			</g>
		</g>
		<g>
			<g>
				<circle class="st0" cx="1463.7" cy="279.9" r="10.2"/>
			</g>
		</g>
		<g>
			<g>
				<circle class="st0" cx="1414.7" cy="279.9" r="10.2"/>
			</g>
		</g>
		<g>
			<g>
				<circle class="st0" cx="1561.5" cy="279.9" r="10.2"/>
			</g>
		</g>
		<g>
			<g>
				<circle class="st0" cx="1512.6" cy="279.9" r="10.2"/>
			</g>
		</g>
		<g>
			<g>
				<circle class="st0" cx="1610.5" cy="279.9" r="10.2"/>
			</g>
		</g>
		<g>
			<g>
				<circle class="st0" cx="1463.7" cy="231" r="10.2"/>
			</g>
		</g>
		<g>
			<g>
				<circle class="st0" cx="1414.7" cy="231" r="10.2"/>
			</g>
		</g>
		<g>
			<g>
				<circle class="st0" cx="1561.5" cy="231" r="10.2"/>
			</g>
		</g>
		<g>
			<g>
				<circle class="st0" cx="1512.6" cy="231" r="10.2"/>
			</g>
		</g>
		<g>
			<g>
				<circle class="st0" cx="1610.5" cy="231" r="10.2"/>
			</g>
		</g>
		<g>
			<g>
				<circle class="st0" cx="1659.4" cy="328.9" r="10.2"/>
			</g>
		</g>
		<g>
			<g>
				<circle class="st0" cx="1659.4" cy="279.9" r="10.2"/>
			</g>
		</g>
		<g>
			<g>
				<circle class="st0" cx="1659.4" cy="231" r="10.2"/>
			</g>
		</g>
	</g>
	<g>
		<g class="st2">
			<g>
				<path d="M968,323.6c0-35.6,27.5-62.6,64-62.6c22.8,0,42.1,10.5,53.5,27.2l-23.5,14.6c-6.5-9.5-17.4-15.6-30-15.6
					c-20.5,0-36.1,15.6-36.1,36.5s15.6,36.5,36.1,36.5c12.6,0,23.5-6.1,30-15.6l23.5,14.6c-11.4,16.7-30.7,27.2-53.5,27.2
					C995.6,386.2,968,359.2,968,323.6z"/>
			</g>
			<g>
				<path d="M1092.3,339.4c0-26.7,20.7-46.9,48.3-46.9s48.3,20.2,48.3,46.9c0,26.7-20.7,46.9-48.3,46.9S1092.3,366.1,1092.3,339.4z
					 M1162.4,339.4c0-12.6-9.3-22.1-21.9-22.1c-12.6,0-21.9,9.5-21.9,22.1c0,12.6,9.3,22.1,21.9,22.1
					C1153.1,361.5,1162.4,352,1162.4,339.4z"/>
			</g>
			<g>
				<path d="M1345.3,325.7v58.4h-25.6v-50.7c0-9.7-6.1-16.1-15.6-16.1c-9.8,0-16.7,6.7-16.7,16.5v50.4h-25.6v-50.7
					c0-9.7-6.1-16.1-15.6-16.1c-9.8,0-16.7,6.7-16.7,16.5v50.4h-25.6v-89.5h25.6v8.6c6.5-7,15.1-10.7,25.4-10.7
					c12.1,0,21.8,5.1,27.4,13.9c7.2-9.1,17.4-13.9,29.8-13.9C1332.3,292.5,1345.3,305.7,1345.3,325.7z"/>
			</g>
			<g>
				<path d="M1361.1,267.4c0-8.9,6.8-15.6,15.8-15.6c9.1,0,16,6.7,16,15.6c0,9.1-6.8,15.8-16,15.8
					C1367.9,283.2,1361.1,276.6,1361.1,267.4z M1364.1,294.6h25.6v89.5h-25.6V294.6z"/>
			</g>
			<g>
				<path d="M1497.1,326.6v57.6h-25.6v-49c0-10.9-6.8-17.9-17.4-17.9c-10.9,0-18.4,7.2-18.4,18.2v48.6H1410v-89.5h25.6v8.9
					c7-7.2,16.1-11.1,27.2-11.1C1483.4,292.5,1497.1,306,1497.1,326.6z"/>
			</g>
			<g>
				<path d="M1607.1,410.5l-26.3,7.2c-0.7-5.8-5.6-9.7-12.8-9.7h-27.9c-17.4,0-28.8-10-28.8-24.9c0-9.5,4.7-18.6,12.3-23.2
					c-7.4-7-11.8-16.8-11.8-27.9c0-22.6,18.1-39.5,42.3-39.5c6.8,0,13.2,1.4,18.8,3.7c2.6-9.7,11.6-15.8,23.9-15.8h7.5v23.7h-6.3
					c-4.2,0-7.5,2.1-8.4,5.4c4.4,6.3,7,13.9,7,22.5c0,22.6-18.2,39.5-42.5,39.5c-4.6,0-8.9-0.5-13.2-1.8c-2.6,1.8-4,4.2-4,6.8
					c0,4,3.3,6.7,8.1,6.7h27.9C1591,383.3,1603.8,393.3,1607.1,410.5z M1538.1,332c0,8.8,6.8,15.3,16,15.3c9.1,0,16.1-6.5,16.1-15.3
					c0-8.8-7-15.3-16.1-15.3C1544.8,316.8,1538.1,323.2,1538.1,332z"/>
			</g>
		</g>
		<g class="st2">
			<g>
				<path d="M965.7,518.7l11.9-16.5c6.8,5.8,15.3,9.7,25.6,9.7c8.4,0,14.2-2.5,14.2-7.2c0-5.1-6.8-6.8-16-8.9
					c-14.2-3.2-33-7.4-33-28.4c0-19.3,16.8-28.8,37.2-28.8c15.8,0,27.2,5.6,35.6,11.8l-11.9,16.5c-6.7-4.6-14-7.9-22.8-7.9
					c-6.8,0-12.5,1.9-12.5,6.5c0,5.1,6.8,6.7,16,8.6c14,3,33,7.4,33,28.3c0,19.7-17.2,30-39,30C987.1,532.2,974.5,525.9,965.7,518.7
					z"/>
			</g>
			<g>
				<path d="M1051.7,485.4c0-26.7,20.7-46.9,48.3-46.9c27.5,0,48.3,20.2,48.3,46.9c0,26.7-20.7,46.9-48.3,46.9
					C1072.4,532.2,1051.7,512.1,1051.7,485.4z M1121.9,485.4c0-12.6-9.3-22.1-21.9-22.1c-12.6,0-21.9,9.5-21.9,22.1
					c0,12.6,9.3,22.1,21.9,22.1C1112.6,507.5,1121.9,498,1121.9,485.4z"/>
			</g>
			<g>
				<path d="M1158.1,485.4c0-26.7,20.7-46.9,48.3-46.9s48.3,20.2,48.3,46.9c0,26.7-20.7,46.9-48.3,46.9S1158.1,512.1,1158.1,485.4z
					 M1228.2,485.4c0-12.6-9.3-22.1-21.9-22.1c-12.6,0-21.9,9.5-21.9,22.1c0,12.6,9.3,22.1,21.9,22.1
					C1218.9,507.5,1228.2,498,1228.2,485.4z"/>
			</g>
			<g>
				<path d="M1356.7,472.6v57.6h-25.6v-49c0-10.9-6.8-17.9-17.4-17.9c-10.9,0-18.4,7.2-18.4,18.2v48.6h-25.6v-89.5h25.6v8.9
					c7-7.2,16.1-11.1,27.2-11.1C1343,438.5,1356.7,452,1356.7,472.6z"/>
			</g>
		</g>
		<g>
			<g>
				<rect x="965.7" y="546.8" class="st1" width="391.1" height="11"/>
			</g>
		</g>
	</g>
	<g>
		<g>
			<g>
				<g>
					<g>
						<path class="st3" d="M331.9,589.9V261.6c0-5.1,4.2-9.3,9.3-9.3h546.9c5.1,0,9.3,4.2,9.3,9.3v328.3H331.9z"/>
					</g>
				</g>
				<g>
					<g>
						<path class="st4" d="M888.1,260.9c0.4,0,0.7,0.3,0.7,0.7v319.7H340.4V261.6c0-0.4,0.3-0.7,0.7-0.7H888.1 M888.1,243.7H341.1
							c-9.9,0-17.9,8-17.9,17.8v336.9h582.6V261.6C905.9,251.7,897.9,243.7,888.1,243.7L888.1,243.7z"/>
					</g>
				</g>
			</g>
			<g>
				<g>
					<g>
						<path class="st4" d="M905.9,598.4H323.3L252.2,744c-5.7,11.7,2.8,25.3,15.8,25.3h693.2c13,0,21.5-13.6,15.8-25.3L905.9,598.4z
							"/>
					</g>
				</g>
			</g>
			<g>
				<g>
					<g>
						<path class="st3" d="M679.9,751.4H549.4c-3.7,0-6.5-3.2-6.2-6.9l4.2-38.6c0.3-3.1,3-5.5,6.2-5.5h122c3.2,0,5.8,2.4,6.2,5.5
							l4.2,38.6C686.4,748.2,683.5,751.4,679.9,751.4z"/>
					</g>
				</g>
			</g>
			<g class="st5">
				<g>
					<path class="st4" d="M355.8,243.7l550.2,354.7V294.9c0-28.2-22.9-51.1-51.1-51.1L355.8,243.7L355.8,243.7z"/>
				</g>
			</g>
		</g>
		<g>
			<g class="st2">
				<g>
					<path class="st1" d="M429.9,450.5c0.3-0.6,0.8-1.1,1.3-1.4c0.6-0.3,1.2-0.5,1.9-0.5c0.7,0,1.3,0.1,1.8,0.4s0.9,0.7,1.1,1.1
						v-1.4h1.3v7.8H436v-1.4c-0.3,0.5-0.6,0.8-1.1,1.1c-0.5,0.3-1.1,0.4-1.8,0.4c-0.7,0-1.3-0.2-1.9-0.5s-1-0.8-1.3-1.4
						c-0.3-0.6-0.5-1.3-0.5-2.1C429.4,451.8,429.6,451.1,429.9,450.5z M435.6,451.1c-0.2-0.4-0.6-0.8-1-1c-0.4-0.2-0.8-0.3-1.3-0.3
						s-0.9,0.1-1.3,0.3s-0.7,0.6-0.9,1s-0.4,0.9-0.4,1.5c0,0.6,0.1,1.1,0.4,1.6c0.2,0.4,0.6,0.8,0.9,1s0.8,0.3,1.3,0.3
						s0.9-0.1,1.3-0.3s0.7-0.6,1-1c0.2-0.4,0.4-1,0.4-1.5S435.8,451.5,435.6,451.1z"/>
				</g>
				<g>
					<path class="st1" d="M445.4,449c0.5,0.3,0.9,0.7,1.1,1.1v-1.4h1.3v7.9c0,0.7-0.2,1.3-0.5,1.9c-0.3,0.6-0.7,1-1.3,1.3
						c-0.6,0.3-1.2,0.5-2,0.5c-1,0-1.9-0.2-2.6-0.7c-0.7-0.5-1.1-1.1-1.2-2h1.3c0.1,0.5,0.4,0.9,0.9,1.1c0.4,0.3,1,0.4,1.6,0.4
						c0.7,0,1.3-0.2,1.7-0.7s0.7-1.1,0.7-1.9V455c-0.3,0.5-0.6,0.8-1.1,1.1c-0.5,0.3-1.1,0.5-1.8,0.5c-0.7,0-1.3-0.2-1.9-0.5
						c-0.6-0.3-1-0.8-1.3-1.4c-0.3-0.6-0.5-1.3-0.5-2.1c0-0.8,0.2-1.5,0.5-2.1c0.3-0.6,0.8-1.1,1.3-1.4c0.6-0.3,1.2-0.5,1.9-0.5
						C444.3,448.6,444.9,448.8,445.4,449z M446.2,451.1c-0.2-0.4-0.6-0.8-1-1c-0.4-0.2-0.8-0.3-1.3-0.3s-0.9,0.1-1.3,0.3
						s-0.7,0.6-0.9,1s-0.4,0.9-0.4,1.5c0,0.6,0.1,1.1,0.4,1.6c0.2,0.4,0.6,0.8,0.9,1s0.8,0.3,1.3,0.3s0.9-0.1,1.3-0.3s0.7-0.6,1-1
						c0.2-0.4,0.4-1,0.4-1.5S446.4,451.5,446.2,451.1z"/>
				</g>
				<g>
					<path class="st1" d="M458.1,453.1h-6.2c0,0.8,0.3,1.4,0.8,1.8s1.1,0.6,1.7,0.6c0.6,0,1-0.1,1.4-0.4s0.6-0.6,0.8-1h1.4
						c-0.2,0.7-0.6,1.4-1.2,1.8c-0.6,0.5-1.4,0.7-2.3,0.7c-0.7,0-1.4-0.2-2-0.5c-0.6-0.3-1-0.8-1.4-1.4c-0.3-0.6-0.5-1.3-0.5-2.1
						s0.2-1.5,0.5-2.1c0.3-0.6,0.8-1.1,1.4-1.4s1.2-0.5,2-0.5c0.7,0,1.4,0.2,2,0.5s1,0.8,1.3,1.3c0.3,0.6,0.5,1.2,0.5,1.9
						C458.1,452.6,458.1,452.8,458.1,453.1z M456.4,450.8c-0.2-0.4-0.5-0.6-0.9-0.8c-0.4-0.2-0.8-0.3-1.2-0.3
						c-0.7,0-1.2,0.2-1.7,0.6c-0.5,0.4-0.7,1-0.8,1.7h4.9C456.8,451.6,456.7,451.1,456.4,450.8z"/>
				</g>
				<g>
					<path class="st1" d="M466.9,449.4c0.6,0.6,0.9,1.4,0.9,2.5v4.6h-1.3v-4.4c0-0.8-0.2-1.4-0.6-1.8c-0.4-0.4-0.9-0.6-1.6-0.6
						c-0.7,0-1.2,0.2-1.6,0.6c-0.4,0.4-0.6,1-0.6,1.9v4.3h-1.3v-7.8h1.3v1.1c0.3-0.4,0.6-0.7,1-0.9c0.4-0.2,0.9-0.3,1.5-0.3
						C465.5,448.6,466.3,448.9,466.9,449.4z"/>
				</g>
				<g>
					<path class="st1" d="M470.9,450.5c0.3-0.6,0.8-1.1,1.3-1.4c0.6-0.3,1.2-0.5,2-0.5c1,0,1.7,0.2,2.4,0.7c0.6,0.5,1,1.1,1.2,1.9
						h-1.4c-0.1-0.5-0.4-0.8-0.8-1.1c-0.4-0.3-0.9-0.4-1.4-0.4c-0.7,0-1.3,0.3-1.8,0.8c-0.5,0.5-0.7,1.2-0.7,2.1
						c0,0.9,0.2,1.7,0.7,2.2c0.5,0.5,1,0.8,1.8,0.8c0.6,0,1-0.1,1.4-0.4c0.4-0.3,0.6-0.6,0.8-1.1h1.4c-0.2,0.8-0.6,1.4-1.2,1.9
						c-0.6,0.5-1.4,0.7-2.3,0.7c-0.7,0-1.4-0.2-2-0.5c-0.6-0.3-1-0.8-1.3-1.4s-0.5-1.3-0.5-2.1C470.4,451.8,470.5,451.1,470.9,450.5
						z"/>
				</g>
				<g>
					<path class="st1" d="M487.5,453.1h-6.2c0,0.8,0.3,1.4,0.8,1.8s1.1,0.6,1.7,0.6c0.6,0,1-0.1,1.4-0.4s0.6-0.6,0.8-1h1.4
						c-0.2,0.7-0.6,1.4-1.2,1.8c-0.6,0.5-1.4,0.7-2.3,0.7c-0.7,0-1.4-0.2-2-0.5c-0.6-0.3-1-0.8-1.4-1.4c-0.3-0.6-0.5-1.3-0.5-2.1
						s0.2-1.5,0.5-2.1c0.3-0.6,0.8-1.1,1.4-1.4s1.2-0.5,2-0.5c0.7,0,1.4,0.2,2,0.5s1,0.8,1.3,1.3c0.3,0.6,0.5,1.2,0.5,1.9
						C487.5,452.6,487.5,452.8,487.5,453.1z M485.9,450.8c-0.2-0.4-0.5-0.6-0.9-0.8c-0.4-0.2-0.8-0.3-1.2-0.3
						c-0.7,0-1.2,0.2-1.7,0.6c-0.5,0.4-0.7,1-0.8,1.7h4.9C486.2,451.6,486.1,451.1,485.9,450.8z"/>
				</g>
				<g>
					<path class="st1" d="M495,450.5c0.3-0.6,0.8-1.1,1.3-1.4c0.6-0.3,1.2-0.5,1.9-0.5c0.6,0,1.2,0.1,1.7,0.4
						c0.5,0.3,0.9,0.6,1.2,1.1V446h1.3v10.5h-1.3V455c-0.3,0.5-0.6,0.8-1.1,1.1c-0.5,0.3-1.1,0.4-1.8,0.4c-0.7,0-1.3-0.2-1.9-0.5
						c-0.6-0.3-1-0.8-1.3-1.4c-0.3-0.6-0.5-1.3-0.5-2.1C494.5,451.8,494.7,451.1,495,450.5z M500.7,451.1c-0.2-0.4-0.6-0.8-1-1
						c-0.4-0.2-0.8-0.3-1.3-0.3s-0.9,0.1-1.3,0.3s-0.7,0.6-0.9,1s-0.4,0.9-0.4,1.5c0,0.6,0.1,1.1,0.4,1.6c0.2,0.4,0.6,0.8,0.9,1
						s0.8,0.3,1.3,0.3s0.9-0.1,1.3-0.3s0.7-0.6,1-1c0.2-0.4,0.4-1,0.4-1.5S501,451.5,500.7,451.1z"/>
				</g>
				<g>
					<path class="st1" d="M512.6,453.1h-6.2c0,0.8,0.3,1.4,0.8,1.8s1.1,0.6,1.7,0.6c0.6,0,1-0.1,1.4-0.4s0.6-0.6,0.8-1h1.4
						c-0.2,0.7-0.6,1.4-1.2,1.8c-0.6,0.5-1.4,0.7-2.3,0.7c-0.7,0-1.4-0.2-2-0.5c-0.6-0.3-1-0.8-1.4-1.4c-0.3-0.6-0.5-1.3-0.5-2.1
						s0.2-1.5,0.5-2.1c0.3-0.6,0.8-1.1,1.4-1.4s1.2-0.5,2-0.5c0.7,0,1.4,0.2,2,0.5s1,0.8,1.3,1.3c0.3,0.6,0.5,1.2,0.5,1.9
						C512.7,452.6,512.7,452.8,512.6,453.1z M511,450.8c-0.2-0.4-0.5-0.6-0.9-0.8c-0.4-0.2-0.8-0.3-1.2-0.3c-0.7,0-1.2,0.2-1.7,0.6
						c-0.5,0.4-0.7,1-0.8,1.7h4.9C511.3,451.6,511.2,451.1,511,450.8z"/>
				</g>
				<g>
					<path class="st1" d="M520.1,450.5c0.3-0.6,0.8-1.1,1.3-1.4c0.6-0.3,1.2-0.5,2-0.5c1,0,1.7,0.2,2.4,0.7c0.6,0.5,1,1.1,1.2,1.9
						h-1.4c-0.1-0.5-0.4-0.8-0.8-1.1c-0.4-0.3-0.9-0.4-1.4-0.4c-0.7,0-1.3,0.3-1.8,0.8c-0.5,0.5-0.7,1.2-0.7,2.1
						c0,0.9,0.2,1.7,0.7,2.2c0.5,0.5,1,0.8,1.8,0.8c0.6,0,1-0.1,1.4-0.4c0.4-0.3,0.6-0.6,0.8-1.1h1.4c-0.2,0.8-0.6,1.4-1.2,1.9
						c-0.6,0.5-1.4,0.7-2.3,0.7c-0.7,0-1.4-0.2-2-0.5c-0.6-0.3-1-0.8-1.3-1.4s-0.5-1.3-0.5-2.1C519.7,451.8,519.8,451.1,520.1,450.5
						z"/>
				</g>
				<g>
					<path class="st1" d="M531.1,456.1c-0.6-0.3-1.1-0.8-1.4-1.4c-0.3-0.6-0.5-1.3-0.5-2.1c0-0.8,0.2-1.5,0.5-2.1
						c0.3-0.6,0.8-1.1,1.4-1.4s1.3-0.5,2-0.5c0.7,0,1.4,0.2,2,0.5s1.1,0.8,1.4,1.4c0.3,0.6,0.5,1.3,0.5,2.1s-0.2,1.5-0.5,2.1
						s-0.8,1.1-1.4,1.4c-0.6,0.3-1.3,0.5-2,0.5C532.4,456.6,531.7,456.5,531.1,456.1z M534.4,455.2c0.4-0.2,0.7-0.5,1-1
						c0.2-0.4,0.4-1,0.4-1.6s-0.1-1.2-0.4-1.6c-0.2-0.4-0.6-0.8-1-1c-0.4-0.2-0.8-0.3-1.3-0.3c-0.5,0-0.9,0.1-1.3,0.3
						c-0.4,0.2-0.7,0.5-0.9,1c-0.2,0.4-0.4,1-0.4,1.6c0,0.6,0.1,1.2,0.3,1.6c0.2,0.4,0.5,0.8,0.9,1c0.4,0.2,0.8,0.3,1.3,0.3
						S534,455.4,534.4,455.2z"/>
				</g>
				<g>
					<path class="st1" d="M550.8,449c0.5,0.3,0.8,0.6,1.1,1.1s0.4,1.1,0.4,1.8v4.6H551v-4.4c0-0.8-0.2-1.4-0.6-1.8
						c-0.4-0.4-0.9-0.6-1.6-0.6c-0.7,0-1.2,0.2-1.6,0.6c-0.4,0.4-0.6,1.1-0.6,1.9v4.3h-1.3v-4.4c0-0.8-0.2-1.4-0.6-1.8
						c-0.4-0.4-0.9-0.6-1.6-0.6c-0.7,0-1.2,0.2-1.6,0.6c-0.4,0.4-0.6,1.1-0.6,1.9v4.3h-1.3v-7.8h1.3v1.1c0.3-0.4,0.6-0.7,1-0.9
						c0.4-0.2,0.9-0.3,1.4-0.3c0.7,0,1.2,0.1,1.7,0.4c0.5,0.3,0.9,0.7,1.1,1.3c0.2-0.5,0.6-1,1.1-1.3c0.5-0.3,1.1-0.5,1.7-0.5
						C549.7,448.6,550.3,448.7,550.8,449z"/>
				</g>
				<g>
					<path class="st1" d="M566.3,449c0.5,0.3,0.8,0.6,1.1,1.1c0.3,0.5,0.4,1.1,0.4,1.8v4.6h-1.3v-4.4c0-0.8-0.2-1.4-0.6-1.8
						c-0.4-0.4-0.9-0.6-1.6-0.6c-0.7,0-1.2,0.2-1.6,0.6c-0.4,0.4-0.6,1.1-0.6,1.9v4.3H561v-4.4c0-0.8-0.2-1.4-0.6-1.8
						c-0.4-0.4-0.9-0.6-1.6-0.6c-0.7,0-1.2,0.2-1.6,0.6c-0.4,0.4-0.6,1.1-0.6,1.9v4.3h-1.3v-7.8h1.3v1.1c0.3-0.4,0.6-0.7,1-0.9
						c0.4-0.2,0.9-0.3,1.4-0.3c0.7,0,1.2,0.1,1.7,0.4c0.5,0.3,0.9,0.7,1.1,1.3c0.2-0.5,0.6-1,1.1-1.3c0.5-0.3,1.1-0.5,1.7-0.5
						C565.3,448.6,565.9,448.7,566.3,449z"/>
				</g>
				<g>
					<path class="st1" d="M577.9,448.7v7.8h-1.3v-1.1c-0.2,0.4-0.6,0.7-1,0.9s-0.9,0.3-1.5,0.3c-0.6,0-1.1-0.1-1.6-0.4
						c-0.5-0.3-0.9-0.6-1.1-1.1s-0.4-1.1-0.4-1.8v-4.5h1.3v4.4c0,0.8,0.2,1.4,0.6,1.8s0.9,0.6,1.6,0.6c0.7,0,1.2-0.2,1.6-0.6
						c0.4-0.4,0.6-1,0.6-1.9v-4.3H577.9z"/>
				</g>
				<g>
					<path class="st1" d="M587.1,449.4c0.6,0.6,0.9,1.4,0.9,2.5v4.6h-1.3v-4.4c0-0.8-0.2-1.4-0.6-1.8c-0.4-0.4-0.9-0.6-1.6-0.6
						c-0.7,0-1.2,0.2-1.6,0.6c-0.4,0.4-0.6,1-0.6,1.9v4.3H581v-7.8h1.3v1.1c0.3-0.4,0.6-0.7,1-0.9c0.4-0.2,0.9-0.3,1.5-0.3
						C585.8,448.6,586.5,448.9,587.1,449.4z"/>
				</g>
				<g>
					<path class="st1" d="M591.1,447.2c-0.2-0.2-0.3-0.4-0.3-0.6c0-0.2,0.1-0.5,0.3-0.6s0.4-0.3,0.6-0.3c0.2,0,0.4,0.1,0.6,0.3
						c0.2,0.2,0.2,0.4,0.2,0.6c0,0.2-0.1,0.5-0.2,0.6c-0.2,0.2-0.4,0.3-0.6,0.3C591.5,447.5,591.3,447.4,591.1,447.2z M592.4,448.7
						v7.8h-1.3v-7.8H592.4z"/>
				</g>
				<g>
					<path class="st1" d="M595.6,450.5c0.3-0.6,0.8-1.1,1.3-1.4c0.6-0.3,1.2-0.5,2-0.5c1,0,1.7,0.2,2.4,0.7c0.6,0.5,1,1.1,1.2,1.9
						h-1.4c-0.1-0.5-0.4-0.8-0.8-1.1c-0.4-0.3-0.9-0.4-1.4-0.4c-0.7,0-1.3,0.3-1.8,0.8c-0.5,0.5-0.7,1.2-0.7,2.1
						c0,0.9,0.2,1.7,0.7,2.2c0.5,0.5,1,0.8,1.8,0.8c0.6,0,1-0.1,1.4-0.4s0.6-0.6,0.8-1.1h1.4c-0.2,0.8-0.6,1.4-1.2,1.9
						c-0.6,0.5-1.4,0.7-2.3,0.7c-0.7,0-1.4-0.2-2-0.5c-0.6-0.3-1-0.8-1.3-1.4s-0.5-1.3-0.5-2.1C595.1,451.8,595.3,451.1,595.6,450.5
						z"/>
				</g>
				<g>
					<path class="st1" d="M605.2,450.5c0.3-0.6,0.8-1.1,1.3-1.4c0.6-0.3,1.2-0.5,1.9-0.5c0.7,0,1.3,0.1,1.8,0.4
						c0.5,0.3,0.9,0.7,1.1,1.1v-1.4h1.3v7.8h-1.3v-1.4c-0.3,0.5-0.6,0.8-1.1,1.1c-0.5,0.3-1.1,0.4-1.8,0.4c-0.7,0-1.3-0.2-1.9-0.5
						s-1-0.8-1.3-1.4c-0.3-0.6-0.5-1.3-0.5-2.1C604.7,451.8,604.9,451.1,605.2,450.5z M610.9,451.1c-0.2-0.4-0.6-0.8-1-1
						c-0.4-0.2-0.8-0.3-1.3-0.3c-0.5,0-0.9,0.1-1.3,0.3s-0.7,0.6-0.9,1c-0.2,0.4-0.4,0.9-0.4,1.5c0,0.6,0.1,1.1,0.4,1.6
						c0.2,0.4,0.6,0.8,0.9,1s0.8,0.3,1.3,0.3c0.5,0,0.9-0.1,1.3-0.3c0.4-0.2,0.7-0.6,1-1c0.2-0.4,0.4-1,0.4-1.5
						S611.2,451.5,610.9,451.1z"/>
				</g>
				<g>
					<path class="st1" d="M617.3,449.8v4.6c0,0.4,0.1,0.6,0.2,0.8c0.2,0.2,0.4,0.2,0.8,0.2h1v1.1h-1.2c-0.7,0-1.3-0.2-1.6-0.5
						s-0.5-0.9-0.5-1.6v-4.6h-1v-1.1h1v-2h1.3v2h2v1.1H617.3z"/>
				</g>
				<g>
					<path class="st1" d="M621.9,447.2c-0.2-0.2-0.3-0.4-0.3-0.6c0-0.2,0.1-0.5,0.3-0.6s0.4-0.3,0.6-0.3c0.2,0,0.4,0.1,0.6,0.3
						c0.2,0.2,0.2,0.4,0.2,0.6c0,0.2-0.1,0.5-0.2,0.6c-0.2,0.2-0.4,0.3-0.6,0.3C622.3,447.5,622.1,447.4,621.9,447.2z M623.2,448.7
						v7.8h-1.3v-7.8H623.2z"/>
				</g>
				<g>
					<path class="st1" d="M627.8,456.1c-0.6-0.3-1.1-0.8-1.4-1.4c-0.3-0.6-0.5-1.3-0.5-2.1c0-0.8,0.2-1.5,0.5-2.1
						c0.3-0.6,0.8-1.1,1.4-1.4c0.6-0.3,1.3-0.5,2-0.5s1.4,0.2,2,0.5c0.6,0.3,1.1,0.8,1.4,1.4c0.3,0.6,0.5,1.3,0.5,2.1
						s-0.2,1.5-0.5,2.1s-0.8,1.1-1.4,1.4c-0.6,0.3-1.3,0.5-2,0.5C629,456.6,628.4,456.5,627.8,456.1z M631.1,455.2
						c0.4-0.2,0.7-0.5,1-1c0.2-0.4,0.4-1,0.4-1.6s-0.1-1.2-0.4-1.6c-0.2-0.4-0.6-0.8-1-1c-0.4-0.2-0.8-0.3-1.3-0.3
						c-0.5,0-0.9,0.1-1.3,0.3c-0.4,0.2-0.7,0.5-0.9,1c-0.2,0.4-0.4,1-0.4,1.6c0,0.6,0.1,1.2,0.3,1.6s0.5,0.8,0.9,1s0.8,0.3,1.3,0.3
						S630.7,455.4,631.1,455.2z"/>
				</g>
				<g>
					<path class="st1" d="M642.5,449.4c0.6,0.6,0.9,1.4,0.9,2.5v4.6h-1.3v-4.4c0-0.8-0.2-1.4-0.6-1.8c-0.4-0.4-0.9-0.6-1.6-0.6
						c-0.7,0-1.2,0.2-1.6,0.6c-0.4,0.4-0.6,1-0.6,1.9v4.3h-1.3v-7.8h1.3v1.1c0.3-0.4,0.6-0.7,1-0.9c0.4-0.2,0.9-0.3,1.5-0.3
						C641.2,448.6,641.9,448.9,642.5,449.4z"/>
				</g>
				<g>
					<path class="st1" d="M658.9,456.5l-1.3-1.3c-0.5,0.5-1,0.9-1.5,1.1s-1.2,0.4-1.9,0.4c-0.7,0-1.3-0.1-1.8-0.4
						c-0.5-0.2-0.9-0.6-1.2-1c-0.3-0.5-0.4-1-0.4-1.6c0-0.7,0.2-1.3,0.6-1.8c0.4-0.5,1-0.9,1.7-1.2c-0.3-0.4-0.5-0.7-0.7-1
						c-0.1-0.3-0.2-0.6-0.2-1c0-0.4,0.1-0.8,0.3-1.1c0.2-0.3,0.5-0.6,0.9-0.8c0.4-0.2,0.9-0.3,1.4-0.3c0.5,0,1,0.1,1.3,0.3
						s0.7,0.5,0.9,0.8c0.2,0.4,0.3,0.7,0.3,1.2h-1.3c0-0.4-0.1-0.7-0.3-0.9c-0.2-0.2-0.5-0.3-0.9-0.3c-0.4,0-0.7,0.1-0.9,0.3
						c-0.2,0.2-0.3,0.5-0.3,0.8c0,0.3,0.1,0.6,0.2,0.8c0.2,0.3,0.4,0.6,0.8,1l2.9,3l0.3-0.4l1-1.6h1.4l-1.2,2
						c-0.2,0.3-0.3,0.6-0.6,0.9l2.2,2.2H658.9z M655.6,455.3c0.4-0.2,0.8-0.5,1.2-0.9l-2.9-2.9c-1.2,0.5-1.8,1.2-1.8,2.2
						c0,0.6,0.2,1,0.6,1.4c0.4,0.4,0.9,0.6,1.6,0.6C654.7,455.6,655.1,455.5,655.6,455.3z"/>
				</g>
				<g>
					<path class="st1" d="M667.5,450.5c0.3-0.6,0.8-1.1,1.3-1.4c0.6-0.3,1.2-0.5,1.9-0.5c0.6,0,1.2,0.1,1.7,0.4
						c0.5,0.3,0.9,0.6,1.2,1.1V446h1.3v10.5h-1.3V455c-0.3,0.5-0.6,0.8-1.1,1.1c-0.5,0.3-1.1,0.4-1.8,0.4c-0.7,0-1.3-0.2-1.9-0.5
						c-0.6-0.3-1-0.8-1.3-1.4c-0.3-0.6-0.5-1.3-0.5-2.1C667,451.8,667.2,451.1,667.5,450.5z M673.3,451.1c-0.2-0.4-0.6-0.8-1-1
						c-0.4-0.2-0.8-0.3-1.3-0.3c-0.5,0-0.9,0.1-1.3,0.3s-0.7,0.6-0.9,1c-0.2,0.4-0.4,0.9-0.4,1.5c0,0.6,0.1,1.1,0.4,1.6
						c0.2,0.4,0.6,0.8,0.9,1s0.8,0.3,1.3,0.3c0.5,0,0.9-0.1,1.3-0.3c0.4-0.2,0.7-0.6,1-1c0.2-0.4,0.4-1,0.4-1.5
						S673.5,451.5,673.3,451.1z"/>
				</g>
				<g>
					<path class="st1" d="M685.1,453.1h-6.2c0,0.8,0.3,1.4,0.8,1.8c0.5,0.4,1.1,0.6,1.7,0.6c0.6,0,1-0.1,1.4-0.4
						c0.4-0.3,0.6-0.6,0.8-1h1.4c-0.2,0.7-0.6,1.4-1.2,1.8c-0.6,0.5-1.4,0.7-2.3,0.7c-0.7,0-1.4-0.2-2-0.5c-0.6-0.3-1-0.8-1.4-1.4
						s-0.5-1.3-0.5-2.1s0.2-1.5,0.5-2.1c0.3-0.6,0.8-1.1,1.4-1.4c0.6-0.3,1.2-0.5,2-0.5c0.7,0,1.4,0.2,2,0.5c0.6,0.3,1,0.8,1.3,1.3
						c0.3,0.6,0.5,1.2,0.5,1.9C685.2,452.6,685.2,452.8,685.1,453.1z M683.5,450.8c-0.2-0.4-0.5-0.6-0.9-0.8
						c-0.4-0.2-0.8-0.3-1.2-0.3c-0.7,0-1.2,0.2-1.7,0.6c-0.5,0.4-0.7,1-0.8,1.7h4.9C683.8,451.6,683.7,451.1,683.5,450.8z"/>
				</g>
				<g>
					<path class="st1" d="M703.6,449c0.5,0.3,0.8,0.6,1.1,1.1c0.3,0.5,0.4,1.1,0.4,1.8v4.6h-1.3v-4.4c0-0.8-0.2-1.4-0.6-1.8
						c-0.4-0.4-0.9-0.6-1.6-0.6c-0.7,0-1.2,0.2-1.6,0.6c-0.4,0.4-0.6,1.1-0.6,1.9v4.3h-1.3v-4.4c0-0.8-0.2-1.4-0.6-1.8
						c-0.4-0.4-0.9-0.6-1.6-0.6c-0.7,0-1.2,0.2-1.6,0.6c-0.4,0.4-0.6,1.1-0.6,1.9v4.3h-1.3v-7.8h1.3v1.1c0.3-0.4,0.6-0.7,1-0.9
						c0.4-0.2,0.9-0.3,1.4-0.3c0.7,0,1.2,0.1,1.7,0.4c0.5,0.3,0.9,0.7,1.1,1.3c0.2-0.5,0.6-1,1.1-1.3c0.5-0.3,1.1-0.5,1.7-0.5
						C702.6,448.6,703.1,448.7,703.6,449z"/>
				</g>
				<g>
					<path class="st1" d="M708.2,450.5c0.3-0.6,0.8-1.1,1.3-1.4c0.6-0.3,1.2-0.5,1.9-0.5c0.7,0,1.3,0.1,1.8,0.4
						c0.5,0.3,0.9,0.7,1.1,1.1v-1.4h1.3v7.8h-1.3v-1.4c-0.3,0.5-0.6,0.8-1.1,1.1c-0.5,0.3-1.1,0.4-1.8,0.4c-0.7,0-1.3-0.2-1.9-0.5
						s-1-0.8-1.3-1.4c-0.3-0.6-0.5-1.3-0.5-2.1C707.8,451.8,707.9,451.1,708.2,450.5z M714,451.1c-0.2-0.4-0.6-0.8-1-1
						c-0.4-0.2-0.8-0.3-1.3-0.3c-0.5,0-0.9,0.1-1.3,0.3s-0.7,0.6-0.9,1c-0.2,0.4-0.4,0.9-0.4,1.5c0,0.6,0.1,1.1,0.4,1.6
						c0.2,0.4,0.6,0.8,0.9,1s0.8,0.3,1.3,0.3c0.5,0,0.9-0.1,1.3-0.3c0.4-0.2,0.7-0.6,1-1c0.2-0.4,0.4-1,0.4-1.5
						S714.2,451.5,714,451.1z"/>
				</g>
				<g>
					<path class="st1" d="M721.1,449c0.4-0.2,0.9-0.4,1.5-0.4v1.3h-0.3c-1.4,0-2.2,0.8-2.2,2.4v4.2h-1.3v-7.8h1.3v1.3
						C720.3,449.6,720.7,449.2,721.1,449z"/>
				</g>
				<g>
					<path class="st1" d="M729.4,456.5l-3-3.4v3.4h-1.3V446h1.3v6.2l3-3.4h1.8l-3.7,3.9l3.7,3.9H729.4z"/>
				</g>
				<g>
					<path class="st1" d="M740.4,453.1h-6.2c0,0.8,0.3,1.4,0.8,1.8c0.5,0.4,1.1,0.6,1.7,0.6c0.6,0,1-0.1,1.4-0.4
						c0.4-0.3,0.6-0.6,0.8-1h1.4c-0.2,0.7-0.6,1.4-1.2,1.8c-0.6,0.5-1.4,0.7-2.3,0.7c-0.7,0-1.4-0.2-2-0.5c-0.6-0.3-1-0.8-1.4-1.4
						s-0.5-1.3-0.5-2.1s0.2-1.5,0.5-2.1c0.3-0.6,0.8-1.1,1.4-1.4c0.6-0.3,1.2-0.5,2-0.5c0.7,0,1.4,0.2,2,0.5c0.6,0.3,1,0.8,1.3,1.3
						c0.3,0.6,0.5,1.2,0.5,1.9C740.5,452.6,740.5,452.8,740.4,453.1z M738.8,450.8c-0.2-0.4-0.5-0.6-0.9-0.8
						c-0.4-0.2-0.8-0.3-1.2-0.3c-0.7,0-1.2,0.2-1.7,0.6c-0.5,0.4-0.7,1-0.8,1.7h4.9C739.1,451.6,739,451.1,738.8,450.8z"/>
				</g>
				<g>
					<path class="st1" d="M744.7,449.8v4.6c0,0.4,0.1,0.6,0.2,0.8c0.2,0.2,0.4,0.2,0.8,0.2h1v1.1h-1.2c-0.7,0-1.3-0.2-1.6-0.5
						s-0.5-0.9-0.5-1.6v-4.6h-1v-1.1h1v-2h1.3v2h2v1.1H744.7z"/>
				</g>
				<g>
					<path class="st1" d="M749.4,447.2c-0.2-0.2-0.3-0.4-0.3-0.6c0-0.2,0.1-0.5,0.3-0.6s0.4-0.3,0.6-0.3c0.2,0,0.4,0.1,0.6,0.3
						c0.2,0.2,0.2,0.4,0.2,0.6c0,0.2-0.1,0.5-0.2,0.6c-0.2,0.2-0.4,0.3-0.6,0.3C749.7,447.5,749.5,447.4,749.4,447.2z M750.6,448.7
						v7.8h-1.3v-7.8H750.6z"/>
				</g>
				<g>
					<path class="st1" d="M759.9,449.4c0.6,0.6,0.9,1.4,0.9,2.5v4.6h-1.3v-4.4c0-0.8-0.2-1.4-0.6-1.8c-0.4-0.4-0.9-0.6-1.6-0.6
						c-0.7,0-1.2,0.2-1.6,0.6c-0.4,0.4-0.6,1-0.6,1.9v4.3h-1.3v-7.8h1.3v1.1c0.3-0.4,0.6-0.7,1-0.9c0.4-0.2,0.9-0.3,1.5-0.3
						C758.5,448.6,759.3,448.9,759.9,449.4z"/>
				</g>
				<g>
					<path class="st1" d="M768.8,449c0.5,0.3,0.9,0.7,1.1,1.1v-1.4h1.3v7.9c0,0.7-0.2,1.3-0.5,1.9c-0.3,0.6-0.7,1-1.3,1.3
						c-0.6,0.3-1.2,0.5-2,0.5c-1,0-1.9-0.2-2.6-0.7c-0.7-0.5-1.1-1.1-1.2-2h1.3c0.1,0.5,0.4,0.9,0.9,1.1s1,0.4,1.6,0.4
						c0.7,0,1.3-0.2,1.7-0.7c0.4-0.4,0.7-1.1,0.7-1.9V455c-0.3,0.5-0.6,0.8-1.1,1.1c-0.5,0.3-1.1,0.5-1.8,0.5
						c-0.7,0-1.3-0.2-1.9-0.5c-0.6-0.3-1-0.8-1.3-1.4c-0.3-0.6-0.5-1.3-0.5-2.1c0-0.8,0.2-1.5,0.5-2.1c0.3-0.6,0.8-1.1,1.3-1.4
						c0.6-0.3,1.2-0.5,1.9-0.5C767.7,448.6,768.3,448.8,768.8,449z M769.6,451.1c-0.2-0.4-0.6-0.8-1-1c-0.4-0.2-0.8-0.3-1.3-0.3
						c-0.5,0-0.9,0.1-1.3,0.3s-0.7,0.6-0.9,1c-0.2,0.4-0.4,0.9-0.4,1.5c0,0.6,0.1,1.1,0.4,1.6c0.2,0.4,0.6,0.8,0.9,1
						s0.8,0.3,1.3,0.3c0.5,0,0.9-0.1,1.3-0.3c0.4-0.2,0.7-0.6,1-1c0.2-0.4,0.4-1,0.4-1.5S769.8,451.5,769.6,451.1z"/>
				</g>
			</g>
			<g>
				<g>
					<g>
						<g>
							<path class="st1" d="M402.3,424.6c0,0,16.4-14.5,9.9-23.3c-4.4-6-5.5-13.7-5.1-21.1c0.5-9.9,4.7-19.1,12-26
								c7.2-6.9,16.7-10.6,26.6-10.6c10.2,0,19.6,4,26.7,10.9l-11.4,11.6c-4-4-9.5-6.3-15.4-6.3c0,0-0.1,0-0.1,0
								c-11.7,0-21.6,9.4-22.1,21.1c-0.2,4.2,1,8.4,3,12.2c2.4,4.6,2.2,13.5-11.2,24.2c13.1-7,15.7-17.9,19.8-15.9
								c3.3,1.6,6.9,2.7,10.6,2.7c9.3,0,17.3-5.8,20.6-14h-20.6v-16.3h38.4v8.1c0,21.2-17.2,38.4-38.4,38.4
								c-5.7,0-11.4-1.3-16.6-3.8C420.3,420.9,402.3,424.6,402.3,424.6z"/>
						</g>
					</g>
				</g>
				<g class="st2">
					<g>
						<path class="st1" d="M512.1,380.9v12.3h-1.8c-6.1,0-9.4,3.4-9.4,8.7v17.2h-11.9v-37.6h11.9v3.8c2.5-2.8,5.7-4.4,9.4-4.4H512.1
							z"/>
					</g>
					<g>
						<path class="st1" d="M555,381.5v37.6h-11.9V416c-2.7,2.5-6.3,4-10.5,4c-10.3,0-18-8.5-18-19.7c0-11.2,7.7-19.7,18-19.7
							c4.1,0,7.7,1.5,10.5,4v-3.1H555z M543.1,400.3c0-4.6-3.5-8.1-8.1-8.1s-8,3.5-8,8.1c0,4.6,3.4,8.1,8,8.1
							S543.1,404.9,543.1,400.3z"/>
					</g>
					<g>
						<path class="st1" d="M603.4,400.3c0,11.2-7.7,19.7-18,19.7c-4.1,0-7.7-1.5-10.5-4v17.1H563v-51.6h11.9v3.1
							c2.7-2.5,6.3-4,10.5-4C595.7,380.6,603.4,389.1,603.4,400.3z M591.1,400.3c0-4.6-3.4-8.1-8-8.1s-8.1,3.5-8.1,8.1
							c0,4.6,3.5,8.1,8.1,8.1S591.1,404.9,591.1,400.3z"/>
					</g>
					<g>
						<path class="st1" d="M646.3,394.7v24.4h-11.9v-20.4c0-3.9-2.4-6.5-6.2-6.5c-4.1,0-6.9,2.7-6.9,6.6v20.3h-11.9V366h11.9v19
							c2.9-3,6.6-4.4,10.8-4.4C640.7,380.6,646.3,386.2,646.3,394.7z"/>
					</g>
					<g>
						<path class="st1" d="M652.3,370.2c0-4.2,3.2-7.3,7.3-7.3c4.2,0,7.3,3.1,7.3,7.3c0,4.1-3.1,7.2-7.3,7.2
							C655.5,377.4,652.3,374.3,652.3,370.2z M653.6,381.5h11.9v37.6h-11.9V381.5z"/>
					</g>
					<g>
						<path class="st1" d="M707.2,407.2v11.9h-33v-50.9h12.7v38.9H707.2z"/>
					</g>
					<g>
						<path class="st1" d="M749.5,403.9h-26.8c1.3,3.6,4.4,5.8,8.6,5.8c3.8,0,6.9-1.9,8.6-3.7l7.9,6.9c-4,4.4-10,7.1-16.8,7.1
							c-12,0-21-8.6-21-19.9c0-11.1,8.6-19.5,20.1-19.5c11.4,0,19.9,8.4,19.9,19.9C749.8,401.5,749.7,402.9,749.5,403.9z
							 M722.5,396.5H737c-1-3.5-3.8-5.8-7.2-5.8C726.4,390.8,723.6,393,722.5,396.5z"/>
					</g>
					<g>
						<path class="st1" d="M793.9,381.5v37.6h-11.9V416c-2.7,2.5-6.3,4-10.5,4c-10.3,0-18-8.5-18-19.7c0-11.2,7.7-19.7,18-19.7
							c4.1,0,7.7,1.5,10.5,4v-3.1H793.9z M781.9,400.3c0-4.6-3.5-8.1-8.1-8.1s-8,3.5-8,8.1c0,4.6,3.4,8.1,8,8.1
							S781.9,404.9,781.9,400.3z"/>
					</g>
					<g>
						<path class="st1" d="M816.8,380.2v1.3h8.4v10.9h-8.4v26.7h-12v-26.7h-5.3v-10.9h5.3v-2.1c0-8.3,4.2-14.2,13.9-14.2
							c3,0,5.2,0.5,7.4,1.7v10.5c-1.4-0.8-3-1.3-4.6-1.3C818.4,376,816.8,377.6,816.8,380.2z"/>
					</g>
				</g>
			</g>
			<g>
				<g>
					<g>
						<path class="st0" d="M555.1,525.8L555.1,525.8c-7.7,0-14-6.3-14-14l0,0c0-7.7,6.3-14,14-14l0,0c7.7,0,14,6.3,14,14l0,0
							C569.1,519.5,562.8,525.8,555.1,525.8z"/>
					</g>
				</g>
				<g>
					<g>
						<path class="st0" d="M615.4,525.8L615.4,525.8c-7.7,0-14-6.3-14-14l0,0c0-7.7,6.3-14,14-14l0,0c7.7,0,14,6.3,14,14l0,0
							C629.4,519.5,623.2,525.8,615.4,525.8z"/>
					</g>
				</g>
				<g>
					<g>
						<path class="st0" d="M674.1,525.8L674.1,525.8c-7.7,0-14-6.3-14-14l0,0c0-7.7,6.3-14,14-14l0,0c7.7,0,14,6.3,14,14l0,0
							C688.1,519.5,681.9,525.8,674.1,525.8z"/>
					</g>
				</g>
				<g>
					<g>
						<g>
							<path class="st3" d="M680.5,507.9v2.5l0,0c-0.1,0-0.2,0-0.4,0c-1.3,0-2.6-0.7-3.3-1.8v6.1c0,2.5-2,4.5-4.5,4.5
								s-4.5-2-4.5-4.5s2-4.5,4.5-4.5c0,0,0.1,0,0.1,0c0,0,0.1,0,0.1,0v2.2c-0.1,0-0.2,0-0.3,0c-1.3,0-2.3,1-2.3,2.3
								c0,1.3,1,2.3,2.3,2.3c1.3,0,2.4-1,2.4-2.3l0-10.4h2.1C677,506.2,678.6,507.7,680.5,507.9z"/>
						</g>
					</g>
				</g>
				<g>
					<g>
						<g>
							<path class="st3" d="M622.9,507.2c-0.5,0.2-1.1,0.4-1.8,0.5c0.6-0.4,1.1-1,1.3-1.7c-0.6,0.4-1.2,0.6-1.9,0.7
								c-0.6-0.6-1.3-1-2.2-1c-1.7,0-3.1,1.4-3.1,3.1c0,0.2,0,0.5,0.1,0.7c-2.5-0.1-4.8-1.4-6.3-3.2c-0.3,0.5-0.4,1-0.4,1.5
								c0,1.1,0.5,2,1.4,2.5c-0.5,0-1-0.1-1.4-0.4v0c0,1.5,1,2.7,2.5,3c-0.3,0.1-0.5,0.1-0.8,0.1c-0.2,0-0.4,0-0.6,0
								c0.4,1.2,1.5,2.1,2.9,2.1c-1,0.8-2.4,1.3-3.8,1.3c-0.2,0-0.5,0-0.7,0c1.3,0.9,3,1.4,4.7,1.4c5.6,0,8.7-4.7,8.7-8.7
								c0-0.1,0-0.3,0-0.4C622,508.3,622.5,507.8,622.9,507.2L622.9,507.2z"/>
						</g>
					</g>
				</g>
				<g>
					<g>
						<path class="st3" d="M552.6,511.8c0-1.4,1.1-2.5,2.5-2.5s2.5,1.1,2.5,2.5s-1.1,2.5-2.5,2.5
							C553.7,514.3,552.6,513.2,552.6,511.8 M551.3,511.8c0,2.1,1.7,3.8,3.8,3.8c2.1,0,3.8-1.7,3.8-3.8c0-2.1-1.7-3.8-3.8-3.8
							C553,508,551.3,509.7,551.3,511.8 M558.2,507.8c0,0.5,0.4,0.9,0.9,0.9s0.9-0.4,0.9-0.9c0-0.5-0.4-0.9-0.9-0.9
							S558.2,507.3,558.2,507.8 M552.1,517.8c-0.7,0-1.1-0.2-1.4-0.3c-0.3-0.1-0.6-0.3-0.9-0.6s-0.4-0.5-0.6-0.9
							c-0.1-0.3-0.2-0.7-0.3-1.4c0-0.8,0-1,0-3s0-2.2,0-3c0-0.7,0.2-1.1,0.3-1.4c0.1-0.4,0.3-0.6,0.6-0.9c0.3-0.3,0.5-0.4,0.9-0.6
							c0.3-0.1,0.7-0.2,1.4-0.3c0.8,0,1,0,3,0s2.2,0,3,0c0.7,0,1.1,0.1,1.4,0.3c0.3,0.1,0.6,0.3,0.9,0.6s0.4,0.5,0.6,0.9
							c0.1,0.3,0.2,0.7,0.3,1.4c0,0.8,0,1,0,3c0,2,0,2.2,0,3c0,0.7-0.2,1.1-0.3,1.4c-0.1,0.3-0.3,0.6-0.6,0.9s-0.5,0.4-0.9,0.6
							c-0.3,0.1-0.7,0.2-1.4,0.3c-0.8,0-1,0-3,0C553.1,517.9,552.9,517.9,552.1,517.8 M552,504.4c-0.8,0-1.3,0.2-1.8,0.4
							c-0.5,0.2-0.9,0.5-1.3,0.9c-0.4,0.4-0.7,0.8-0.9,1.3c-0.2,0.5-0.3,1-0.3,1.8s0,1,0,3.1c0,2,0,2.3,0,3.1s0.2,1.3,0.3,1.8
							c0.2,0.5,0.4,0.9,0.9,1.3c0.4,0.4,0.8,0.7,1.3,0.9c0.5,0.2,1,0.3,1.8,0.3c0.8,0,1,0,3.1,0s2.3,0,3.1,0s1.3-0.2,1.8-0.3
							c0.5-0.2,0.9-0.5,1.3-0.9c0.4-0.4,0.7-0.8,0.9-1.3c0.2-0.5,0.3-1,0.3-1.8c0-0.8,0-1,0-3.1c0-2,0-2.3,0-3.1
							c0-0.8-0.2-1.3-0.3-1.8c-0.2-0.5-0.5-0.9-0.9-1.3s-0.8-0.7-1.3-0.9c-0.5-0.2-1-0.3-1.8-0.4s-1,0-3.1,0
							C553.1,504.3,552.8,504.3,552,504.4"/>
					</g>
				</g>
			</g>
		</g>
	</g>
	<g>
		<g>
			<path class="st0" d="M859.5,895.7c61.9-48.6,119-72.2,157.3-84.5c39.9-12.8,134.4-43.1,160.8-7c11.9,16.2,9.1,44.7-4.7,61
				c-22.7,27-69.9,14.9-130.3,11.7C999.8,874.6,937.3,876.2,859.5,895.7z"/>
		</g>
	</g>
</g>
<g>
	<g>
		<path class="st3" d="M340.6,617l-24.8,58c-2.9,6.9,2.1,14.5,9.6,14.5h574.8c7.7,0,12.7-8.1,9.3-15l-28.6-58
			c-1.8-3.5-5.4-5.8-9.3-5.8H350.2C346,610.7,342.3,613.2,340.6,617z"/>
	</g>
</g>
<g>
	<g>
		<path class="st6" d="M872.7,655.6"/>
	</g>
</g>
<g>
	<g>
		<path class="st6" d="M353.1,655.6"/>
	</g>
</g>
</svg>
