<?xml version="1.0" encoding="UTF-8"?>
<svg id="Calque_2" data-name="Calque 2" xmlns="http://www.w3.org/2000/svg" viewBox="0 0 1540.94 342.87">
  <defs>
    <style>
      .cls-1 {
        font-family: Lufga-ExtraBold, Lufga;
        font-size: 267.66px;
        font-weight: 700;
      }

      .cls-1, .cls-2 {
        fill: #000018;
      }

      .cls-3 {
        letter-spacing: 0em;
      }

      .cls-4 {
        letter-spacing: 0em;
      }
    </style>
  </defs>
  <g id="Calque_1-2" data-name="Calque 1">
    <g>
      <path class="cls-2" d="m0,293.87s59.56-52.43,35.77-84.56c-16.01-21.63-19.88-49.75-18.66-76.43,1.65-35.94,17.06-69.49,43.38-94.47C86.79,13.45,121.07-.18,157.07,0c36.93.2,71.26,14.6,96.77,39.71l-41.36,42.27c-14.7-14.45-34.47-22.75-55.72-22.87-.14,0-.28,0-.42,0-42.32,0-78.24,34.22-80.18,76.48-.71,15.4,3.55,30.4,10.83,44.21,8.81,16.73,7.85,48.91-40.73,87.65,47.42-25.44,57.1-64.76,71.73-57.57,11.93,5.86,24.92,9.72,38.33,9.72,33.82,0,62.81-21.03,74.61-50.69h-74.61v-59.11h139.36v29.56c0,76.84-62.52,139.36-139.36,139.36-20.82,0-41.46-4.69-60.14-13.62-30.84,15.23-96.18,28.77-96.18,28.77Z"/>
      <text class="cls-1" transform="translate(301.68 273.82)"><tspan class="cls-4" x="0" y="0">r</tspan><tspan x="100.37" y="0">aphi</tspan><tspan class="cls-3" x="670.22" y="0">L</tspan><tspan x="809.14" y="0">eaf</tspan></text>
    </g>
  </g>
</svg>