<?xml version="1.0" encoding="utf-8"?>
<!-- Generator: Adobe Illustrator 27.8.1, SVG Export Plug-In . SVG Version: 6.00 Build 0)  -->
<svg version="1.1" xmlns="http://www.w3.org/2000/svg" xmlns:xlink="http://www.w3.org/1999/xlink" x="0px" y="0px"
	 viewBox="0 0 1000 1000" style="enable-background:new 0 0 1000 1000;" xml:space="preserve">
<style type="text/css">
	.st0{opacity:0.3;}
	.st1{opacity:0.07;}
	.st2{fill:#000018;}
	.st3{fill:#D5D8D9;}
	.st4{fill:none;stroke:#D5D8D9;stroke-width:5.0233;stroke-miterlimit:10;}
	.st5{fill:none;stroke:#BA310B;stroke-width:8.3721;stroke-miterlimit:10;}
	.st6{fill:#EAC5B8;stroke:#000000;stroke-width:1.0437;stroke-miterlimit:10;}
	.st7{fill:none;stroke:#1D1D1B;stroke-width:2.571;stroke-miterlimit:10;}
	.st8{fill:#FFFFFF;}
	.st9{fill:#1D1D1B;}
	.st10{fill:#018EBB;stroke:#000000;stroke-width:1.0437;stroke-miterlimit:10;}
	.st11{fill:#DA6E35;}
	.st12{fill:#EAC5B8;stroke:#000000;stroke-width:1.0437;stroke-linejoin:round;stroke-miterlimit:10;}
	.st13{fill:#DA6E35;stroke:#000000;stroke-width:1.0437;stroke-miterlimit:10;}
	.st14{fill:#EAC5B8;}
	.st15{fill:#B9A3A9;}
	.st16{fill:#4E2825;}
	.st17{fill:#65459B;stroke:#000000;stroke-width:1.704;stroke-miterlimit:10;}
	.st18{fill:#018EBB;}
	.st19{fill:#BA310B;}
	.st20{fill:none;stroke:#FAF9F2;stroke-width:4.1749;stroke-linecap:round;stroke-miterlimit:10;}
	.st21{fill:none;stroke:#FBFAF3;stroke-width:4.1749;stroke-linecap:round;stroke-miterlimit:10;}
</style>
<g id="Calque_2" class="st0">
	<g>
		<g class="st1">
			<path class="st2" d="M964,607.74H161.74c-19.88,0-36-16.12-36-36V140.93c0-19.88,16.12-36,36-36H964c19.88,0,36,16.12,36,36
				v430.81C1000,591.62,983.88,607.74,964,607.74z"/>
		</g>
		<g>
			<path class="st3" d="M964,114.98c14.31,0,25.95,11.64,25.95,25.95v430.81c0,14.31-11.64,25.95-25.95,25.95H161.74
				c-14.31,0-25.95-11.64-25.95-25.95V140.93c0-14.31,11.64-25.95,25.95-25.95H964 M964,104.93H161.74c-19.88,0-36,16.12-36,36
				v430.81c0,19.88,16.12,36,36,36H964c19.88,0,36-16.12,36-36V140.93C1000,121.05,983.88,104.93,964,104.93L964,104.93z"/>
		</g>
		<g>
			<line class="st4" x1="125.74" y1="204.52" x2="1000" y2="204.52"/>
		</g>
		<line class="st4" x1="125.74" y1="301.5" x2="1000" y2="301.5"/>
		<line class="st4" x1="125.74" y1="398.47" x2="1000" y2="398.47"/>
		<line class="st4" x1="125.74" y1="495.44" x2="1000" y2="495.44"/>
		<circle class="st5" cx="162.74" cy="456.66" r="17.47"/>
		<circle class="st5" cx="362.83" cy="355.56" r="17.47"/>
		<circle class="st5" cx="562.91" cy="380.22" r="17.47"/>
		<circle class="st5" cx="763" cy="230.92" r="17.47"/>
		<circle class="st5" cx="963.08" cy="168.57" r="17.47"/>
		<line class="st5" x1="176.73" y1="446.22" x2="346.91" y2="362.75"/>
		<line class="st5" x1="380.3" y1="355.56" x2="545.44" y2="380.22"/>
		<line class="st5" x1="578.83" y1="373.03" x2="752.95" y2="245.2"/>
		<line class="st5" x1="780.47" y1="223.31" x2="946.12" y2="172.68"/>
	</g>
</g>
<g id="Calque_1">
	<path class="st6" d="M412.08,545.9c2.91-9.84-18.44-7.84-18.44-7.84c4.96-1.8,23.15-2.58,23.81-8.94
		c1.2-11.58-28.26-5.19-28.26-5.19c7.64-3.12,30.61-4,30.27-12.79c-0.46-11.99-36.34-2.83-36.34-2.83
		c10.56-2.73,29.81-11.02,27.82-17.29c-4.3-13.57-41.2,5.72-37.52,2.1c3.68-3.62,10.72-22.76,2.81-24.73
		c-9.47-2.36-13.48,15.52-25.71,27.19c-12.46,11.89-21.28,11.85-30.32,12.59c-22.87,1.88-87.65,9.27-87.65,9.27l-76.8-65.8
		l-39.65,47.7l76.41,97.1c7.95,10.1,21.56,13.85,33.56,9.23c0,0,92.64-37.96,120.54-50.89C378.38,540.06,408.05,559.53,412.08,545.9
		z"/>
	<path class="st7" d="M131.43,362.07c0,0,7.16,19.88,24.31,19.06"/>
	<g>
		
			<rect x="482.37" y="853.57" transform="matrix(0.9733 -0.2295 0.2295 0.9733 -191.5367 144.6529)" class="st8" width="87.42" height="84.31"/>
		<path class="st9" d="M558.56,845.29l19.11,81.04l-84.07,19.83l-19.11-81.04L558.56,845.29 M559.33,844.03l-86.1,20.3l19.59,83.07
			l86.1-20.3L559.33,844.03L559.33,844.03z"/>
	</g>
	<path class="st2" d="M689.46,977.78c0,0-0.08-0.22-0.22-0.63c-6.35-17.86-19.58-32.43-36.68-40.61l-62.3-29.79
		c-2.33-1.65-5.26-2.3-8.04-1.66c-9.04,2.07-17.12,7.14-23.41,14.12c-4.58,5.08-11.6,10.01-22.04,11.17
		c-13.56,1.51-22.45-4.51-27.5-9.77c-4.12-4.3-9.91-6.57-15.83-5.92l-13.33,1.48l9.31,83.84L689.46,977.78z"/>
	<path class="st10" d="M513.8,732.02l-22.26-41.78c-20.68-38.82-68.92-53.53-107.74-32.85l-150.84,80.36l-96.82,51.58
		c-9.31,10.64-18.85,22.43-27.23,34.49c-22.87,32.97-77.98,74.32-90.26,48.9c-0.87-1.79-1.74-5.1-2.59-9.32
		c-0.5-2.5-1-5.31-1.48-8.33c-0.68,7.3-4.19,52.65,10.65,86.52c8.36,19.07,21.76,32.44,36.86,41.81
		c41.41,25.68,95.01,20.21,131.84-11.7l207.78-179.97l60.42,111.57l128.92-16.97L513.8,732.02z"/>
	<path class="st11" d="M229.64,624.84c-23.69-160.91-72.4-195.8-72.4-195.8H57.49C34.31,450.56,0,532.32,0,631.89
		c0,103.87,9.32,184.39,14.68,222.14l0,0c0,0-0.04,0.38-0.1,1.04c0.5,3.16,1.02,6.08,1.55,8.66c0.13,0.63,0.26,1.22,0.38,1.81
		c0.04,0.18,0.08,0.37,0.12,0.54c0.14,0.63,0.29,1.24,0.43,1.81c0.03,0.13,0.06,0.25,0.1,0.37c0.13,0.5,0.26,0.98,0.39,1.42
		c0.03,0.1,0.06,0.2,0.09,0.29c0.15,0.49,0.3,0.94,0.45,1.36c0.03,0.1,0.07,0.19,0.1,0.28c0.15,0.41,0.31,0.79,0.46,1.11
		c12.28,25.42,67.39-15.93,90.26-48.9c5.65-8.14,11.83-16.16,18.11-23.78c5.72-6.94,12.77-12.67,20.7-16.89l85.23-45.4
		C233.62,697.55,233.38,650.27,229.64,624.84z"/>
	<g>
		<path d="M401.72,791.73c-3.26-23.78-3.01-53.07,6.86-75.25C400.78,740.7,400.88,766.55,401.72,791.73L401.72,791.73z"/>
	</g>
	<path class="st2" d="M584.01,456.77L584.01,456.77c-6.61-2.69-14.16,0.49-16.85,7.11l-66.8,164.36H309.78v19.78h203.66v-0.1
		l0.23,0.1l74.1-182.32C589.21,462.2,587.52,458.2,584.01,456.77z"/>
	<path class="st12" d="M457.42,575.12c0-5.92-10.62-3.27-10.62-3.27c4.9-3.27,8.1-10.14,2.99-15.11
		c-5.45-5.31-15.96,2.65-15.96,2.65c7.45-5.41,9.9-11.54,5.89-16.81c-5.08-6.67-16.61,1.5-16.61,1.5
		c7.35-10.21,25.92-25.98,17.97-31.86c-9.39-6.94-35.53,22.87-32.5,17.97c3.03-4.9,1.57-32.5-7.52-32.54
		c-10.89-0.04-7.48,15.1-12.25,32.67c-5.04,18.54-24.3,27.09-33.9,30.29c-24.28,8.11-92.51,33.29-92.51,33.29l-76.21-59.21
		l-54.76,70.48l108.54,84.94c11.29,8.84,27.03,9.28,38.81,1.1c0,0,90.31-65.7,117.1-87.1C426.41,579.74,457.42,589.01,457.42,575.12
		z"/>
	<path class="st13" d="M162.87,648.03l77.91-90.43l-82.99-71.5c-24.97-21.51-68.61-40.03-96.32-6.99
		c-24.32,29.01-6.56,75.91,18.41,97.42L162.87,648.03z"/>
	<path class="st14" d="M150.43,191.16l8.4,0.31c48.25,1.79,85.91,42.34,84.12,90.59l-2,54.01c-1.62,43.76-38.76,78.8-82.54,77.87
		c0,0-1.33,13.9-1.18,15.1l-99.73-0.01c3.7-7.94,6.86-28.68,9.1-47.41c0.65-5.39-0.64-10.78-3.4-15.45
		c-9.01-15.26-13.91-33.18-13.2-52.2l1.13-30.6C53.09,230.48,97.55,189.2,150.43,191.16z"/>
	<path class="st9" d="M139.32,289.99l23.73,1.93c0.67,0.05,1.26-0.45,1.32-1.12l0.82-10.1c0.05-0.67-0.45-1.26-1.12-1.32
		l-23.73-1.93c-0.67-0.05-1.26,0.45-1.32,1.12l-0.82,10.1C138.15,289.35,138.65,289.94,139.32,289.99z"/>
	<path class="st9" d="M210.69,302.14l23.73,1.93c0.67,0.05,1.26-0.45,1.32-1.12l0.82-10.1c0.05-0.67-0.45-1.26-1.12-1.32
		l-23.73-1.93c-0.67-0.05-1.26,0.45-1.32,1.12l-0.82,10.1C209.52,301.5,210.02,302.09,210.69,302.14z"/>
	
		<ellipse transform="matrix(0.081 -0.9967 0.9967 0.081 -123.673 512.5986)" class="st9" cx="216.14" cy="323.36" rx="10.82" ry="8.03"/>
	
		<ellipse transform="matrix(0.081 -0.9967 0.9967 0.081 -177.152 430.298)" class="st9" cx="144.77" cy="311.22" rx="10.82" ry="8.03"/>
	<path class="st7" d="M179.45,327.99c0,0-1.09,9.33,1.85,16.48c2.81,6.83,9.8,11.44,3.77,13.76c-12.33,4.75-12.31-4.6-12.31-4.6"/>
	<path class="st14" d="M68.12,327.95c0,0,2.45-73.23-30.53-40.28c-26.41,26.38,0.18,73.41,22.95,68.28"/>
	<path class="st15" d="M53.67,317.74c0,0-6.56-34.47-14.5-7.94s4.48,21.14,4.48,21.14S40.25,291.71,53.67,317.74z"/>
	<path class="st16" d="M141.58,161.4c33.86-5.44,33,9.46,60.44,11.44c21.04,1.51,85.77,14.16,59.63,79.78
		c-3.67,9.21-12.39,10.67-42.75,6.81c-15.54-1.98-37.29-2.62-46.66-5.83c-16.23-5.57-39.95-11.79-52.11,0.32
		c-6.71,6.68-15.87,12.19-28.36,14.13c-40.31,6.28-18.49,28.21-19.7,48.3c-0.15,2.51-1.5,9.16-5.2,8.02
		c-6.24-1.92-15.6-45.14-15.6-45.14s-2.33-49.36,2.38-61.46C70.91,173.47,107.72,166.84,141.58,161.4z"/>
	<path class="st15" d="M158.42,413.94c0,0-33.66-1.99-48.19-10.58c0,0,32.99,25.85,47.04,24.04L158.42,413.94z"/>
	<path class="st17" d="M35.53,910.03"/>
	<path class="st18" d="M844.59,375.16L844.59,375.16c0-30.2-12.42-57.49-32.42-77.06l0.05-0.05
		c-61.53-63.43-176.51-21.36-182.79,66.58c-8.66,70.97,52.77,66.81-13.64,130.09c0.05-0.01,50.57-10.48,74.42-22.26
		C759.16,507.42,846.64,452.42,844.59,375.16z"/>
	<g class="st1">
		<g>
			<path class="st2" d="M692.47,697.52L692.47,697.52c0-11.41-5.21-21.73-13.61-29.13l0.02-0.02
				c-25.84-23.98-74.11-8.08-76.75,25.17c-3.64,26.83,22.16,25.26-5.73,49.18c0.02,0,21.23-3.96,31.25-8.41
				C656.6,747.52,693.33,726.72,692.47,697.52z"/>
		</g>
	</g>
	<path class="st19" d="M663.58,686.79c-4.16-4.16-10.92-4.16-15.08,0l-1.61,1.61l-1.61-1.61c-4.16-4.16-10.92-4.16-15.08,0l0,0
		c-4.16,4.16-4.16,10.92,0,15.08l16.69,16.69l15.08-15.08l1.61-1.61C667.75,697.71,667.75,690.96,663.58,686.79z"/>
	<g>
		<line class="st20" x1="677.41" y1="320.01" x2="795.84" y2="320.01"/>
		<line class="st20" x1="756.11" y1="343.4" x2="822.05" y2="343.4"/>
		<line class="st20" x1="651.21" y1="343.4" x2="743.4" y2="343.4"/>
		<line class="st20" x1="685.96" y1="366.78" x2="828.81" y2="366.78"/>
		<line class="st20" x1="644.44" y1="366.78" x2="674.5" y2="366.78"/>
		<line class="st20" x1="671.13" y1="390.17" x2="802.12" y2="390.17"/>
		<line class="st20" x1="765.01" y1="413.55" x2="822.05" y2="413.55"/>
		<line class="st20" x1="651.21" y1="414.26" x2="748.73" y2="414.26"/>
		<line class="st20" x1="665.94" y1="436.93" x2="802.12" y2="436.93"/>
	</g>
	<path class="st18" d="M535.92,207.22H424.28c-14.89,0-26.96,12.07-26.96,26.96v34.31c0,14.89,12.07,26.96,26.96,26.96h76.18
		c8.59,31.67,37.08,27.77,37.08,27.77c-13.01-13.52-12.68-22.75-10.59-27.77h8.97c14.89,0,26.96-12.07,26.96-26.96v-34.31
		C562.87,219.29,550.8,207.22,535.92,207.22z"/>
	<line class="st21" x1="424.42" y1="231.92" x2="477.1" y2="231.92"/>
	<line class="st21" x1="488.13" y1="231.92" x2="503.24" y2="231.92"/>
	<line class="st21" x1="424.42" y1="245.26" x2="531.01" y2="245.26"/>
	<line class="st21" x1="424.42" y1="258.61" x2="512.5" y2="258.61"/>
</g>
</svg>
