<?xml version="1.0" encoding="utf-8"?>
<!-- Generator: Adobe Illustrator 27.9.0, SVG Export Plug-In . SVG Version: 6.00 Build 0)  -->
<svg version="1.1" id="Calque_1" xmlns="http://www.w3.org/2000/svg" xmlns:xlink="http://www.w3.org/1999/xlink" x="0px" y="0px"
	 viewBox="0 0 1000 1000" style="enable-background:new 0 0 1000 1000;" xml:space="preserve">
<style type="text/css">
	.st0{fill:#FBFAF3;}
	.st1{fill-rule:evenodd;clip-rule:evenodd;fill:#FBFAF3;}
</style>
<path class="st0" d="M333.38,500c0-92.04,74.6-166.68,166.64-166.68S666.7,407.96,666.7,500s-74.64,166.68-166.68,166.68
	S333.38,592.04,333.38,500 M243.28,500c0,141.8,114.94,256.74,256.74,256.74S756.76,641.8,756.76,500S641.82,243.26,500.02,243.26
	S243.28,358.2,243.28,500 M706.93,233.08c0,33.12,26.86,60.02,60.02,60.02c33.12,0,60.02-26.9,60.02-60.02s-26.86-59.98-60.02-59.98
	S706.93,199.96,706.93,233.08 M298,906.99c-48.75-2.22-75.24-10.34-92.85-17.21c-23.34-9.09-39.98-19.91-57.51-37.4
	c-17.49-17.49-28.35-34.13-37.4-57.47c-6.87-17.61-14.98-44.1-17.21-92.85c-2.42-52.71-2.91-68.54-2.91-202.06
	s0.53-149.31,2.91-202.06c2.22-48.75,10.38-75.2,17.21-92.85c9.09-23.34,19.91-39.98,37.4-57.51c17.49-17.49,34.13-28.35,57.51-37.4
	c17.61-6.87,44.1-14.98,92.85-17.21c52.71-2.42,68.54-2.91,202.02-2.91c133.52,0,149.31,0.53,202.06,2.91
	c48.75,2.22,75.2,10.38,92.85,17.21c23.34,9.05,39.98,19.91,57.51,37.4c17.49,17.49,28.31,34.17,37.4,57.51
	c6.87,17.61,14.98,44.1,17.21,92.85c2.42,52.75,2.91,68.54,2.91,202.06c0,133.48-0.48,149.31-2.91,202.06
	c-2.22,48.75-10.38,75.24-17.21,92.85c-9.09,23.34-19.91,39.98-37.4,57.47c-17.49,17.49-34.17,28.31-57.51,37.4
	c-17.61,6.87-44.1,14.98-92.85,17.21c-52.71,2.42-68.54,2.91-202.06,2.91C366.54,909.89,350.71,909.41,298,906.99 M293.88,3.03
	c-53.23,2.42-89.58,10.86-121.37,23.22c-32.88,12.76-60.74,29.89-88.57,57.67c-27.79,27.79-44.91,55.65-57.67,88.57
	c-12.36,31.79-20.8,68.13-23.22,121.37C0.59,347.17,0.02,364.22,0.02,500s0.57,152.83,3.03,206.14
	c2.42,53.23,10.86,89.58,23.22,121.37c12.76,32.88,29.85,60.78,57.67,88.57c27.79,27.79,55.65,44.87,88.57,57.67
	c31.83,12.36,68.13,20.8,121.37,23.22c53.35,2.42,70.36,3.03,206.14,3.03c135.82,0,152.83-0.57,206.14-3.03
	c53.23-2.42,89.58-10.86,121.37-23.22c32.88-12.8,60.74-29.89,88.57-57.67c27.79-27.79,44.87-55.69,57.67-88.57
	c12.36-31.79,20.84-68.13,23.22-121.37c2.42-53.35,2.99-70.36,2.99-206.14s-0.57-152.83-2.99-206.14
	c-2.42-53.23-10.86-89.58-23.22-121.37c-12.8-32.88-29.89-60.74-57.67-88.57c-27.79-27.79-55.69-44.91-88.53-57.67
	C795.74,13.89,759.39,5.41,706.2,3.03C652.89,0.61,635.84,0,500.06,0C364.24,0,347.23,0.57,293.88,3.03"/>
</svg>
