<?xml version="1.0" encoding="utf-8"?>
<!-- Generator: Adobe Illustrator 27.9.0, SVG Export Plug-In . SVG Version: 6.00 Build 0)  -->
<svg version="1.1" id="Calque_1" xmlns="http://www.w3.org/2000/svg" xmlns:xlink="http://www.w3.org/1999/xlink" x="0px" y="0px"
	 viewBox="0 0 1000 1000" style="enable-background:new 0 0 1000 1000;" xml:space="preserve">
<style type="text/css">
	.st0{fill:#FBFAF3;}
	.st1{fill-rule:evenodd;clip-rule:evenodd;fill:#FBFAF3;}
</style>
<path class="st0" d="M847.82,183.39c112.93,166.04,168.71,353.34,147.86,568.95c-0.09,0.91-0.56,1.75-1.31,2.3
	c-85.52,62.8-168.38,100.91-250.08,126.18c-1.3,0.4-2.72-0.08-3.51-1.19c-18.87-26.26-36.02-53.95-51.05-83.02
	c-0.86-1.71-0.08-3.77,1.7-4.45c27.24-10.26,53.14-22.56,78.05-37.12c1.96-1.15,2.09-3.96,0.27-5.31
	c-5.29-3.92-10.52-8.05-15.54-12.17c-0.94-0.76-2.2-0.91-3.26-0.4c-161.73,74.68-338.9,74.68-502.54,0
	c-1.06-0.47-2.32-0.31-3.24,0.44c-5,4.12-10.25,8.21-15.49,12.14c-1.81,1.35-1.66,4.16,0.31,5.31
	c24.91,14.29,50.81,26.86,78.01,37.17c1.76,0.67,2.6,2.69,1.72,4.4c-14.7,29.11-31.85,56.8-51.07,83.06
	c-0.84,1.06-2.21,1.55-3.51,1.15C173.83,855.55,90.98,817.44,5.45,754.64c-0.71-0.55-1.22-1.42-1.3-2.34
	c-17.42-186.5,18.09-375.35,147.72-568.95c0.31-0.51,0.79-0.91,1.34-1.15c63.78-29.27,132.12-50.81,203.54-63.11
	c1.3-0.2,2.6,0.4,3.27,1.55c8.82,15.62,18.91,35.66,25.74,52.04c75.28-11.5,151.74-11.5,228.6,0c6.82-16.02,16.56-36.41,25.35-52.04
	c0.64-1.17,1.96-1.8,3.27-1.55c71.46,12.34,139.79,33.87,203.53,63.11C847.08,182.44,847.54,182.84,847.82,183.39L847.82,183.39z
	 M424.04,538c0.79-55.14-39.41-100.76-89.87-100.76c-50.05,0-89.86,45.22-89.86,100.76c0,55.52,40.6,100.75,89.86,100.75
	C384.23,638.74,424.04,593.52,424.04,538z M756.3,538c0.79-55.14-39.41-100.76-89.86-100.76c-50.06,0-89.87,45.22-89.87,100.76
	c0,55.52,40.6,100.75,89.87,100.75C716.89,638.74,756.3,593.52,756.3,538z"/>
</svg>
