<?xml version="1.0" encoding="utf-8"?>
<!-- Generator: Adobe Illustrator 27.9.0, SVG Export Plug-In . SVG Version: 6.00 Build 0)  -->
<svg version="1.1" id="Calque_1" xmlns="http://www.w3.org/2000/svg" xmlns:xlink="http://www.w3.org/1999/xlink" x="0px" y="0px"
	 viewBox="0 0 1000 1000" style="enable-background:new 0 0 1000 1000;" xml:space="preserve">
<style type="text/css">
	.st0{fill:#FBFAF3;}
	.st1{fill-rule:evenodd;clip-rule:evenodd;fill:#FBFAF3;}
</style>
<g id="_x37_935ec95c421cee6d86eb22ecd125aef">
	<path class="st1" d="M227.01,977.92V332.98H12.67v644.94L227.01,977.92L227.01,977.92z M119.87,244.96
		c74.72,0,121.27-49.57,121.27-111.45c-1.41-63.26-46.55-111.43-119.87-111.43C47.93,22.08,0,70.24,0,133.51
		c0,61.89,46.52,111.45,118.45,111.45L119.87,244.96L119.87,244.96z M345.64,977.92c0,0,2.81-584.43,0-644.94h214.38v93.53h-1.42
		c28.19-44.01,78.97-108.68,194.6-108.68c141.07,0,246.8,92.18,246.8,290.28v369.81H785.66V632.9c0-86.69-31.01-145.85-108.6-145.85
		c-59.21,0-94.49,39.88-109.98,78.43c-5.67,13.72-7.05,33-7.05,52.27v360.17H345.64L345.64,977.92z"/>
</g>
</svg>
