<?xml version="1.0" encoding="utf-8"?>
<!-- Generator: Adobe Illustrator 27.5.0, SVG Export Plug-In . SVG Version: 6.00 Build 0)  -->
<svg version="1.1" id="Calque_1" xmlns="http://www.w3.org/2000/svg" xmlns:xlink="http://www.w3.org/1999/xlink" x="0px" y="0px"
	 viewBox="0 0 2500 2500" style="enable-background:new 0 0 2500 2500;" xml:space="preserve">
<style type="text/css">
	.st0{fill:#FAF9F2;}
</style>
<path class="st0" d="M2319.9,595.5v416.1h-0.3c-20.5,1.9-40.9,3-61.5,3.1c-225.1,0-435.2-113.4-558.5-301.9v1027.7
	c0,419.5-340,759.7-759.7,759.7c-419.5,0-759.7-340-759.7-759.7s340-759.7,759.7-759.7c7.9,0,15.7,0.3,23.6,0.9
	c7.8,0.4,15.6,1,23.3,1.5v374.4c-15.6-1.8-31-4.6-47-4.6c-214.2,0-387.6,173.6-387.6,387.6s173.6,387.6,387.6,387.6
	c214.2,0,403.3-168.7,403.3-382.8L1347,0h358.1C1738.9,321,1997.8,571.8,2319.9,595.5z"/>
</svg>
